<svg width="24" height="24" viewBox="0 0 24 24" fill="none" xmlns="http://www.w3.org/2000/svg">
<path d="M7 2.75C6.30964 2.75 5.75 3.30964 5.75 4V13C5.75 13.4142 5.41421 13.75 5 13.75C4.58579 13.75 4.25 13.4142 4.25 13V4C4.25 2.48122 5.48122 1.25 7 1.25H17C18.5188 1.25 19.75 2.48122 19.75 4V13C19.75 13.4142 19.4142 13.75 19 13.75C18.5858 13.75 18.25 13.4142 18.25 13V4C18.25 3.30964 17.6904 2.75 17 2.75H7Z" fill="black"/>
<path d="M15.5303 6.53033C15.8232 6.23744 15.8232 5.76256 15.5303 5.46967C15.2374 5.17678 14.7626 5.17678 14.4697 5.46967L11 8.93934L9.53033 7.46967C9.23744 7.17678 8.76256 7.17678 8.46967 7.46967C8.17678 7.76256 8.17678 8.23744 8.46967 8.53033L10.4697 10.5303C10.7626 10.8232 11.2374 10.8232 11.5303 10.5303L15.5303 6.53033Z" fill="black"/>
<path fill-rule="evenodd" clip-rule="evenodd" d="M2.75 7C2.75 6.58579 2.41421 6.25 2 6.25C1.58579 6.25 1.25 6.58579 1.25 7V20C1.25 20.7293 1.53973 21.4288 2.05546 21.9445C2.57118 22.4603 3.27065 22.75 4 22.75H20C20.7293 22.75 21.4288 22.4603 21.9445 21.9445C22.4603 21.4288 22.75 20.7293 22.75 20V7C22.75 6.58579 22.4142 6.25 22 6.25C21.5858 6.25 21.25 6.58579 21.25 7V15.25H2.75V7ZM2.75 16.75V20C2.75 20.3315 2.8817 20.6495 3.11612 20.8839C3.35054 21.1183 3.66848 21.25 4 21.25H20C20.3315 21.25 20.6495 21.1183 20.8839 20.8839C21.1183 20.6495 21.25 20.3315 21.25 20V16.75H2.75Z" fill="black"/>
</svg>
