<svg width="56" height="103" viewBox="0 0 56 103" fill="none" xmlns="http://www.w3.org/2000/svg">
<g filter="url(#filter0_b_350_10590)">
<rect x="56" y="103" width="56" height="103" rx="28" transform="rotate(-180 56 103)" fill="url(#paint0_linear_350_10590)" fill-opacity="0.2"/>
<g filter="url(#filter1_b_350_10590)">
<path d="M29.8697 19.2594L28.1622 17.5498L28.1622 19.9661L28.1622 40.3409C28.1622 40.426 28.0922 40.5 27.9998 40.5C27.9073 40.5 27.8373 40.426 27.8373 40.3409L27.8373 19.9653L27.8373 17.5487L26.1297 19.2587L18.7786 26.6202C18.7151 26.6838 18.6106 26.684 18.5468 26.6207C18.4846 26.5589 18.4844 26.4598 18.5463 26.3977L27.8831 17.0479C27.9133 17.0176 27.9551 17 27.9992 17C28.0434 17 28.0851 17.0176 28.1154 17.0478L37.4537 26.3977C37.5156 26.4597 37.5154 26.5589 37.4532 26.6207C37.3894 26.684 37.285 26.6838 37.2214 26.6202L29.8697 19.2594Z" stroke="url(#paint1_linear_350_10590)" stroke-width="2"/>
</g>
<rect x="55.5" y="102.5" width="55" height="102" rx="27.5" transform="rotate(-180 55.5 102.5)" stroke="url(#paint2_linear_350_10590)"/>
</g>
<defs>
<filter id="filter0_b_350_10590" x="-14" y="-14" width="84" height="131" filterUnits="userSpaceOnUse" color-interpolation-filters="sRGB">
<feFlood flood-opacity="0" result="BackgroundImageFix"/>
<feGaussianBlur in="BackgroundImageFix" stdDeviation="7"/>
<feComposite in2="SourceAlpha" operator="in" result="effect1_backgroundBlur_350_10590"/>
<feBlend mode="normal" in="SourceGraphic" in2="effect1_backgroundBlur_350_10590" result="shape"/>
</filter>
<filter id="filter1_b_350_10590" x="-11.5" y="-13" width="79" height="83.5" filterUnits="userSpaceOnUse" color-interpolation-filters="sRGB">
<feFlood flood-opacity="0" result="BackgroundImageFix"/>
<feGaussianBlur in="BackgroundImageFix" stdDeviation="14.5"/>
<feComposite in2="SourceAlpha" operator="in" result="effect1_backgroundBlur_350_10590"/>
<feBlend mode="normal" in="SourceGraphic" in2="effect1_backgroundBlur_350_10590" result="shape"/>
</filter>
<linearGradient id="paint0_linear_350_10590" x1="84" y1="206" x2="84" y2="110.856" gradientUnits="userSpaceOnUse">
<stop stop-color="#FFA000"/>
<stop offset="1" stop-color="#BB9C68" stop-opacity="0"/>
</linearGradient>
<linearGradient id="paint1_linear_350_10590" x1="28" y1="41.5" x2="28" y2="16" gradientUnits="userSpaceOnUse">
<stop stop-color="#FFE6C4"/>
<stop offset="1" stop-color="#704907"/>
</linearGradient>
<linearGradient id="paint2_linear_350_10590" x1="84" y1="206" x2="84" y2="124.068" gradientUnits="userSpaceOnUse">
<stop stop-color="#C4A46D"/>
<stop offset="1" stop-opacity="0"/>
</linearGradient>
</defs>
</svg>
