<svg width="32" height="32" viewBox="0 0 32 32" fill="none" xmlns="http://www.w3.org/2000/svg">
<path d="M15.9416 13.6932C16.4939 13.6932 16.9416 14.1409 16.9416 14.6932V15.0561H17.9773C18.5296 15.0561 18.9773 15.5038 18.9773 16.0561C18.9773 16.6084 18.5296 17.0561 17.9773 17.0561H14.9108C14.7242 17.0561 14.5452 17.1302 14.4133 17.2622C14.2813 17.3941 14.2072 17.5731 14.2072 17.7597C14.2072 17.9463 14.2813 18.1253 14.4133 18.2572C14.5452 18.3892 14.7242 18.4633 14.9108 18.4633H16.9551C17.6722 18.4633 18.3599 18.7481 18.8669 19.2552C19.3739 19.7622 19.6587 20.4499 19.6587 21.1669C19.6587 21.8839 19.3739 22.5716 18.8669 23.0786C18.3599 23.5857 17.6722 23.8705 16.9551 23.8705H16.9416V24.2334C16.9416 24.7857 16.4939 25.2334 15.9416 25.2334C15.3893 25.2334 14.9416 24.7857 14.9416 24.2334V23.8705H13.8886C13.3364 23.8705 12.8886 23.4228 12.8886 22.8705C12.8886 22.3182 13.3364 21.8705 13.8886 21.8705H15.9362L15.9416 21.8705L15.9469 21.8705H16.9551C17.1417 21.8705 17.3207 21.7964 17.4527 21.6644C17.5846 21.5325 17.6587 21.3535 17.6587 21.1669C17.6587 20.9803 17.5846 20.8013 17.4527 20.6694C17.3207 20.5374 17.1417 20.4633 16.9551 20.4633H14.9108C14.1938 20.4633 13.5061 20.1784 12.9991 19.6714C12.492 19.1644 12.2072 18.4767 12.2072 17.7597C12.2072 17.0426 12.492 16.355 12.9991 15.8479C13.5061 15.3409 14.1938 15.0561 14.9108 15.0561H14.9416V14.6932C14.9416 14.1409 15.3893 13.6932 15.9416 13.6932Z" fill="url(#paint0_linear_343_4991)"/>
<path fill-rule="evenodd" clip-rule="evenodd" d="M20.8855 11.5671C20.8876 11.5624 20.8895 11.5577 20.8915 11.553L23.884 4.32237C24.0201 3.99349 23.9757 3.61758 23.7667 3.32954C23.4849 2.94105 22.9711 2.8004 22.5307 2.99127L18.4616 4.75488C18.3398 4.80767 18.1982 4.78316 18.1013 4.69248L17.5969 4.22072L17.3679 3.98696L16.7333 3.34464C16.5374 3.14631 16.279 3.04712 16.0206 3.04745C15.7622 3.04712 15.5039 3.1463 15.3079 3.34464L14.6763 3.98399L14.4445 4.2213L13.9408 4.69248C13.8438 4.78316 13.7023 4.80767 13.5805 4.75488L9.51141 2.99127C9.07104 2.80041 8.55718 2.94103 8.27536 3.32954C8.06639 3.61761 8.02198 3.99353 8.15808 4.32237L11.1506 11.553C11.1527 11.558 11.1548 11.563 11.1569 11.568C10.3539 11.9576 9.58756 12.449 8.87702 13.0423C7.06403 14.5562 5.77443 16.61 5.20178 18.9015L3.75329 24.6976C3.19533 26.9302 4.88398 29.0928 7.18528 29.0928H24.8322C27.1165 29.0928 28.7962 26.9513 28.252 24.7327L26.827 18.9239C26.2615 16.6187 24.9738 14.5548 23.1519 13.0335C22.4453 12.4436 21.6836 11.9548 20.8855 11.5671ZM19.0435 10.7881L21.1142 5.78498L19.2569 6.58994C18.4043 6.95947 17.4137 6.78788 16.7351 6.1531L16.1989 5.65155L16.0208 5.46977L15.8439 5.65096L15.307 6.1531C14.6284 6.78788 13.6378 6.95947 12.7852 6.58994L10.9279 5.78498L12.9986 10.7881C13.0086 10.8123 13.0176 10.8367 13.0256 10.8612C14.9834 10.3159 17.0596 10.3151 19.0169 10.86C19.0248 10.8359 19.0337 10.8119 19.0435 10.7881ZM26.3096 25.2092L24.8846 19.4004C24.4207 17.5095 23.3644 15.8165 21.87 14.5687C18.4849 11.7422 13.5486 11.7472 10.1589 14.5775C8.67031 15.8205 7.6118 17.5069 7.1421 19.3864L5.69361 25.1825C5.45111 26.1529 6.18505 27.0928 7.18528 27.0928H24.8322C25.819 27.0928 26.5447 26.1676 26.3096 25.2092Z" fill="url(#paint1_linear_343_4991)"/>
<defs>
<linearGradient id="paint0_linear_343_4991" x1="16.0005" y1="2.90674" x2="16.0005" y2="29.0928" gradientUnits="userSpaceOnUse">
<stop stop-color="#A1873D"/>
<stop offset="1" stop-color="#513926"/>
</linearGradient>
<linearGradient id="paint1_linear_343_4991" x1="16.0005" y1="2.90674" x2="16.0005" y2="29.0928" gradientUnits="userSpaceOnUse">
<stop stop-color="#A1873D"/>
<stop offset="1" stop-color="#513926"/>
</linearGradient>
</defs>
</svg>
