<svg width="190" height="88" viewBox="0 0 190 88" fill="none" xmlns="http://www.w3.org/2000/svg">
<g filter="url(#filter0_bi_350_10580)">
<rect width="190" height="88" rx="12" fill="url(#paint0_linear_350_10580)" fill-opacity="0.6"/>
<path d="M12.84 25V16.36H15.546C15.626 16.36 15.774 16.362 15.99 16.366C16.21 16.37 16.42 16.386 16.62 16.414C17.296 16.498 17.864 16.74 18.324 17.14C18.788 17.54 19.138 18.048 19.374 18.664C19.61 19.276 19.728 19.948 19.728 20.68C19.728 21.416 19.61 22.092 19.374 22.708C19.138 23.32 18.788 23.826 18.324 24.226C17.864 24.622 17.296 24.862 16.62 24.946C16.42 24.974 16.21 24.99 15.99 24.994C15.774 24.998 15.626 25 15.546 25H12.84ZM14.124 23.806H15.546C15.682 23.806 15.844 23.802 16.032 23.794C16.22 23.786 16.386 23.77 16.53 23.746C16.97 23.662 17.326 23.472 17.598 23.176C17.874 22.876 18.076 22.508 18.204 22.072C18.332 21.636 18.396 21.172 18.396 20.68C18.396 20.172 18.33 19.702 18.198 19.27C18.066 18.834 17.862 18.47 17.586 18.178C17.314 17.882 16.962 17.694 16.53 17.614C16.386 17.586 16.218 17.57 16.026 17.566C15.838 17.558 15.678 17.554 15.546 17.554H14.124V23.806ZM23.3812 17.56L22.5292 15.46H23.5132L24.3652 17.56H23.3812ZM23.9392 25.18C23.2912 25.18 22.7292 25.034 22.2532 24.742C21.7772 24.45 21.4092 24.048 21.1492 23.536C20.8932 23.02 20.7652 22.426 20.7652 21.754C20.7652 21.078 20.8972 20.484 21.1612 19.972C21.4252 19.456 21.7952 19.056 22.2712 18.772C22.7472 18.484 23.3032 18.34 23.9392 18.34C24.5872 18.34 25.1492 18.486 25.6252 18.778C26.1012 19.07 26.4692 19.472 26.7292 19.984C26.9892 20.496 27.1192 21.086 27.1192 21.754C27.1192 22.43 26.9872 23.026 26.7232 23.542C26.4632 24.054 26.0952 24.456 25.6192 24.748C25.1432 25.036 24.5832 25.18 23.9392 25.18ZM23.9392 23.998C24.5592 23.998 25.0212 23.79 25.3252 23.374C25.6332 22.954 25.7872 22.414 25.7872 21.754C25.7872 21.078 25.6312 20.538 25.3192 20.134C25.0112 19.726 24.5512 19.522 23.9392 19.522C23.5192 19.522 23.1732 19.618 22.9012 19.81C22.6292 19.998 22.4272 20.26 22.2952 20.596C22.1632 20.928 22.0972 21.314 22.0972 21.754C22.0972 22.434 22.2532 22.978 22.5652 23.386C22.8772 23.794 23.3352 23.998 23.9392 23.998ZM32.9857 25V21.814C32.9857 21.562 32.9637 21.304 32.9197 21.04C32.8797 20.772 32.7997 20.524 32.6797 20.296C32.5637 20.068 32.3977 19.884 32.1817 19.744C31.9697 19.604 31.6917 19.534 31.3477 19.534C31.1237 19.534 30.9117 19.572 30.7117 19.648C30.5117 19.72 30.3357 19.838 30.1837 20.002C30.0357 20.166 29.9177 20.382 29.8297 20.65C29.7457 20.918 29.7037 21.244 29.7037 21.628L28.9237 21.334C28.9237 20.746 29.0337 20.228 29.2537 19.78C29.4737 19.328 29.7897 18.976 30.2017 18.724C30.6137 18.472 31.1117 18.346 31.6957 18.346C32.1437 18.346 32.5197 18.418 32.8237 18.562C33.1277 18.706 33.3737 18.896 33.5617 19.132C33.7537 19.364 33.8997 19.618 33.9997 19.894C34.0997 20.17 34.1677 20.44 34.2037 20.704C34.2397 20.968 34.2577 21.2 34.2577 21.4V25H32.9857ZM28.4317 25V18.52H29.5537V20.392H29.7037V25H28.4317ZM38.4905 28.06C38.1425 28.06 37.8045 28.006 37.4765 27.898C37.1525 27.79 36.8565 27.63 36.5885 27.418C36.3205 27.21 36.0985 26.952 35.9225 26.644L37.0805 26.056C37.2205 26.332 37.4205 26.534 37.6805 26.662C37.9405 26.79 38.2145 26.854 38.5025 26.854C38.8585 26.854 39.1625 26.79 39.4145 26.662C39.6665 26.538 39.8565 26.35 39.9845 26.098C40.1165 25.846 40.1805 25.534 40.1765 25.162V23.35H40.3265V18.52H41.4365V25.174C41.4365 25.346 41.4305 25.51 41.4185 25.666C41.4065 25.822 41.3845 25.978 41.3525 26.134C41.2605 26.57 41.0845 26.93 40.8245 27.214C40.5685 27.498 40.2405 27.71 39.8405 27.85C39.4445 27.99 38.9945 28.06 38.4905 28.06ZM38.3945 25.18C37.7905 25.18 37.2685 25.03 36.8285 24.73C36.3925 24.43 36.0545 24.022 35.8145 23.506C35.5785 22.986 35.4605 22.402 35.4605 21.754C35.4605 21.102 35.5805 20.52 35.8205 20.008C36.0605 19.492 36.4005 19.086 36.8405 18.79C37.2845 18.49 37.8105 18.34 38.4185 18.34C39.0305 18.34 39.5445 18.49 39.9605 18.79C40.3805 19.086 40.6965 19.492 40.9085 20.008C41.1245 20.524 41.2325 21.106 41.2325 21.754C41.2325 22.402 41.1245 22.984 40.9085 23.5C40.6925 24.016 40.3745 24.426 39.9545 24.73C39.5345 25.03 39.0145 25.18 38.3945 25.18ZM38.5685 24.046C38.9805 24.046 39.3165 23.948 39.5765 23.752C39.8365 23.556 40.0265 23.286 40.1465 22.942C40.2665 22.598 40.3265 22.202 40.3265 21.754C40.3265 21.306 40.2645 20.91 40.1405 20.566C40.0205 20.222 39.8325 19.954 39.5765 19.762C39.3245 19.57 39.0025 19.474 38.6105 19.474C38.1945 19.474 37.8525 19.576 37.5845 19.78C37.3165 19.984 37.1165 20.258 36.9845 20.602C36.8565 20.946 36.7925 21.33 36.7925 21.754C36.7925 22.182 36.8565 22.57 36.9845 22.918C37.1165 23.262 37.3125 23.536 37.5725 23.74C37.8365 23.944 38.1685 24.046 38.5685 24.046ZM49.2316 25C48.8236 25.08 48.4236 25.114 48.0316 25.102C47.6396 25.09 47.2896 25.014 46.9816 24.874C46.6736 24.734 46.4416 24.514 46.2856 24.214C46.1456 23.946 46.0696 23.674 46.0576 23.398C46.0496 23.118 46.0456 22.802 46.0456 22.45V16.72H47.3056V22.39C47.3056 22.65 47.3076 22.876 47.3116 23.068C47.3196 23.26 47.3616 23.422 47.4376 23.554C47.5816 23.802 47.8096 23.944 48.1216 23.98C48.4376 24.012 48.8076 23.998 49.2316 23.938V25ZM44.8036 19.528V18.52H49.2316V19.528H44.8036ZM50.7178 17.458V16.24H51.9718V17.458H50.7178ZM50.7178 25V18.52H51.9718V25H50.7178ZM54.4756 17.56L56.0296 15.76H57.1096L58.6576 17.56H57.4576L56.5696 16.498L55.6756 17.56H54.4756ZM58.4596 16.3L57.6016 14.2H58.5856L59.4436 16.3H58.4596ZM56.6476 25.18C56.0036 25.18 55.4376 25.04 54.9496 24.76C54.4656 24.476 54.0876 24.082 53.8156 23.578C53.5476 23.07 53.4136 22.482 53.4136 21.814C53.4136 21.106 53.5456 20.492 53.8096 19.972C54.0776 19.452 54.4496 19.05 54.9256 18.766C55.4016 18.482 55.9556 18.34 56.5876 18.34C57.2476 18.34 57.8096 18.494 58.2736 18.802C58.7376 19.106 59.0836 19.54 59.3116 20.104C59.5436 20.668 59.6356 21.338 59.5876 22.114H58.3336V21.658C58.3256 20.906 58.1816 20.35 57.9016 19.99C57.6256 19.63 57.2036 19.45 56.6356 19.45C56.0076 19.45 55.5356 19.648 55.2196 20.044C54.9036 20.44 54.7456 21.012 54.7456 21.76C54.7456 22.472 54.9036 23.024 55.2196 23.416C55.5356 23.804 55.9916 23.998 56.5876 23.998C56.9796 23.998 57.3176 23.91 57.6016 23.734C57.8896 23.554 58.1136 23.298 58.2736 22.966L59.5036 23.356C59.2516 23.936 58.8696 24.386 58.3576 24.706C57.8456 25.022 57.2756 25.18 56.6476 25.18ZM54.3376 22.114V21.136H58.9636V22.114H54.3376ZM65.306 25V21.814C65.306 21.562 65.284 21.304 65.24 21.04C65.2 20.772 65.12 20.524 65 20.296C64.884 20.068 64.718 19.884 64.502 19.744C64.29 19.604 64.012 19.534 63.668 19.534C63.444 19.534 63.232 19.572 63.032 19.648C62.832 19.72 62.656 19.838 62.504 20.002C62.356 20.166 62.238 20.382 62.15 20.65C62.066 20.918 62.024 21.244 62.024 21.628L61.244 21.334C61.244 20.746 61.354 20.228 61.574 19.78C61.794 19.328 62.11 18.976 62.522 18.724C62.934 18.472 63.432 18.346 64.016 18.346C64.464 18.346 64.84 18.418 65.144 18.562C65.448 18.706 65.694 18.896 65.882 19.132C66.074 19.364 66.22 19.618 66.32 19.894C66.42 20.17 66.488 20.44 66.524 20.704C66.56 20.968 66.578 21.2 66.578 21.4V25H65.306ZM60.752 25V18.52H61.874V20.392H62.024V25H60.752ZM73.3151 25.18C72.6511 25.18 72.0871 25.032 71.6231 24.736C71.1591 24.44 70.8031 24.034 70.5551 23.518C70.3111 23.002 70.1871 22.416 70.1831 21.76C70.1871 21.092 70.3151 20.502 70.5671 19.99C70.8191 19.474 71.1791 19.07 71.6471 18.778C72.1151 18.486 72.6771 18.34 73.3331 18.34C74.0411 18.34 74.6451 18.516 75.1451 18.868C75.6491 19.22 75.9811 19.702 76.1411 20.314L74.8931 20.674C74.7691 20.31 74.5651 20.028 74.2811 19.828C74.0011 19.624 73.6791 19.522 73.3151 19.522C72.9031 19.522 72.5651 19.62 72.3011 19.816C72.0371 20.008 71.8411 20.272 71.7131 20.608C71.5851 20.944 71.5191 21.328 71.5151 21.76C71.5191 22.428 71.6711 22.968 71.9711 23.38C72.2751 23.792 72.7231 23.998 73.3151 23.998C73.7191 23.998 74.0451 23.906 74.2931 23.722C74.5451 23.534 74.7371 23.266 74.8691 22.918L76.1411 23.218C75.9291 23.85 75.5791 24.336 75.0911 24.676C74.6031 25.012 74.0111 25.18 73.3151 25.18ZM81.9114 25V21.814C81.9114 21.562 81.8894 21.304 81.8454 21.04C81.8054 20.772 81.7254 20.524 81.6054 20.296C81.4894 20.068 81.3234 19.884 81.1074 19.744C80.8954 19.604 80.6174 19.534 80.2734 19.534C80.0494 19.534 79.8374 19.572 79.6374 19.648C79.4374 19.72 79.2614 19.838 79.1094 20.002C78.9614 20.166 78.8434 20.382 78.7554 20.65C78.6714 20.918 78.6294 21.244 78.6294 21.628L77.8494 21.334C77.8494 20.746 77.9594 20.228 78.1794 19.78C78.3994 19.328 78.7154 18.976 79.1274 18.724C79.5394 18.472 80.0374 18.346 80.6214 18.346C81.0694 18.346 81.4454 18.418 81.7494 18.562C82.0534 18.706 82.2994 18.896 82.4874 19.132C82.6794 19.364 82.8254 19.618 82.9254 19.894C83.0254 20.17 83.0934 20.44 83.1294 20.704C83.1654 20.968 83.1834 21.2 83.1834 21.4V25H81.9114ZM77.3574 25V16.36H78.4794V21.022H78.6294V25H77.3574ZM84.8663 17.458V16.24H86.1203V17.458H84.8663ZM84.8663 25V18.52H86.1203V25H84.8663ZM88.402 24.16V22.834H89.728V24.16H88.402ZM88.408 20.686V19.36H89.734V20.686H88.408ZM21.0305 38.72C20.7465 38.72 20.4885 38.654 20.2565 38.522C20.0285 38.39 19.8445 38.212 19.7045 37.988C19.5685 37.76 19.5005 37.504 19.5005 37.22C19.5005 36.936 19.5685 36.68 19.7045 36.452C19.8445 36.224 20.0285 36.046 20.2565 35.918C20.4885 35.786 20.7465 35.72 21.0305 35.72C21.2945 35.72 21.5385 35.786 21.7625 35.918C21.9865 36.046 22.1645 36.224 22.2965 36.452C22.4325 36.68 22.5005 36.936 22.5005 37.22C22.5005 37.504 22.4325 37.76 22.2965 37.988C22.1645 38.212 21.9865 38.39 21.7625 38.522C21.5385 38.654 21.2945 38.72 21.0305 38.72ZM33.066 41V33.374H30.12V32.36H37.08V33.374H34.134V41H33.066ZM42.6493 41V37.754C42.6493 37.446 42.6213 37.15 42.5653 36.866C42.5133 36.582 42.4193 36.328 42.2833 36.104C42.1513 35.876 41.9713 35.696 41.7433 35.564C41.5193 35.432 41.2353 35.366 40.8913 35.366C40.6233 35.366 40.3793 35.412 40.1593 35.504C39.9433 35.592 39.7573 35.728 39.6013 35.912C39.4453 36.096 39.3233 36.328 39.2353 36.608C39.1513 36.884 39.1093 37.21 39.1093 37.586L38.4073 37.37C38.4073 36.742 38.5193 36.204 38.7433 35.756C38.9713 35.304 39.2893 34.958 39.6973 34.718C40.1093 34.474 40.5933 34.352 41.1493 34.352C41.5693 34.352 41.9273 34.418 42.2233 34.55C42.5193 34.682 42.7653 34.858 42.9613 35.078C43.1573 35.294 43.3113 35.538 43.4233 35.81C43.5353 36.078 43.6133 36.352 43.6573 36.632C43.7053 36.908 43.7293 37.17 43.7293 37.418V41H42.6493ZM38.0293 41V32.36H38.9893V37.13H39.1093V41H38.0293ZM47.1312 41.18C46.6472 41.18 46.2412 41.092 45.9132 40.916C45.5892 40.736 45.3432 40.5 45.1752 40.208C45.0112 39.916 44.9292 39.596 44.9292 39.248C44.9292 38.908 44.9932 38.614 45.1212 38.366C45.2532 38.114 45.4372 37.906 45.6732 37.742C45.9092 37.574 46.1912 37.442 46.5192 37.346C46.8272 37.262 47.1712 37.19 47.5512 37.13C47.9352 37.066 48.3232 37.008 48.7152 36.956C49.1072 36.904 49.4732 36.854 49.8132 36.806L49.4292 37.028C49.4412 36.452 49.3252 36.026 49.0812 35.75C48.8412 35.474 48.4252 35.336 47.8332 35.336C47.4412 35.336 47.0972 35.426 46.8012 35.606C46.5092 35.782 46.3032 36.07 46.1832 36.47L45.1692 36.164C45.3252 35.596 45.6272 35.15 46.0752 34.826C46.5232 34.502 47.1132 34.34 47.8452 34.34C48.4332 34.34 48.9372 34.446 49.3572 34.658C49.7812 34.866 50.0852 35.182 50.2692 35.606C50.3612 35.806 50.4192 36.024 50.4432 36.26C50.4672 36.492 50.4792 36.736 50.4792 36.992V41H49.5312V39.446L49.7532 39.59C49.5092 40.114 49.1672 40.51 48.7272 40.778C48.2912 41.046 47.7592 41.18 47.1312 41.18ZM47.2932 40.286C47.6772 40.286 48.0092 40.218 48.2892 40.082C48.5732 39.942 48.8012 39.76 48.9732 39.536C49.1452 39.308 49.2572 39.06 49.3092 38.792C49.3692 38.592 49.4012 38.37 49.4052 38.126C49.4132 37.878 49.4172 37.688 49.4172 37.556L49.7892 37.718C49.4412 37.766 49.0992 37.812 48.7632 37.856C48.4272 37.9 48.1092 37.948 47.8092 38C47.5092 38.048 47.2392 38.106 46.9992 38.174C46.8232 38.23 46.6572 38.302 46.5012 38.39C46.3492 38.478 46.2252 38.592 46.1292 38.732C46.0372 38.868 45.9912 39.038 45.9912 39.242C45.9912 39.418 46.0352 39.586 46.1232 39.746C46.2152 39.906 46.3552 40.036 46.5432 40.136C46.7352 40.236 46.9852 40.286 47.2932 40.286ZM56.6532 41V37.754C56.6532 37.446 56.6252 37.15 56.5692 36.866C56.5172 36.582 56.4232 36.328 56.2872 36.104C56.1552 35.876 55.9752 35.696 55.7472 35.564C55.5232 35.432 55.2392 35.366 54.8952 35.366C54.6272 35.366 54.3832 35.412 54.1632 35.504C53.9472 35.592 53.7612 35.728 53.6052 35.912C53.4492 36.096 53.3272 36.328 53.2392 36.608C53.1552 36.884 53.1132 37.21 53.1132 37.586L52.4112 37.37C52.4112 36.742 52.5232 36.204 52.7472 35.756C52.9752 35.304 53.2932 34.958 53.7012 34.718C54.1132 34.474 54.5972 34.352 55.1532 34.352C55.5732 34.352 55.9312 34.418 56.2272 34.55C56.5232 34.682 56.7692 34.858 56.9652 35.078C57.1612 35.294 57.3152 35.538 57.4272 35.81C57.5392 36.078 57.6172 36.352 57.6612 36.632C57.7092 36.908 57.7332 37.17 57.7332 37.418V41H56.6532ZM52.0332 41V34.52H52.9932V36.254H53.1132V41H52.0332ZM63.9071 41V37.754C63.9071 37.446 63.8791 37.15 63.8231 36.866C63.7711 36.582 63.6771 36.328 63.5411 36.104C63.4091 35.876 63.2291 35.696 63.0011 35.564C62.7771 35.432 62.4931 35.366 62.1491 35.366C61.8811 35.366 61.6371 35.412 61.4171 35.504C61.2011 35.592 61.0151 35.728 60.8591 35.912C60.7031 36.096 60.5811 36.328 60.4931 36.608C60.4091 36.884 60.3671 37.21 60.3671 37.586L59.6651 37.37C59.6651 36.742 59.7771 36.204 60.0011 35.756C60.2291 35.304 60.5471 34.958 60.9551 34.718C61.3671 34.474 61.8511 34.352 62.4071 34.352C62.8271 34.352 63.1851 34.418 63.4811 34.55C63.7771 34.682 64.0231 34.858 64.2191 35.078C64.4151 35.294 64.5691 35.538 64.6811 35.81C64.7931 36.078 64.8711 36.352 64.9151 36.632C64.9631 36.908 64.9871 37.17 64.9871 37.418V41H63.9071ZM59.2871 41V32.36H60.2471V37.13H60.3671V41H59.2871ZM72.5674 41C72.1834 41.076 71.8034 41.106 71.4274 41.09C71.0554 41.078 70.7234 41.004 70.4314 40.868C70.1394 40.728 69.9174 40.512 69.7654 40.22C69.6374 39.964 69.5674 39.706 69.5554 39.446C69.5474 39.182 69.5434 38.884 69.5434 38.552V32.72H70.6114V38.504C70.6114 38.768 70.6134 38.994 70.6174 39.182C70.6254 39.37 70.6674 39.532 70.7434 39.668C70.8874 39.924 71.1154 40.074 71.4274 40.118C71.7434 40.162 72.1234 40.15 72.5674 40.082V41ZM68.2294 35.402V34.52H72.5674V35.402H68.2294ZM76.3734 41.18C75.7294 41.18 75.1734 41.034 74.7054 40.742C74.2414 40.45 73.8834 40.046 73.6314 39.53C73.3794 39.014 73.2534 38.422 73.2534 37.754C73.2534 37.074 73.3814 36.478 73.6374 35.966C73.8934 35.454 74.2554 35.056 74.7234 34.772C75.1914 34.484 75.7414 34.34 76.3734 34.34C77.0214 34.34 77.5794 34.486 78.0474 34.778C78.5154 35.066 78.8734 35.468 79.1214 35.984C79.3734 36.496 79.4994 37.086 79.4994 37.754C79.4994 38.43 79.3734 39.026 79.1214 39.542C78.8694 40.054 78.5094 40.456 78.0414 40.748C77.5734 41.036 77.0174 41.18 76.3734 41.18ZM76.3734 40.166C77.0454 40.166 77.5454 39.942 77.8734 39.494C78.2014 39.046 78.3654 38.466 78.3654 37.754C78.3654 37.022 78.1994 36.44 77.8674 36.008C77.5354 35.572 77.0374 35.354 76.3734 35.354C75.9214 35.354 75.5494 35.456 75.2574 35.66C74.9654 35.864 74.7474 36.146 74.6034 36.506C74.4594 36.866 74.3874 37.282 74.3874 37.754C74.3874 38.482 74.5554 39.066 74.8914 39.506C75.2274 39.946 75.7214 40.166 76.3734 40.166ZM83.8745 33.53H83.0045L83.7905 31.55H84.6605L83.8745 33.53ZM82.6625 41.18C82.1785 41.18 81.7725 41.092 81.4445 40.916C81.1205 40.736 80.8745 40.5 80.7065 40.208C80.5425 39.916 80.4605 39.596 80.4605 39.248C80.4605 38.908 80.5245 38.614 80.6525 38.366C80.7845 38.114 80.9685 37.906 81.2045 37.742C81.4405 37.574 81.7225 37.442 82.0505 37.346C82.3585 37.262 82.7025 37.19 83.0825 37.13C83.4665 37.066 83.8545 37.008 84.2465 36.956C84.6385 36.904 85.0045 36.854 85.3445 36.806L84.9605 37.028C84.9725 36.452 84.8565 36.026 84.6125 35.75C84.3725 35.474 83.9565 35.336 83.3645 35.336C82.9725 35.336 82.6285 35.426 82.3325 35.606C82.0405 35.782 81.8345 36.07 81.7145 36.47L80.7005 36.164C80.8565 35.596 81.1585 35.15 81.6065 34.826C82.0545 34.502 82.6445 34.34 83.3765 34.34C83.9645 34.34 84.4685 34.446 84.8885 34.658C85.3125 34.866 85.6165 35.182 85.8005 35.606C85.8925 35.806 85.9505 36.024 85.9745 36.26C85.9985 36.492 86.0105 36.736 86.0105 36.992V41H85.0625V39.446L85.2845 39.59C85.0405 40.114 84.6985 40.51 84.2585 40.778C83.8225 41.046 83.2905 41.18 82.6625 41.18ZM82.8245 40.286C83.2085 40.286 83.5405 40.218 83.8205 40.082C84.1045 39.942 84.3325 39.76 84.5045 39.536C84.6765 39.308 84.7885 39.06 84.8405 38.792C84.9005 38.592 84.9325 38.37 84.9365 38.126C84.9445 37.878 84.9485 37.688 84.9485 37.556L85.3205 37.718C84.9725 37.766 84.6305 37.812 84.2945 37.856C83.9585 37.9 83.6405 37.948 83.3405 38C83.0405 38.048 82.7705 38.106 82.5305 38.174C82.3545 38.23 82.1885 38.302 82.0325 38.39C81.8805 38.478 81.7565 38.592 81.6605 38.732C81.5685 38.868 81.5225 39.038 81.5225 39.242C81.5225 39.418 81.5665 39.586 81.6545 39.746C81.7465 39.906 81.8865 40.036 82.0745 40.136C82.2665 40.236 82.5165 40.286 82.8245 40.286ZM92.1845 41V37.754C92.1845 37.446 92.1565 37.15 92.1005 36.866C92.0485 36.582 91.9545 36.328 91.8185 36.104C91.6865 35.876 91.5065 35.696 91.2785 35.564C91.0545 35.432 90.7705 35.366 90.4265 35.366C90.1585 35.366 89.9145 35.412 89.6945 35.504C89.4785 35.592 89.2925 35.728 89.1365 35.912C88.9805 36.096 88.8585 36.328 88.7705 36.608C88.6865 36.884 88.6445 37.21 88.6445 37.586L87.9425 37.37C87.9425 36.742 88.0545 36.204 88.2785 35.756C88.5065 35.304 88.8245 34.958 89.2325 34.718C89.6445 34.474 90.1285 34.352 90.6845 34.352C91.1045 34.352 91.4625 34.418 91.7585 34.55C92.0545 34.682 92.3005 34.858 92.4965 35.078C92.6925 35.294 92.8465 35.538 92.9585 35.81C93.0705 36.078 93.1485 36.352 93.1925 36.632C93.2405 36.908 93.2645 37.17 93.2645 37.418V41H92.1845ZM87.5645 41V34.52H88.5245V36.254H88.6445V41H87.5645ZM99.9567 41.18C99.3007 41.18 98.7427 41.034 98.2827 40.742C97.8267 40.446 97.4787 40.04 97.2387 39.524C96.9987 39.008 96.8747 38.42 96.8667 37.76C96.8747 37.084 97.0007 36.49 97.2447 35.978C97.4927 35.462 97.8467 35.06 98.3067 34.772C98.7667 34.484 99.3207 34.34 99.9687 34.34C100.653 34.34 101.241 34.508 101.733 34.844C102.229 35.18 102.561 35.64 102.729 36.224L101.673 36.542C101.537 36.166 101.315 35.874 101.007 35.666C100.703 35.458 100.353 35.354 99.9567 35.354C99.5127 35.354 99.1467 35.458 98.8587 35.666C98.5707 35.87 98.3567 36.154 98.2167 36.518C98.0767 36.878 98.0047 37.292 98.0007 37.76C98.0087 38.48 98.1747 39.062 98.4987 39.506C98.8267 39.946 99.3127 40.166 99.9567 40.166C100.381 40.166 100.733 40.07 101.013 39.878C101.293 39.682 101.505 39.4 101.649 39.032L102.729 39.314C102.505 39.918 102.155 40.38 101.679 40.7C101.203 41.02 100.629 41.18 99.9567 41.18ZM108.567 41V37.754C108.567 37.446 108.539 37.15 108.483 36.866C108.431 36.582 108.337 36.328 108.201 36.104C108.069 35.876 107.889 35.696 107.661 35.564C107.437 35.432 107.153 35.366 106.809 35.366C106.541 35.366 106.297 35.412 106.077 35.504C105.861 35.592 105.675 35.728 105.519 35.912C105.363 36.096 105.241 36.328 105.153 36.608C105.069 36.884 105.027 37.21 105.027 37.586L104.325 37.37C104.325 36.742 104.437 36.204 104.661 35.756C104.889 35.304 105.207 34.958 105.615 34.718C106.027 34.474 106.511 34.352 107.067 34.352C107.487 34.352 107.845 34.418 108.141 34.55C108.437 34.682 108.683 34.858 108.879 35.078C109.075 35.294 109.229 35.538 109.341 35.81C109.453 36.078 109.531 36.352 109.575 36.632C109.623 36.908 109.647 37.17 109.647 37.418V41H108.567ZM103.947 41V32.36H104.907V37.13H105.027V41H103.947ZM111.327 33.374V32.27H112.395V33.374H111.327ZM111.327 41V34.52H112.395V41H111.327ZM119.574 41.18C118.966 41.18 118.454 41.03 118.038 40.73C117.622 40.426 117.306 40.016 117.09 39.5C116.878 38.98 116.772 38.398 116.772 37.754C116.772 37.102 116.878 36.518 117.09 36.002C117.306 35.486 117.622 35.08 118.038 34.784C118.458 34.488 118.972 34.34 119.58 34.34C120.18 34.34 120.696 34.49 121.128 34.79C121.564 35.086 121.898 35.492 122.13 36.008C122.362 36.524 122.478 37.106 122.478 37.754C122.478 38.402 122.362 38.984 122.13 39.5C121.898 40.016 121.564 40.426 121.128 40.73C120.696 41.03 120.178 41.18 119.574 41.18ZM116.592 43.88V34.52H117.546V39.29H117.666V43.88H116.592ZM119.442 40.202C119.87 40.202 120.224 40.094 120.504 39.878C120.784 39.662 120.994 39.37 121.134 39.002C121.274 38.63 121.344 38.214 121.344 37.754C121.344 37.298 121.274 36.886 121.134 36.518C120.998 36.15 120.786 35.858 120.498 35.642C120.214 35.426 119.852 35.318 119.412 35.318C118.992 35.318 118.644 35.422 118.368 35.63C118.092 35.834 117.886 36.12 117.75 36.488C117.614 36.852 117.546 37.274 117.546 37.754C117.546 38.226 117.612 38.648 117.744 39.02C117.88 39.388 118.088 39.678 118.368 39.89C118.648 40.098 119.006 40.202 119.442 40.202ZM128.407 41V37.754C128.407 37.446 128.379 37.15 128.323 36.866C128.271 36.582 128.177 36.328 128.041 36.104C127.909 35.876 127.729 35.696 127.501 35.564C127.277 35.432 126.993 35.366 126.649 35.366C126.381 35.366 126.137 35.412 125.917 35.504C125.701 35.592 125.515 35.728 125.359 35.912C125.203 36.096 125.081 36.328 124.993 36.608C124.909 36.884 124.867 37.21 124.867 37.586L124.165 37.37C124.165 36.742 124.277 36.204 124.501 35.756C124.729 35.304 125.047 34.958 125.455 34.718C125.867 34.474 126.351 34.352 126.907 34.352C127.327 34.352 127.685 34.418 127.981 34.55C128.277 34.682 128.523 34.858 128.719 35.078C128.915 35.294 129.069 35.538 129.181 35.81C129.293 36.078 129.371 36.352 129.415 36.632C129.463 36.908 129.487 37.17 129.487 37.418V41H128.407ZM123.787 41V32.36H124.747V37.13H124.867V41H123.787ZM132.157 33.53H131.287L132.073 31.55H132.943L132.157 33.53ZM131.167 41V34.52H132.235V41H131.167ZM134.515 42.344L134.581 41.846C134.749 41.858 134.875 41.826 134.959 41.75C135.043 41.674 135.097 41.57 135.121 41.438C135.145 41.306 135.149 41.16 135.133 41H134.515V39.644H135.691V41.18C135.691 41.6 135.587 41.916 135.379 42.128C135.175 42.34 134.887 42.412 134.515 42.344ZM134.515 35.696V34.52H135.691V35.696H134.515ZM21.0305 54.72C20.7465 54.72 20.4885 54.654 20.2565 54.522C20.0285 54.39 19.8445 54.212 19.7045 53.988C19.5685 53.76 19.5005 53.504 19.5005 53.22C19.5005 52.936 19.5685 52.68 19.7045 52.452C19.8445 52.224 20.0285 52.046 20.2565 51.918C20.4885 51.786 20.7465 51.72 21.0305 51.72C21.2945 51.72 21.5385 51.786 21.7625 51.918C21.9865 52.046 22.1645 52.224 22.2965 52.452C22.4325 52.68 22.5005 52.936 22.5005 53.22C22.5005 53.504 22.4325 53.76 22.2965 53.988C22.1645 54.212 21.9865 54.39 21.7625 54.522C21.5385 54.654 21.2945 54.72 21.0305 54.72ZM33.066 57V49.374H30.12V48.36H37.08V49.374H34.134V57H33.066ZM42.6493 57V53.754C42.6493 53.446 42.6213 53.15 42.5653 52.866C42.5133 52.582 42.4193 52.328 42.2833 52.104C42.1513 51.876 41.9713 51.696 41.7433 51.564C41.5193 51.432 41.2353 51.366 40.8913 51.366C40.6233 51.366 40.3793 51.412 40.1593 51.504C39.9433 51.592 39.7573 51.728 39.6013 51.912C39.4453 52.096 39.3233 52.328 39.2353 52.608C39.1513 52.884 39.1093 53.21 39.1093 53.586L38.4073 53.37C38.4073 52.742 38.5193 52.204 38.7433 51.756C38.9713 51.304 39.2893 50.958 39.6973 50.718C40.1093 50.474 40.5933 50.352 41.1493 50.352C41.5693 50.352 41.9273 50.418 42.2233 50.55C42.5193 50.682 42.7653 50.858 42.9613 51.078C43.1573 51.294 43.3113 51.538 43.4233 51.81C43.5353 52.078 43.6133 52.352 43.6573 52.632C43.7053 52.908 43.7293 53.17 43.7293 53.418V57H42.6493ZM38.0293 57V48.36H38.9893V53.13H39.1093V57H38.0293ZM47.1312 57.18C46.6472 57.18 46.2412 57.092 45.9132 56.916C45.5892 56.736 45.3432 56.5 45.1752 56.208C45.0112 55.916 44.9292 55.596 44.9292 55.248C44.9292 54.908 44.9932 54.614 45.1212 54.366C45.2532 54.114 45.4372 53.906 45.6732 53.742C45.9092 53.574 46.1912 53.442 46.5192 53.346C46.8272 53.262 47.1712 53.19 47.5512 53.13C47.9352 53.066 48.3232 53.008 48.7152 52.956C49.1072 52.904 49.4732 52.854 49.8132 52.806L49.4292 53.028C49.4412 52.452 49.3252 52.026 49.0812 51.75C48.8412 51.474 48.4252 51.336 47.8332 51.336C47.4412 51.336 47.0972 51.426 46.8012 51.606C46.5092 51.782 46.3032 52.07 46.1832 52.47L45.1692 52.164C45.3252 51.596 45.6272 51.15 46.0752 50.826C46.5232 50.502 47.1132 50.34 47.8452 50.34C48.4332 50.34 48.9372 50.446 49.3572 50.658C49.7812 50.866 50.0852 51.182 50.2692 51.606C50.3612 51.806 50.4192 52.024 50.4432 52.26C50.4672 52.492 50.4792 52.736 50.4792 52.992V57H49.5312V55.446L49.7532 55.59C49.5092 56.114 49.1672 56.51 48.7272 56.778C48.2912 57.046 47.7592 57.18 47.1312 57.18ZM47.2932 56.286C47.6772 56.286 48.0092 56.218 48.2892 56.082C48.5732 55.942 48.8012 55.76 48.9732 55.536C49.1452 55.308 49.2572 55.06 49.3092 54.792C49.3692 54.592 49.4012 54.37 49.4052 54.126C49.4132 53.878 49.4172 53.688 49.4172 53.556L49.7892 53.718C49.4412 53.766 49.0992 53.812 48.7632 53.856C48.4272 53.9 48.1092 53.948 47.8092 54C47.5092 54.048 47.2392 54.106 46.9992 54.174C46.8232 54.23 46.6572 54.302 46.5012 54.39C46.3492 54.478 46.2252 54.592 46.1292 54.732C46.0372 54.868 45.9912 55.038 45.9912 55.242C45.9912 55.418 46.0352 55.586 46.1232 55.746C46.2152 55.906 46.3552 56.036 46.5432 56.136C46.7352 56.236 46.9852 56.286 47.2932 56.286ZM56.6532 57V53.754C56.6532 53.446 56.6252 53.15 56.5692 52.866C56.5172 52.582 56.4232 52.328 56.2872 52.104C56.1552 51.876 55.9752 51.696 55.7472 51.564C55.5232 51.432 55.2392 51.366 54.8952 51.366C54.6272 51.366 54.3832 51.412 54.1632 51.504C53.9472 51.592 53.7612 51.728 53.6052 51.912C53.4492 52.096 53.3272 52.328 53.2392 52.608C53.1552 52.884 53.1132 53.21 53.1132 53.586L52.4112 53.37C52.4112 52.742 52.5232 52.204 52.7472 51.756C52.9752 51.304 53.2932 50.958 53.7012 50.718C54.1132 50.474 54.5972 50.352 55.1532 50.352C55.5732 50.352 55.9312 50.418 56.2272 50.55C56.5232 50.682 56.7692 50.858 56.9652 51.078C57.1612 51.294 57.3152 51.538 57.4272 51.81C57.5392 52.078 57.6172 52.352 57.6612 52.632C57.7092 52.908 57.7332 53.17 57.7332 53.418V57H56.6532ZM52.0332 57V50.52H52.9932V52.254H53.1132V57H52.0332ZM63.9071 57V53.754C63.9071 53.446 63.8791 53.15 63.8231 52.866C63.7711 52.582 63.6771 52.328 63.5411 52.104C63.4091 51.876 63.2291 51.696 63.0011 51.564C62.7771 51.432 62.4931 51.366 62.1491 51.366C61.8811 51.366 61.6371 51.412 61.4171 51.504C61.2011 51.592 61.0151 51.728 60.8591 51.912C60.7031 52.096 60.5811 52.328 60.4931 52.608C60.4091 52.884 60.3671 53.21 60.3671 53.586L59.6651 53.37C59.6651 52.742 59.7771 52.204 60.0011 51.756C60.2291 51.304 60.5471 50.958 60.9551 50.718C61.3671 50.474 61.8511 50.352 62.4071 50.352C62.8271 50.352 63.1851 50.418 63.4811 50.55C63.7771 50.682 64.0231 50.858 64.2191 51.078C64.4151 51.294 64.5691 51.538 64.6811 51.81C64.7931 52.078 64.8711 52.352 64.9151 52.632C64.9631 52.908 64.9871 53.17 64.9871 53.418V57H63.9071ZM59.2871 57V48.36H60.2471V53.13H60.3671V57H59.2871ZM72.5674 57C72.1834 57.076 71.8034 57.106 71.4274 57.09C71.0554 57.078 70.7234 57.004 70.4314 56.868C70.1394 56.728 69.9174 56.512 69.7654 56.22C69.6374 55.964 69.5674 55.706 69.5554 55.446C69.5474 55.182 69.5434 54.884 69.5434 54.552V48.72H70.6114V54.504C70.6114 54.768 70.6134 54.994 70.6174 55.182C70.6254 55.37 70.6674 55.532 70.7434 55.668C70.8874 55.924 71.1154 56.074 71.4274 56.118C71.7434 56.162 72.1234 56.15 72.5674 56.082V57ZM68.2294 51.402V50.52H72.5674V51.402H68.2294ZM76.3734 57.18C75.7294 57.18 75.1734 57.034 74.7054 56.742C74.2414 56.45 73.8834 56.046 73.6314 55.53C73.3794 55.014 73.2534 54.422 73.2534 53.754C73.2534 53.074 73.3814 52.478 73.6374 51.966C73.8934 51.454 74.2554 51.056 74.7234 50.772C75.1914 50.484 75.7414 50.34 76.3734 50.34C77.0214 50.34 77.5794 50.486 78.0474 50.778C78.5154 51.066 78.8734 51.468 79.1214 51.984C79.3734 52.496 79.4994 53.086 79.4994 53.754C79.4994 54.43 79.3734 55.026 79.1214 55.542C78.8694 56.054 78.5094 56.456 78.0414 56.748C77.5734 57.036 77.0174 57.18 76.3734 57.18ZM76.3734 56.166C77.0454 56.166 77.5454 55.942 77.8734 55.494C78.2014 55.046 78.3654 54.466 78.3654 53.754C78.3654 53.022 78.1994 52.44 77.8674 52.008C77.5354 51.572 77.0374 51.354 76.3734 51.354C75.9214 51.354 75.5494 51.456 75.2574 51.66C74.9654 51.864 74.7474 52.146 74.6034 52.506C74.4594 52.866 74.3874 53.282 74.3874 53.754C74.3874 54.482 74.5554 55.066 74.8914 55.506C75.2274 55.946 75.7214 56.166 76.3734 56.166ZM83.8745 49.53H83.0045L83.7905 47.55H84.6605L83.8745 49.53ZM82.6625 57.18C82.1785 57.18 81.7725 57.092 81.4445 56.916C81.1205 56.736 80.8745 56.5 80.7065 56.208C80.5425 55.916 80.4605 55.596 80.4605 55.248C80.4605 54.908 80.5245 54.614 80.6525 54.366C80.7845 54.114 80.9685 53.906 81.2045 53.742C81.4405 53.574 81.7225 53.442 82.0505 53.346C82.3585 53.262 82.7025 53.19 83.0825 53.13C83.4665 53.066 83.8545 53.008 84.2465 52.956C84.6385 52.904 85.0045 52.854 85.3445 52.806L84.9605 53.028C84.9725 52.452 84.8565 52.026 84.6125 51.75C84.3725 51.474 83.9565 51.336 83.3645 51.336C82.9725 51.336 82.6285 51.426 82.3325 51.606C82.0405 51.782 81.8345 52.07 81.7145 52.47L80.7005 52.164C80.8565 51.596 81.1585 51.15 81.6065 50.826C82.0545 50.502 82.6445 50.34 83.3765 50.34C83.9645 50.34 84.4685 50.446 84.8885 50.658C85.3125 50.866 85.6165 51.182 85.8005 51.606C85.8925 51.806 85.9505 52.024 85.9745 52.26C85.9985 52.492 86.0105 52.736 86.0105 52.992V57H85.0625V55.446L85.2845 55.59C85.0405 56.114 84.6985 56.51 84.2585 56.778C83.8225 57.046 83.2905 57.18 82.6625 57.18ZM82.8245 56.286C83.2085 56.286 83.5405 56.218 83.8205 56.082C84.1045 55.942 84.3325 55.76 84.5045 55.536C84.6765 55.308 84.7885 55.06 84.8405 54.792C84.9005 54.592 84.9325 54.37 84.9365 54.126C84.9445 53.878 84.9485 53.688 84.9485 53.556L85.3205 53.718C84.9725 53.766 84.6305 53.812 84.2945 53.856C83.9585 53.9 83.6405 53.948 83.3405 54C83.0405 54.048 82.7705 54.106 82.5305 54.174C82.3545 54.23 82.1885 54.302 82.0325 54.39C81.8805 54.478 81.7565 54.592 81.6605 54.732C81.5685 54.868 81.5225 55.038 81.5225 55.242C81.5225 55.418 81.5665 55.586 81.6545 55.746C81.7465 55.906 81.8865 56.036 82.0745 56.136C82.2665 56.236 82.5165 56.286 82.8245 56.286ZM92.1845 57V53.754C92.1845 53.446 92.1565 53.15 92.1005 52.866C92.0485 52.582 91.9545 52.328 91.8185 52.104C91.6865 51.876 91.5065 51.696 91.2785 51.564C91.0545 51.432 90.7705 51.366 90.4265 51.366C90.1585 51.366 89.9145 51.412 89.6945 51.504C89.4785 51.592 89.2925 51.728 89.1365 51.912C88.9805 52.096 88.8585 52.328 88.7705 52.608C88.6865 52.884 88.6445 53.21 88.6445 53.586L87.9425 53.37C87.9425 52.742 88.0545 52.204 88.2785 51.756C88.5065 51.304 88.8245 50.958 89.2325 50.718C89.6445 50.474 90.1285 50.352 90.6845 50.352C91.1045 50.352 91.4625 50.418 91.7585 50.55C92.0545 50.682 92.3005 50.858 92.4965 51.078C92.6925 51.294 92.8465 51.538 92.9585 51.81C93.0705 52.078 93.1485 52.352 93.1925 52.632C93.2405 52.908 93.2645 53.17 93.2645 53.418V57H92.1845ZM87.5645 57V50.52H88.5245V52.254H88.6445V57H87.5645ZM101.841 57V53.754C101.841 53.446 101.813 53.15 101.757 52.866C101.705 52.582 101.611 52.328 101.475 52.104C101.343 51.876 101.163 51.696 100.935 51.564C100.711 51.432 100.427 51.366 100.083 51.366C99.8147 51.366 99.5707 51.412 99.3507 51.504C99.1347 51.592 98.9487 51.728 98.7927 51.912C98.6367 52.096 98.5147 52.328 98.4267 52.608C98.3427 52.884 98.3007 53.21 98.3007 53.586L97.5987 53.37C97.5987 52.742 97.7107 52.204 97.9347 51.756C98.1627 51.304 98.4807 50.958 98.8887 50.718C99.3007 50.474 99.7847 50.352 100.341 50.352C100.761 50.352 101.119 50.418 101.415 50.55C101.711 50.682 101.957 50.858 102.153 51.078C102.349 51.294 102.503 51.538 102.615 51.81C102.727 52.078 102.805 52.352 102.849 52.632C102.897 52.908 102.921 53.17 102.921 53.418V57H101.841ZM97.2207 57V50.52H98.1807V52.254H98.3007V57H97.2207ZM107.103 60.06C106.763 60.06 106.431 60.008 106.107 59.904C105.783 59.8 105.485 59.642 105.213 59.43C104.945 59.222 104.721 58.958 104.541 58.638L105.519 58.122C105.679 58.438 105.905 58.668 106.197 58.812C106.493 58.956 106.797 59.028 107.109 59.028C107.521 59.028 107.863 58.952 108.135 58.8C108.407 58.652 108.607 58.43 108.735 58.134C108.867 57.838 108.931 57.47 108.927 57.03V55.26H109.053V50.52H110.001V57.042C110.001 57.218 109.995 57.388 109.983 57.552C109.975 57.716 109.955 57.878 109.923 58.038C109.839 58.498 109.673 58.876 109.425 59.172C109.177 59.472 108.857 59.694 108.465 59.838C108.073 59.986 107.619 60.06 107.103 60.06ZM107.025 57.18C106.421 57.18 105.903 57.03 105.471 56.73C105.039 56.426 104.705 56.016 104.469 55.5C104.237 54.984 104.121 54.402 104.121 53.754C104.121 53.106 104.237 52.524 104.469 52.008C104.705 51.492 105.039 51.086 105.471 50.79C105.903 50.49 106.419 50.34 107.019 50.34C107.631 50.34 108.145 50.488 108.561 50.784C108.977 51.08 109.291 51.486 109.503 52.002C109.719 52.518 109.827 53.102 109.827 53.754C109.827 54.398 109.719 54.98 109.503 55.5C109.291 56.016 108.977 56.426 108.561 56.73C108.145 57.03 107.633 57.18 107.025 57.18ZM107.157 56.202C107.593 56.202 107.951 56.098 108.231 55.89C108.511 55.678 108.717 55.388 108.849 55.02C108.985 54.648 109.053 54.226 109.053 53.754C109.053 53.274 108.985 52.852 108.849 52.488C108.717 52.12 108.513 51.834 108.237 51.63C107.961 51.422 107.611 51.318 107.187 51.318C106.747 51.318 106.383 51.426 106.095 51.642C105.811 51.858 105.599 52.15 105.459 52.518C105.323 52.886 105.255 53.298 105.255 53.754C105.255 54.214 105.325 54.63 105.465 55.002C105.605 55.37 105.815 55.662 106.095 55.878C106.379 56.094 106.733 56.202 107.157 56.202ZM116.29 57V53.754C116.29 53.446 116.262 53.15 116.206 52.866C116.154 52.582 116.06 52.328 115.924 52.104C115.792 51.876 115.612 51.696 115.384 51.564C115.16 51.432 114.876 51.366 114.532 51.366C114.264 51.366 114.02 51.412 113.8 51.504C113.584 51.592 113.398 51.728 113.242 51.912C113.086 52.096 112.964 52.328 112.876 52.608C112.792 52.884 112.75 53.21 112.75 53.586L112.048 53.37C112.048 52.742 112.16 52.204 112.384 51.756C112.612 51.304 112.93 50.958 113.338 50.718C113.75 50.474 114.234 50.352 114.79 50.352C115.21 50.352 115.568 50.418 115.864 50.55C116.16 50.682 116.406 50.858 116.602 51.078C116.798 51.294 116.952 51.538 117.064 51.81C117.176 52.078 117.254 52.352 117.298 52.632C117.346 52.908 117.37 53.17 117.37 53.418V57H116.29ZM111.67 57V48.36H112.63V53.13H112.75V57H111.67ZM120.52 49.512C120.344 49.512 120.174 49.476 120.01 49.404C119.846 49.328 119.686 49.242 119.53 49.146C119.378 49.05 119.234 48.966 119.098 48.894C118.962 48.818 118.836 48.78 118.72 48.78C118.572 48.78 118.476 48.844 118.432 48.972C118.388 49.096 118.39 49.236 118.438 49.392H117.718C117.618 48.992 117.65 48.654 117.814 48.378C117.978 48.098 118.256 47.958 118.648 47.958C118.824 47.958 118.994 47.996 119.158 48.072C119.326 48.144 119.486 48.228 119.638 48.324C119.79 48.42 119.934 48.506 120.07 48.582C120.206 48.654 120.334 48.69 120.454 48.69C120.59 48.69 120.684 48.628 120.736 48.504C120.788 48.38 120.788 48.234 120.736 48.066H121.456C121.556 48.458 121.524 48.798 121.36 49.086C121.196 49.37 120.916 49.512 120.52 49.512ZM119.05 57V50.52H120.118V57H119.05ZM123.76 57.18C123.276 57.18 122.87 57.092 122.542 56.916C122.218 56.736 121.972 56.5 121.804 56.208C121.64 55.916 121.558 55.596 121.558 55.248C121.558 54.908 121.622 54.614 121.75 54.366C121.882 54.114 122.066 53.906 122.302 53.742C122.538 53.574 122.82 53.442 123.148 53.346C123.456 53.262 123.8 53.19 124.18 53.13C124.564 53.066 124.952 53.008 125.344 52.956C125.736 52.904 126.102 52.854 126.442 52.806L126.058 53.028C126.07 52.452 125.954 52.026 125.71 51.75C125.47 51.474 125.054 51.336 124.462 51.336C124.07 51.336 123.726 51.426 123.43 51.606C123.138 51.782 122.932 52.07 122.812 52.47L121.798 52.164C121.954 51.596 122.256 51.15 122.704 50.826C123.152 50.502 123.742 50.34 124.474 50.34C125.062 50.34 125.566 50.446 125.986 50.658C126.41 50.866 126.714 51.182 126.898 51.606C126.99 51.806 127.048 52.024 127.072 52.26C127.096 52.492 127.108 52.736 127.108 52.992V57H126.16V55.446L126.382 55.59C126.138 56.114 125.796 56.51 125.356 56.778C124.92 57.046 124.388 57.18 123.76 57.18ZM123.922 56.286C124.306 56.286 124.638 56.218 124.918 56.082C125.202 55.942 125.43 55.76 125.602 55.536C125.774 55.308 125.886 55.06 125.938 54.792C125.998 54.592 126.03 54.37 126.034 54.126C126.042 53.878 126.046 53.688 126.046 53.556L126.418 53.718C126.07 53.766 125.728 53.812 125.392 53.856C125.056 53.9 124.738 53.948 124.438 54C124.138 54.048 123.868 54.106 123.628 54.174C123.452 54.23 123.286 54.302 123.13 54.39C122.978 54.478 122.854 54.592 122.758 54.732C122.666 54.868 122.62 55.038 122.62 55.242C122.62 55.418 122.664 55.586 122.752 55.746C122.844 55.906 122.984 56.036 123.172 56.136C123.364 56.236 123.614 56.286 123.922 56.286ZM132.822 57L130.47 50.52H131.55L133.368 55.638L135.18 50.52H136.266L133.914 57H132.822ZM139.53 59.31V58.206H140.706V59.31H139.53ZM139.812 57.168C139.396 57.168 139.038 57.102 138.738 56.97C138.442 56.838 138.196 56.662 138 56.442C137.804 56.222 137.65 55.978 137.538 55.71C137.426 55.442 137.346 55.168 137.298 54.888C137.254 54.608 137.232 54.346 137.232 54.102V50.52H138.312V53.766C138.312 54.07 138.34 54.364 138.396 54.648C138.452 54.932 138.546 55.188 138.678 55.416C138.814 55.644 138.994 55.824 139.218 55.956C139.446 56.088 139.73 56.154 140.07 56.154C140.338 56.154 140.582 56.108 140.802 56.016C141.022 55.924 141.21 55.788 141.366 55.608C141.522 55.424 141.642 55.192 141.726 54.912C141.81 54.632 141.852 54.306 141.852 53.934L142.554 54.15C142.554 54.774 142.44 55.312 142.212 55.764C141.988 56.216 141.67 56.564 141.258 56.808C140.85 57.048 140.368 57.168 139.812 57.168ZM141.972 57V55.266H141.852V50.52H142.926V57H141.972ZM147.008 57V48.36H148.088L152.594 55.11V48.36H153.674V57H152.594L148.088 50.244V57H147.008ZM158.418 57.18C157.806 57.18 157.254 57.076 156.762 56.868C156.274 56.66 155.87 56.364 155.55 55.98C155.234 55.592 155.028 55.134 154.932 54.606L156.036 54.432C156.176 54.976 156.466 55.402 156.906 55.71C157.35 56.014 157.872 56.166 158.472 56.166C158.86 56.166 159.21 56.106 159.522 55.986C159.838 55.862 160.088 55.686 160.272 55.458C160.456 55.23 160.548 54.96 160.548 54.648C160.548 54.456 160.514 54.292 160.446 54.156C160.382 54.016 160.292 53.898 160.176 53.802C160.064 53.702 159.936 53.618 159.792 53.55C159.648 53.482 159.498 53.426 159.342 53.382L157.14 52.728C156.9 52.656 156.668 52.566 156.444 52.458C156.22 52.346 156.02 52.208 155.844 52.044C155.668 51.876 155.528 51.676 155.424 51.444C155.32 51.208 155.268 50.93 155.268 50.61C155.268 50.098 155.4 49.662 155.664 49.302C155.932 48.938 156.294 48.66 156.75 48.468C157.206 48.276 157.72 48.182 158.292 48.186C158.872 48.19 159.39 48.294 159.846 48.498C160.306 48.698 160.686 48.986 160.986 49.362C161.29 49.738 161.494 50.188 161.598 50.712L160.464 50.91C160.404 50.558 160.27 50.256 160.062 50.004C159.858 49.748 159.602 49.552 159.294 49.416C158.986 49.276 158.648 49.204 158.28 49.2C157.928 49.196 157.61 49.252 157.326 49.368C157.042 49.484 156.816 49.646 156.648 49.854C156.48 50.058 156.396 50.294 156.396 50.562C156.396 50.826 156.472 51.04 156.624 51.204C156.776 51.364 156.962 51.492 157.182 51.588C157.406 51.68 157.624 51.756 157.836 51.816L159.48 52.29C159.668 52.342 159.884 52.414 160.128 52.506C160.376 52.598 160.616 52.728 160.848 52.896C161.08 53.06 161.272 53.28 161.424 53.556C161.576 53.828 161.652 54.172 161.652 54.588C161.652 55.004 161.568 55.374 161.4 55.698C161.236 56.022 161.006 56.294 160.71 56.514C160.414 56.73 160.07 56.894 159.678 57.006C159.286 57.122 158.866 57.18 158.418 57.18ZM162.91 57V48.36H163.99L168.496 55.11V48.36H169.576V57H168.496L163.99 50.244V57H162.91ZM171.254 57V48.36H172.334L176.84 55.11V48.36H177.92V57H176.84L172.334 50.244V57H171.254ZM180.078 58.344L180.144 57.846C180.312 57.858 180.438 57.826 180.522 57.75C180.606 57.674 180.66 57.57 180.684 57.438C180.708 57.306 180.712 57.16 180.696 57H180.078V55.644H181.254V57.18C181.254 57.6 181.15 57.916 180.942 58.128C180.738 58.34 180.45 58.412 180.078 58.344ZM180.078 51.696V50.52H181.254V51.696H180.078ZM13.008 73V71.974H14.034V73H13.008ZM16.0549 73V71.974H17.0809V73H16.0549ZM19.1018 73V71.974H20.1278V73H19.1018Z" fill="url(#paint1_linear_350_10580)"/>
<rect x="0.5" y="0.5" width="189" height="87" rx="11.5" stroke="url(#paint2_linear_350_10580)"/>
</g>
<defs>
<filter id="filter0_bi_350_10580" x="-29" y="-29" width="248" height="146" filterUnits="userSpaceOnUse" color-interpolation-filters="sRGB">
<feFlood flood-opacity="0" result="BackgroundImageFix"/>
<feGaussianBlur in="BackgroundImageFix" stdDeviation="14.5"/>
<feComposite in2="SourceAlpha" operator="in" result="effect1_backgroundBlur_350_10580"/>
<feBlend mode="normal" in="SourceGraphic" in2="effect1_backgroundBlur_350_10580" result="shape"/>
<feColorMatrix in="SourceAlpha" type="matrix" values="0 0 0 0 0 0 0 0 0 0 0 0 0 0 0 0 0 0 127 0" result="hardAlpha"/>
<feOffset dy="16"/>
<feGaussianBlur stdDeviation="24"/>
<feComposite in2="hardAlpha" operator="arithmetic" k2="-1" k3="1"/>
<feColorMatrix type="matrix" values="0 0 0 0 1 0 0 0 0 1 0 0 0 0 1 0 0 0 0.4 0"/>
<feBlend mode="normal" in2="shape" result="effect2_innerShadow_350_10580"/>
</filter>
<linearGradient id="paint0_linear_350_10580" x1="16.8142" y1="1.67214e-05" x2="204.419" y2="79.6822" gradientUnits="userSpaceOnUse">
<stop stop-color="white"/>
<stop offset="1" stop-color="white" stop-opacity="0"/>
</linearGradient>
<linearGradient id="paint1_linear_350_10580" x1="101" y1="12" x2="101" y2="76" gradientUnits="userSpaceOnUse">
<stop stop-color="#61441D"/>
<stop offset="1" stop-color="#694B16"/>
</linearGradient>
<linearGradient id="paint2_linear_350_10580" x1="95" y1="0" x2="95" y2="88" gradientUnits="userSpaceOnUse">
<stop stop-color="#FFE6C4"/>
<stop offset="1" stop-color="#C4A46D"/>
</linearGradient>
</defs>
</svg>
