<svg width="45" height="45" viewBox="0 0 45 45" fill="none" xmlns="http://www.w3.org/2000/svg">
<path d="M36.4 9.7998H8.39998C6.85358 9.7998 5.59998 11.0534 5.59998 12.5998V32.1998C5.59998 33.7462 6.85358 34.9998 8.39998 34.9998H36.4C37.9464 34.9998 39.2 33.7462 39.2 32.1998V12.5998C39.2 11.0534 37.9464 9.7998 36.4 9.7998Z" stroke="black" stroke-width="2.5" stroke-linecap="round" stroke-linejoin="round"/>
<path d="M5.59998 21H15.5417C15.8642 20.9999 16.1768 21.1114 16.4266 21.3155C16.6763 21.5196 16.8478 21.8038 16.912 22.1199C17.1704 23.3847 17.8577 24.5214 18.8577 25.3377C19.8578 26.1541 21.1091 26.6 22.4 26.6C23.6909 26.6 24.9422 26.1541 25.9422 25.3377C26.9422 24.5214 27.6296 23.3847 27.888 22.1199C27.9522 21.8038 28.1236 21.5196 28.3734 21.3155C28.6231 21.1114 28.9357 20.9999 29.2583 21H39.2" stroke="black" stroke-width="2.5" stroke-linecap="round" stroke-linejoin="round"/>
<path d="M5.59998 15.3999H39.2" stroke="black" stroke-width="2.5" stroke-linecap="round" stroke-linejoin="round"/>
</svg>
