<svg width="185" height="88" viewBox="0 0 185 88" fill="none" xmlns="http://www.w3.org/2000/svg">
<g filter="url(#filter0_bi_350_10584)">
<rect width="185" height="88" rx="12" fill="white" fill-opacity="0.2"/>
<path d="M12.84 25V16.36H15.546C15.626 16.36 15.774 16.362 15.99 16.366C16.21 16.37 16.42 16.386 16.62 16.414C17.296 16.498 17.864 16.74 18.324 17.14C18.788 17.54 19.138 18.048 19.374 18.664C19.61 19.276 19.728 19.948 19.728 20.68C19.728 21.416 19.61 22.092 19.374 22.708C19.138 23.32 18.788 23.826 18.324 24.226C17.864 24.622 17.296 24.862 16.62 24.946C16.42 24.974 16.21 24.99 15.99 24.994C15.774 24.998 15.626 25 15.546 25H12.84ZM14.124 23.806H15.546C15.682 23.806 15.844 23.802 16.032 23.794C16.22 23.786 16.386 23.77 16.53 23.746C16.97 23.662 17.326 23.472 17.598 23.176C17.874 22.876 18.076 22.508 18.204 22.072C18.332 21.636 18.396 21.172 18.396 20.68C18.396 20.172 18.33 19.702 18.198 19.27C18.066 18.834 17.862 18.47 17.586 18.178C17.314 17.882 16.962 17.694 16.53 17.614C16.386 17.586 16.218 17.57 16.026 17.566C15.838 17.558 15.678 17.554 15.546 17.554H14.124V23.806ZM23.3812 17.56L22.5292 15.46H23.5132L24.3652 17.56H23.3812ZM23.9392 25.18C23.2912 25.18 22.7292 25.034 22.2532 24.742C21.7772 24.45 21.4092 24.048 21.1492 23.536C20.8932 23.02 20.7652 22.426 20.7652 21.754C20.7652 21.078 20.8972 20.484 21.1612 19.972C21.4252 19.456 21.7952 19.056 22.2712 18.772C22.7472 18.484 23.3032 18.34 23.9392 18.34C24.5872 18.34 25.1492 18.486 25.6252 18.778C26.1012 19.07 26.4692 19.472 26.7292 19.984C26.9892 20.496 27.1192 21.086 27.1192 21.754C27.1192 22.43 26.9872 23.026 26.7232 23.542C26.4632 24.054 26.0952 24.456 25.6192 24.748C25.1432 25.036 24.5832 25.18 23.9392 25.18ZM23.9392 23.998C24.5592 23.998 25.0212 23.79 25.3252 23.374C25.6332 22.954 25.7872 22.414 25.7872 21.754C25.7872 21.078 25.6312 20.538 25.3192 20.134C25.0112 19.726 24.5512 19.522 23.9392 19.522C23.5192 19.522 23.1732 19.618 22.9012 19.81C22.6292 19.998 22.4272 20.26 22.2952 20.596C22.1632 20.928 22.0972 21.314 22.0972 21.754C22.0972 22.434 22.2532 22.978 22.5652 23.386C22.8772 23.794 23.3352 23.998 23.9392 23.998ZM32.9857 25V21.814C32.9857 21.562 32.9637 21.304 32.9197 21.04C32.8797 20.772 32.7997 20.524 32.6797 20.296C32.5637 20.068 32.3977 19.884 32.1817 19.744C31.9697 19.604 31.6917 19.534 31.3477 19.534C31.1237 19.534 30.9117 19.572 30.7117 19.648C30.5117 19.72 30.3357 19.838 30.1837 20.002C30.0357 20.166 29.9177 20.382 29.8297 20.65C29.7457 20.918 29.7037 21.244 29.7037 21.628L28.9237 21.334C28.9237 20.746 29.0337 20.228 29.2537 19.78C29.4737 19.328 29.7897 18.976 30.2017 18.724C30.6137 18.472 31.1117 18.346 31.6957 18.346C32.1437 18.346 32.5197 18.418 32.8237 18.562C33.1277 18.706 33.3737 18.896 33.5617 19.132C33.7537 19.364 33.8997 19.618 33.9997 19.894C34.0997 20.17 34.1677 20.44 34.2037 20.704C34.2397 20.968 34.2577 21.2 34.2577 21.4V25H32.9857ZM28.4317 25V18.52H29.5537V20.392H29.7037V25H28.4317ZM38.4905 28.06C38.1425 28.06 37.8045 28.006 37.4765 27.898C37.1525 27.79 36.8565 27.63 36.5885 27.418C36.3205 27.21 36.0985 26.952 35.9225 26.644L37.0805 26.056C37.2205 26.332 37.4205 26.534 37.6805 26.662C37.9405 26.79 38.2145 26.854 38.5025 26.854C38.8585 26.854 39.1625 26.79 39.4145 26.662C39.6665 26.538 39.8565 26.35 39.9845 26.098C40.1165 25.846 40.1805 25.534 40.1765 25.162V23.35H40.3265V18.52H41.4365V25.174C41.4365 25.346 41.4305 25.51 41.4185 25.666C41.4065 25.822 41.3845 25.978 41.3525 26.134C41.2605 26.57 41.0845 26.93 40.8245 27.214C40.5685 27.498 40.2405 27.71 39.8405 27.85C39.4445 27.99 38.9945 28.06 38.4905 28.06ZM38.3945 25.18C37.7905 25.18 37.2685 25.03 36.8285 24.73C36.3925 24.43 36.0545 24.022 35.8145 23.506C35.5785 22.986 35.4605 22.402 35.4605 21.754C35.4605 21.102 35.5805 20.52 35.8205 20.008C36.0605 19.492 36.4005 19.086 36.8405 18.79C37.2845 18.49 37.8105 18.34 38.4185 18.34C39.0305 18.34 39.5445 18.49 39.9605 18.79C40.3805 19.086 40.6965 19.492 40.9085 20.008C41.1245 20.524 41.2325 21.106 41.2325 21.754C41.2325 22.402 41.1245 22.984 40.9085 23.5C40.6925 24.016 40.3745 24.426 39.9545 24.73C39.5345 25.03 39.0145 25.18 38.3945 25.18ZM38.5685 24.046C38.9805 24.046 39.3165 23.948 39.5765 23.752C39.8365 23.556 40.0265 23.286 40.1465 22.942C40.2665 22.598 40.3265 22.202 40.3265 21.754C40.3265 21.306 40.2645 20.91 40.1405 20.566C40.0205 20.222 39.8325 19.954 39.5765 19.762C39.3245 19.57 39.0025 19.474 38.6105 19.474C38.1945 19.474 37.8525 19.576 37.5845 19.78C37.3165 19.984 37.1165 20.258 36.9845 20.602C36.8565 20.946 36.7925 21.33 36.7925 21.754C36.7925 22.182 36.8565 22.57 36.9845 22.918C37.1165 23.262 37.3125 23.536 37.5725 23.74C37.8365 23.944 38.1685 24.046 38.5685 24.046ZM49.2316 25C48.8236 25.08 48.4236 25.114 48.0316 25.102C47.6396 25.09 47.2896 25.014 46.9816 24.874C46.6736 24.734 46.4416 24.514 46.2856 24.214C46.1456 23.946 46.0696 23.674 46.0576 23.398C46.0496 23.118 46.0456 22.802 46.0456 22.45V16.72H47.3056V22.39C47.3056 22.65 47.3076 22.876 47.3116 23.068C47.3196 23.26 47.3616 23.422 47.4376 23.554C47.5816 23.802 47.8096 23.944 48.1216 23.98C48.4376 24.012 48.8076 23.998 49.2316 23.938V25ZM44.8036 19.528V18.52H49.2316V19.528H44.8036ZM50.7178 17.458V16.24H51.9718V17.458H50.7178ZM50.7178 25V18.52H51.9718V25H50.7178ZM54.4756 17.56L56.0296 15.76H57.1096L58.6576 17.56H57.4576L56.5696 16.498L55.6756 17.56H54.4756ZM58.4596 16.3L57.6016 14.2H58.5856L59.4436 16.3H58.4596ZM56.6476 25.18C56.0036 25.18 55.4376 25.04 54.9496 24.76C54.4656 24.476 54.0876 24.082 53.8156 23.578C53.5476 23.07 53.4136 22.482 53.4136 21.814C53.4136 21.106 53.5456 20.492 53.8096 19.972C54.0776 19.452 54.4496 19.05 54.9256 18.766C55.4016 18.482 55.9556 18.34 56.5876 18.34C57.2476 18.34 57.8096 18.494 58.2736 18.802C58.7376 19.106 59.0836 19.54 59.3116 20.104C59.5436 20.668 59.6356 21.338 59.5876 22.114H58.3336V21.658C58.3256 20.906 58.1816 20.35 57.9016 19.99C57.6256 19.63 57.2036 19.45 56.6356 19.45C56.0076 19.45 55.5356 19.648 55.2196 20.044C54.9036 20.44 54.7456 21.012 54.7456 21.76C54.7456 22.472 54.9036 23.024 55.2196 23.416C55.5356 23.804 55.9916 23.998 56.5876 23.998C56.9796 23.998 57.3176 23.91 57.6016 23.734C57.8896 23.554 58.1136 23.298 58.2736 22.966L59.5036 23.356C59.2516 23.936 58.8696 24.386 58.3576 24.706C57.8456 25.022 57.2756 25.18 56.6476 25.18ZM54.3376 22.114V21.136H58.9636V22.114H54.3376ZM65.306 25V21.814C65.306 21.562 65.284 21.304 65.24 21.04C65.2 20.772 65.12 20.524 65 20.296C64.884 20.068 64.718 19.884 64.502 19.744C64.29 19.604 64.012 19.534 63.668 19.534C63.444 19.534 63.232 19.572 63.032 19.648C62.832 19.72 62.656 19.838 62.504 20.002C62.356 20.166 62.238 20.382 62.15 20.65C62.066 20.918 62.024 21.244 62.024 21.628L61.244 21.334C61.244 20.746 61.354 20.228 61.574 19.78C61.794 19.328 62.11 18.976 62.522 18.724C62.934 18.472 63.432 18.346 64.016 18.346C64.464 18.346 64.84 18.418 65.144 18.562C65.448 18.706 65.694 18.896 65.882 19.132C66.074 19.364 66.22 19.618 66.32 19.894C66.42 20.17 66.488 20.44 66.524 20.704C66.56 20.968 66.578 21.2 66.578 21.4V25H65.306ZM60.752 25V18.52H61.874V20.392H62.024V25H60.752ZM74.2511 25C73.8431 25.08 73.4431 25.114 73.0511 25.102C72.6591 25.09 72.3091 25.014 72.0011 24.874C71.6931 24.734 71.4611 24.514 71.3051 24.214C71.1651 23.946 71.0891 23.674 71.0771 23.398C71.0691 23.118 71.0651 22.802 71.0651 22.45V16.72H72.3251V22.39C72.3251 22.65 72.3271 22.876 72.3311 23.068C72.3391 23.26 72.3811 23.422 72.4571 23.554C72.6011 23.802 72.8291 23.944 73.1411 23.98C73.4571 24.012 73.8271 23.998 74.2511 23.938V25ZM69.8231 19.528V18.52H74.2511V19.528H69.8231ZM80.1653 25V21.814C80.1653 21.562 80.1433 21.304 80.0993 21.04C80.0593 20.772 79.9793 20.524 79.8593 20.296C79.7433 20.068 79.5773 19.884 79.3613 19.744C79.1493 19.604 78.8713 19.534 78.5273 19.534C78.3033 19.534 78.0913 19.572 77.8913 19.648C77.6913 19.72 77.5153 19.838 77.3633 20.002C77.2153 20.166 77.0973 20.382 77.0093 20.65C76.9253 20.918 76.8833 21.244 76.8833 21.628L76.1033 21.334C76.1033 20.746 76.2133 20.228 76.4333 19.78C76.6533 19.328 76.9693 18.976 77.3813 18.724C77.7933 18.472 78.2913 18.346 78.8753 18.346C79.3233 18.346 79.6993 18.418 80.0033 18.562C80.3073 18.706 80.5533 18.896 80.7413 19.132C80.9333 19.364 81.0793 19.618 81.1793 19.894C81.2793 20.17 81.3473 20.44 81.3833 20.704C81.4193 20.968 81.4373 21.2 81.4373 21.4V25H80.1653ZM75.6113 25V16.36H76.7333V21.022H76.8833V25H75.6113ZM85.4422 25.174C84.9942 25.174 84.6182 25.102 84.3142 24.958C84.0102 24.814 83.7622 24.626 83.5702 24.394C83.3822 24.158 83.2382 23.902 83.1382 23.626C83.0382 23.35 82.9702 23.08 82.9342 22.816C82.8982 22.552 82.8802 22.32 82.8802 22.12V18.52H84.1522V21.706C84.1522 21.958 84.1722 22.218 84.2122 22.486C84.2562 22.75 84.3362 22.996 84.4522 23.224C84.5722 23.452 84.7382 23.636 84.9502 23.776C85.1662 23.916 85.4462 23.986 85.7902 23.986C86.0142 23.986 86.2262 23.95 86.4262 23.878C86.6262 23.802 86.8002 23.682 86.9482 23.518C87.1002 23.354 87.2182 23.138 87.3022 22.87C87.3902 22.602 87.4342 22.276 87.4342 21.892L88.2142 22.186C88.2142 22.774 88.1042 23.294 87.8842 23.746C87.6642 24.194 87.3482 24.544 86.9362 24.796C86.5242 25.048 86.0262 25.174 85.4422 25.174ZM87.5842 25V23.128H87.4342V18.52H88.7002V25H87.5842ZM90.863 24.16V22.834H92.189V24.16H90.863ZM90.869 20.686V19.36H92.195V20.686H90.869ZM21.0305 38.72C20.7465 38.72 20.4885 38.654 20.2565 38.522C20.0285 38.39 19.8445 38.212 19.7045 37.988C19.5685 37.76 19.5005 37.504 19.5005 37.22C19.5005 36.936 19.5685 36.68 19.7045 36.452C19.8445 36.224 20.0285 36.046 20.2565 35.918C20.4885 35.786 20.7465 35.72 21.0305 35.72C21.2945 35.72 21.5385 35.786 21.7625 35.918C21.9865 36.046 22.1645 36.224 22.2965 36.452C22.4325 36.68 22.5005 36.936 22.5005 37.22C22.5005 37.504 22.4325 37.76 22.2965 37.988C22.1645 38.212 21.9865 38.39 21.7625 38.522C21.5385 38.654 21.2945 38.72 21.0305 38.72ZM33.066 41V33.374H30.12V32.36H37.08V33.374H34.134V41H33.066ZM42.6493 41V37.754C42.6493 37.446 42.6213 37.15 42.5653 36.866C42.5133 36.582 42.4193 36.328 42.2833 36.104C42.1513 35.876 41.9713 35.696 41.7433 35.564C41.5193 35.432 41.2353 35.366 40.8913 35.366C40.6233 35.366 40.3793 35.412 40.1593 35.504C39.9433 35.592 39.7573 35.728 39.6013 35.912C39.4453 36.096 39.3233 36.328 39.2353 36.608C39.1513 36.884 39.1093 37.21 39.1093 37.586L38.4073 37.37C38.4073 36.742 38.5193 36.204 38.7433 35.756C38.9713 35.304 39.2893 34.958 39.6973 34.718C40.1093 34.474 40.5933 34.352 41.1493 34.352C41.5693 34.352 41.9273 34.418 42.2233 34.55C42.5193 34.682 42.7653 34.858 42.9613 35.078C43.1573 35.294 43.3113 35.538 43.4233 35.81C43.5353 36.078 43.6133 36.352 43.6573 36.632C43.7053 36.908 43.7293 37.17 43.7293 37.418V41H42.6493ZM38.0293 41V32.36H38.9893V37.13H39.1093V41H38.0293ZM47.7492 41.168C47.3332 41.168 46.9752 41.102 46.6752 40.97C46.3792 40.838 46.1332 40.662 45.9372 40.442C45.7412 40.222 45.5872 39.978 45.4752 39.71C45.3632 39.442 45.2832 39.168 45.2352 38.888C45.1912 38.608 45.1692 38.346 45.1692 38.102V34.52H46.2492V37.766C46.2492 38.07 46.2772 38.364 46.3332 38.648C46.3892 38.932 46.4832 39.188 46.6152 39.416C46.7512 39.644 46.9312 39.824 47.1552 39.956C47.3832 40.088 47.6672 40.154 48.0072 40.154C48.2752 40.154 48.5192 40.108 48.7392 40.016C48.9592 39.924 49.1472 39.788 49.3032 39.608C49.4592 39.424 49.5792 39.192 49.6632 38.912C49.7472 38.632 49.7892 38.306 49.7892 37.934L50.4912 38.15C50.4912 38.774 50.3772 39.312 50.1492 39.764C49.9252 40.216 49.6072 40.564 49.1952 40.808C48.7872 41.048 48.3052 41.168 47.7492 41.168ZM49.9092 41V39.266H49.7892V34.52H50.8632V41H49.9092ZM58.5635 41C58.1795 41.076 57.7995 41.106 57.4235 41.09C57.0515 41.078 56.7195 41.004 56.4275 40.868C56.1355 40.728 55.9135 40.512 55.7615 40.22C55.6335 39.964 55.5635 39.706 55.5515 39.446C55.5435 39.182 55.5395 38.884 55.5395 38.552V32.72H56.6075V38.504C56.6075 38.768 56.6095 38.994 56.6135 39.182C56.6215 39.37 56.6635 39.532 56.7395 39.668C56.8835 39.924 57.1115 40.074 57.4235 40.118C57.7395 40.162 58.1195 40.15 58.5635 40.082V41ZM54.2255 35.402V34.52H58.5635V35.402H54.2255ZM59.9991 33.374V32.27H61.0671V33.374H59.9991ZM59.9991 41V34.52H61.0671V41H59.9991ZM63.6773 33.53L65.1413 31.82H66.0893L67.5533 33.53H66.5033L65.6153 32.48L64.7273 33.53H63.6773ZM67.3433 32.27L66.5573 30.29H67.4273L68.2133 32.27H67.3433ZM65.6753 41.18C65.0393 41.18 64.4833 41.04 64.0073 40.76C63.5353 40.476 63.1673 40.082 62.9033 39.578C62.6393 39.07 62.5073 38.478 62.5073 37.802C62.5073 37.094 62.6373 36.482 62.8973 35.966C63.1573 35.446 63.5193 35.046 63.9833 34.766C64.4513 34.482 64.9993 34.34 65.6273 34.34C66.2793 34.34 66.8333 34.49 67.2893 34.79C67.7493 35.09 68.0933 35.518 68.3213 36.074C68.5533 36.63 68.6533 37.292 68.6213 38.06H67.5413V37.676C67.5293 36.88 67.3673 36.286 67.0553 35.894C66.7433 35.498 66.2793 35.3 65.6633 35.3C65.0033 35.3 64.5013 35.512 64.1573 35.936C63.8133 36.36 63.6413 36.968 63.6413 37.76C63.6413 38.524 63.8133 39.116 64.1573 39.536C64.5013 39.956 64.9913 40.166 65.6273 40.166C66.0553 40.166 66.4273 40.068 66.7433 39.872C67.0593 39.676 67.3073 39.394 67.4873 39.026L68.5133 39.38C68.2613 39.952 67.8813 40.396 67.3733 40.712C66.8693 41.024 66.3033 41.18 65.6753 41.18ZM63.2813 38.06V37.202H68.0693V38.06H63.2813ZM74.3954 41V37.754C74.3954 37.446 74.3674 37.15 74.3114 36.866C74.2594 36.582 74.1654 36.328 74.0294 36.104C73.8974 35.876 73.7174 35.696 73.4894 35.564C73.2654 35.432 72.9814 35.366 72.6374 35.366C72.3694 35.366 72.1254 35.412 71.9054 35.504C71.6894 35.592 71.5034 35.728 71.3474 35.912C71.1914 36.096 71.0694 36.328 70.9814 36.608C70.8974 36.884 70.8554 37.21 70.8554 37.586L70.1534 37.37C70.1534 36.742 70.2654 36.204 70.4894 35.756C70.7174 35.304 71.0354 34.958 71.4434 34.718C71.8554 34.474 72.3394 34.352 72.8954 34.352C73.3154 34.352 73.6734 34.418 73.9694 34.55C74.2654 34.682 74.5114 34.858 74.7074 35.078C74.9034 35.294 75.0574 35.538 75.1694 35.81C75.2814 36.078 75.3594 36.352 75.4034 36.632C75.4514 36.908 75.4754 37.17 75.4754 37.418V41H74.3954ZM69.7754 41V34.52H70.7354V36.254H70.8554V41H69.7754ZM82.7077 33.92V33.044H85.7797V33.92H82.7077ZM81.9817 41.18C81.3777 41.18 80.8597 41.03 80.4277 40.73C79.9957 40.426 79.6617 40.016 79.4257 39.5C79.1937 38.984 79.0777 38.402 79.0777 37.754C79.0777 37.106 79.1937 36.524 79.4257 36.008C79.6617 35.492 79.9957 35.086 80.4277 34.79C80.8597 34.49 81.3757 34.34 81.9757 34.34C82.5877 34.34 83.1017 34.488 83.5177 34.784C83.9337 35.08 84.2477 35.486 84.4597 36.002C84.6757 36.518 84.7837 37.102 84.7837 37.754C84.7837 38.398 84.6757 38.98 84.4597 39.5C84.2477 40.016 83.9337 40.426 83.5177 40.73C83.1017 41.03 82.5897 41.18 81.9817 41.18ZM82.1137 40.202C82.5497 40.202 82.9077 40.098 83.1877 39.89C83.4677 39.678 83.6737 39.388 83.8057 39.02C83.9417 38.648 84.0097 38.226 84.0097 37.754C84.0097 37.274 83.9417 36.852 83.8057 36.488C83.6737 36.12 83.4697 35.834 83.1937 35.63C82.9177 35.422 82.5677 35.318 82.1437 35.318C81.7037 35.318 81.3397 35.426 81.0517 35.642C80.7677 35.858 80.5557 36.15 80.4157 36.518C80.2797 36.886 80.2117 37.298 80.2117 37.754C80.2117 38.214 80.2817 38.63 80.4217 39.002C80.5617 39.37 80.7717 39.662 81.0517 39.878C81.3357 40.094 81.6897 40.202 82.1137 40.202ZM84.0097 41V36.23H83.8897V32.36H84.9637V41H84.0097ZM91.6367 33.44H92.4947C92.5467 33.804 92.5347 34.12 92.4587 34.388C92.3867 34.652 92.2287 34.858 91.9847 35.006C91.7767 35.122 91.5187 35.184 91.2107 35.192C90.9067 35.2 90.6267 35.124 90.3707 34.964V34.472C90.5627 34.524 90.7247 34.554 90.8567 34.562C90.9927 34.566 91.1187 34.54 91.2347 34.484C91.4467 34.384 91.5707 34.24 91.6067 34.052C91.6427 33.86 91.6527 33.656 91.6367 33.44ZM89.4047 41.18C88.7607 41.18 88.2047 41.034 87.7367 40.742C87.2727 40.45 86.9147 40.046 86.6627 39.53C86.4107 39.014 86.2847 38.422 86.2847 37.754C86.2847 37.074 86.4127 36.478 86.6687 35.966C86.9247 35.454 87.2867 35.056 87.7547 34.772C88.2227 34.484 88.7727 34.34 89.4047 34.34C90.0527 34.34 90.6107 34.486 91.0787 34.778C91.5467 35.066 91.9047 35.468 92.1527 35.984C92.4047 36.496 92.5307 37.086 92.5307 37.754C92.5307 38.43 92.4047 39.026 92.1527 39.542C91.9007 40.054 91.5407 40.456 91.0727 40.748C90.6047 41.036 90.0487 41.18 89.4047 41.18ZM89.4047 40.166C90.0767 40.166 90.5767 39.942 90.9047 39.494C91.2327 39.046 91.3967 38.466 91.3967 37.754C91.3967 37.022 91.2307 36.44 90.8987 36.008C90.5667 35.572 90.0687 35.354 89.4047 35.354C88.9527 35.354 88.5807 35.456 88.2887 35.66C87.9967 35.864 87.7787 36.146 87.6347 36.506C87.4907 36.866 87.4187 37.282 87.4187 37.754C87.4187 38.482 87.5867 39.066 87.9227 39.506C88.2587 39.946 88.7527 40.166 89.4047 40.166ZM98.4657 41V37.754C98.4657 37.446 98.4377 37.15 98.3817 36.866C98.3297 36.582 98.2357 36.328 98.0997 36.104C97.9677 35.876 97.7877 35.696 97.5597 35.564C97.3357 35.432 97.0517 35.366 96.7077 35.366C96.4397 35.366 96.1957 35.412 95.9757 35.504C95.7597 35.592 95.5737 35.728 95.4177 35.912C95.2617 36.096 95.1397 36.328 95.0517 36.608C94.9677 36.884 94.9257 37.21 94.9257 37.586L94.2237 37.37C94.2237 36.742 94.3357 36.204 94.5597 35.756C94.7877 35.304 95.1057 34.958 95.5137 34.718C95.9257 34.474 96.4097 34.352 96.9657 34.352C97.3857 34.352 97.7437 34.418 98.0397 34.55C98.3357 34.682 98.5817 34.858 98.7777 35.078C98.9737 35.294 99.1277 35.538 99.2397 35.81C99.3517 36.078 99.4297 36.352 99.4737 36.632C99.5217 36.908 99.5457 37.17 99.5457 37.418V41H98.4657ZM93.8457 41V34.52H94.8057V36.254H94.9257V41H93.8457ZM108.122 41V37.754C108.122 37.446 108.094 37.15 108.038 36.866C107.986 36.582 107.892 36.328 107.756 36.104C107.624 35.876 107.444 35.696 107.216 35.564C106.992 35.432 106.708 35.366 106.364 35.366C106.096 35.366 105.852 35.412 105.632 35.504C105.416 35.592 105.23 35.728 105.074 35.912C104.918 36.096 104.796 36.328 104.708 36.608C104.624 36.884 104.582 37.21 104.582 37.586L103.88 37.37C103.88 36.742 103.992 36.204 104.216 35.756C104.444 35.304 104.762 34.958 105.17 34.718C105.582 34.474 106.066 34.352 106.622 34.352C107.042 34.352 107.4 34.418 107.696 34.55C107.992 34.682 108.238 34.858 108.434 35.078C108.63 35.294 108.784 35.538 108.896 35.81C109.008 36.078 109.086 36.352 109.13 36.632C109.178 36.908 109.202 37.17 109.202 37.418V41H108.122ZM103.502 41V32.36H104.462V37.13H104.582V41H103.502ZM112.952 33.53L112.166 31.55H113.036L113.822 33.53H112.952ZM112.604 41.18C112.12 41.18 111.714 41.092 111.386 40.916C111.062 40.736 110.816 40.5 110.648 40.208C110.484 39.916 110.402 39.596 110.402 39.248C110.402 38.908 110.466 38.614 110.594 38.366C110.726 38.114 110.91 37.906 111.146 37.742C111.382 37.574 111.664 37.442 111.992 37.346C112.3 37.262 112.644 37.19 113.024 37.13C113.408 37.066 113.796 37.008 114.188 36.956C114.58 36.904 114.946 36.854 115.286 36.806L114.902 37.028C114.914 36.452 114.798 36.026 114.554 35.75C114.314 35.474 113.898 35.336 113.306 35.336C112.914 35.336 112.57 35.426 112.274 35.606C111.982 35.782 111.776 36.07 111.656 36.47L110.642 36.164C110.798 35.596 111.1 35.15 111.548 34.826C111.996 34.502 112.586 34.34 113.318 34.34C113.906 34.34 114.41 34.446 114.83 34.658C115.254 34.866 115.558 35.182 115.742 35.606C115.834 35.806 115.892 36.024 115.916 36.26C115.94 36.492 115.952 36.736 115.952 36.992V41H115.004V39.446L115.226 39.59C114.982 40.114 114.64 40.51 114.2 40.778C113.764 41.046 113.232 41.18 112.604 41.18ZM112.766 40.286C113.15 40.286 113.482 40.218 113.762 40.082C114.046 39.942 114.274 39.76 114.446 39.536C114.618 39.308 114.73 39.06 114.782 38.792C114.842 38.592 114.874 38.37 114.878 38.126C114.886 37.878 114.89 37.688 114.89 37.556L115.262 37.718C114.914 37.766 114.572 37.812 114.236 37.856C113.9 37.9 113.582 37.948 113.282 38C112.982 38.048 112.712 38.106 112.472 38.174C112.296 38.23 112.13 38.302 111.974 38.39C111.822 38.478 111.698 38.592 111.602 38.732C111.51 38.868 111.464 39.038 111.464 39.242C111.464 39.418 111.508 39.586 111.596 39.746C111.688 39.906 111.828 40.036 112.016 40.136C112.208 40.236 112.458 40.286 112.766 40.286ZM122.126 41V37.754C122.126 37.446 122.098 37.15 122.042 36.866C121.99 36.582 121.896 36.328 121.76 36.104C121.628 35.876 121.448 35.696 121.22 35.564C120.996 35.432 120.712 35.366 120.368 35.366C120.1 35.366 119.856 35.412 119.636 35.504C119.42 35.592 119.234 35.728 119.078 35.912C118.922 36.096 118.8 36.328 118.712 36.608C118.628 36.884 118.586 37.21 118.586 37.586L117.884 37.37C117.884 36.742 117.996 36.204 118.22 35.756C118.448 35.304 118.766 34.958 119.174 34.718C119.586 34.474 120.07 34.352 120.626 34.352C121.046 34.352 121.404 34.418 121.7 34.55C121.996 34.682 122.242 34.858 122.438 35.078C122.634 35.294 122.788 35.538 122.9 35.81C123.012 36.078 123.09 36.352 123.134 36.632C123.182 36.908 123.206 37.17 123.206 37.418V41H122.126ZM117.506 41V34.52H118.466V36.254H118.586V41H117.506ZM127.388 44.06C127.048 44.06 126.716 44.008 126.392 43.904C126.068 43.8 125.77 43.642 125.498 43.43C125.23 43.222 125.006 42.958 124.826 42.638L125.804 42.122C125.964 42.438 126.19 42.668 126.482 42.812C126.778 42.956 127.082 43.028 127.394 43.028C127.806 43.028 128.148 42.952 128.42 42.8C128.692 42.652 128.892 42.43 129.02 42.134C129.152 41.838 129.216 41.47 129.212 41.03V39.26H129.338V34.52H130.286V41.042C130.286 41.218 130.28 41.388 130.268 41.552C130.26 41.716 130.24 41.878 130.208 42.038C130.124 42.498 129.958 42.876 129.71 43.172C129.462 43.472 129.142 43.694 128.75 43.838C128.358 43.986 127.904 44.06 127.388 44.06ZM127.31 41.18C126.706 41.18 126.188 41.03 125.756 40.73C125.324 40.426 124.99 40.016 124.754 39.5C124.522 38.984 124.406 38.402 124.406 37.754C124.406 37.106 124.522 36.524 124.754 36.008C124.99 35.492 125.324 35.086 125.756 34.79C126.188 34.49 126.704 34.34 127.304 34.34C127.916 34.34 128.43 34.488 128.846 34.784C129.262 35.08 129.576 35.486 129.788 36.002C130.004 36.518 130.112 37.102 130.112 37.754C130.112 38.398 130.004 38.98 129.788 39.5C129.576 40.016 129.262 40.426 128.846 40.73C128.43 41.03 127.918 41.18 127.31 41.18ZM127.442 40.202C127.878 40.202 128.236 40.098 128.516 39.89C128.796 39.678 129.002 39.388 129.134 39.02C129.27 38.648 129.338 38.226 129.338 37.754C129.338 37.274 129.27 36.852 129.134 36.488C129.002 36.12 128.798 35.834 128.522 35.63C128.246 35.422 127.896 35.318 127.472 35.318C127.032 35.318 126.668 35.426 126.38 35.642C126.096 35.858 125.884 36.15 125.744 36.518C125.608 36.886 125.54 37.298 125.54 37.754C125.54 38.214 125.61 38.63 125.75 39.002C125.89 39.37 126.1 39.662 126.38 39.878C126.664 40.094 127.018 40.202 127.442 40.202ZM132.441 42.344L132.507 41.846C132.675 41.858 132.801 41.826 132.885 41.75C132.969 41.674 133.023 41.57 133.047 41.438C133.071 41.306 133.075 41.16 133.059 41H132.441V39.644H133.617V41.18C133.617 41.6 133.513 41.916 133.305 42.128C133.101 42.34 132.813 42.412 132.441 42.344ZM132.441 35.696V34.52H133.617V35.696H132.441ZM21.0305 54.72C20.7465 54.72 20.4885 54.654 20.2565 54.522C20.0285 54.39 19.8445 54.212 19.7045 53.988C19.5685 53.76 19.5005 53.504 19.5005 53.22C19.5005 52.936 19.5685 52.68 19.7045 52.452C19.8445 52.224 20.0285 52.046 20.2565 51.918C20.4885 51.786 20.7465 51.72 21.0305 51.72C21.2945 51.72 21.5385 51.786 21.7625 51.918C21.9865 52.046 22.1645 52.224 22.2965 52.452C22.4325 52.68 22.5005 52.936 22.5005 53.22C22.5005 53.504 22.4325 53.76 22.2965 53.988C22.1645 54.212 21.9865 54.39 21.7625 54.522C21.5385 54.654 21.2945 54.72 21.0305 54.72ZM30.12 53.118V52.236H33.99V53.118H30.12ZM30.798 57V48.36H33.462C33.55 48.36 33.704 48.362 33.924 48.366C34.144 48.37 34.354 48.386 34.554 48.414C35.222 48.502 35.78 48.746 36.228 49.146C36.68 49.542 37.02 50.046 37.248 50.658C37.476 51.27 37.59 51.944 37.59 52.68C37.59 53.416 37.476 54.09 37.248 54.702C37.02 55.314 36.68 55.82 36.228 56.22C35.78 56.616 35.222 56.858 34.554 56.946C34.354 56.97 34.142 56.986 33.918 56.994C33.698 56.998 33.546 57 33.462 57H30.798ZM31.896 55.98H33.462C33.614 55.98 33.784 55.976 33.972 55.968C34.16 55.956 34.324 55.938 34.464 55.914C34.936 55.826 35.318 55.628 35.61 55.32C35.902 55.012 36.116 54.628 36.252 54.168C36.388 53.708 36.456 53.212 36.456 52.68C36.456 52.136 36.386 51.634 36.246 51.174C36.11 50.714 35.896 50.332 35.604 50.028C35.312 49.724 34.932 49.53 34.464 49.446C34.324 49.418 34.158 49.4 33.966 49.392C33.774 49.384 33.606 49.38 33.462 49.38H31.896V55.98ZM39.8608 49.53L41.3248 47.82H42.2728L43.7368 49.53H42.6868L41.7988 48.48L40.9108 49.53H39.8608ZM44.3848 48.27H43.5148L44.3008 46.29H45.1708L44.3848 48.27ZM41.7328 57.18C41.0888 57.18 40.5328 57.034 40.0648 56.742C39.6008 56.45 39.2428 56.046 38.9908 55.53C38.7388 55.014 38.6128 54.422 38.6128 53.754C38.6128 53.074 38.7408 52.478 38.9968 51.966C39.2528 51.454 39.6148 51.056 40.0828 50.772C40.5508 50.484 41.1008 50.34 41.7328 50.34C42.3808 50.34 42.9388 50.486 43.4068 50.778C43.8748 51.066 44.2328 51.468 44.4808 51.984C44.7328 52.496 44.8588 53.086 44.8588 53.754C44.8588 54.43 44.7328 55.026 44.4808 55.542C44.2288 56.054 43.8688 56.456 43.4008 56.748C42.9328 57.036 42.3768 57.18 41.7328 57.18ZM41.7328 56.166C42.4048 56.166 42.9048 55.942 43.2328 55.494C43.5608 55.046 43.7248 54.466 43.7248 53.754C43.7248 53.022 43.5588 52.44 43.2268 52.008C42.8948 51.572 42.3968 51.354 41.7328 51.354C41.2808 51.354 40.9088 51.456 40.6168 51.66C40.3248 51.864 40.1068 52.146 39.9628 52.506C39.8188 52.866 39.7468 53.282 39.7468 53.754C39.7468 54.482 39.9148 55.066 40.2508 55.506C40.5868 55.946 41.0808 56.166 41.7328 56.166ZM46.2998 49.374V48.27H47.3678V49.374H46.2998ZM46.2998 57V50.52H47.3678V57H46.2998ZM54.0185 57.174C53.2465 57.174 52.6125 57.006 52.1165 56.67C51.6245 56.33 51.3225 55.856 51.2105 55.248L52.3025 55.074C52.3905 55.426 52.5925 55.706 52.9085 55.914C53.2245 56.118 53.6165 56.22 54.0845 56.22C54.5285 56.22 54.8765 56.128 55.1285 55.944C55.3805 55.76 55.5065 55.51 55.5065 55.194C55.5065 55.01 55.4645 54.862 55.3805 54.75C55.2965 54.634 55.1225 54.526 54.8585 54.426C54.5985 54.326 54.2045 54.206 53.6765 54.066C53.1045 53.914 52.6545 53.756 52.3265 53.592C51.9985 53.428 51.7645 53.238 51.6245 53.022C51.4845 52.806 51.4145 52.544 51.4145 52.236C51.4145 51.856 51.5185 51.524 51.7265 51.24C51.9345 50.952 52.2245 50.73 52.5965 50.574C52.9725 50.418 53.4085 50.34 53.9045 50.34C54.3965 50.34 54.8365 50.418 55.2245 50.574C55.6125 50.73 55.9245 50.952 56.1605 51.24C56.4005 51.524 56.5425 51.856 56.5865 52.236L55.4945 52.434C55.4425 52.086 55.2745 51.812 54.9905 51.612C54.7105 51.412 54.3485 51.306 53.9045 51.294C53.4845 51.278 53.1425 51.352 52.8785 51.516C52.6185 51.68 52.4885 51.902 52.4885 52.182C52.4885 52.338 52.5365 52.472 52.6325 52.584C52.7325 52.696 52.9145 52.802 53.1785 52.902C53.4465 53.002 53.8345 53.116 54.3425 53.244C54.9145 53.388 55.3645 53.546 55.6925 53.718C56.0245 53.886 56.2605 54.086 56.4005 54.318C56.5405 54.546 56.6105 54.828 56.6105 55.164C56.6105 55.788 56.3805 56.28 55.9205 56.64C55.4605 56.996 54.8265 57.174 54.0185 57.174ZM60.6938 57.18C60.0498 57.18 59.4938 57.034 59.0258 56.742C58.5618 56.45 58.2038 56.046 57.9518 55.53C57.6998 55.014 57.5738 54.422 57.5738 53.754C57.5738 53.074 57.7018 52.478 57.9578 51.966C58.2138 51.454 58.5758 51.056 59.0438 50.772C59.5118 50.484 60.0618 50.34 60.6938 50.34C61.3418 50.34 61.8998 50.486 62.3678 50.778C62.8358 51.066 63.1938 51.468 63.4418 51.984C63.6938 52.496 63.8198 53.086 63.8198 53.754C63.8198 54.43 63.6938 55.026 63.4418 55.542C63.1898 56.054 62.8298 56.456 62.3618 56.748C61.8938 57.036 61.3378 57.18 60.6938 57.18ZM60.6938 56.166C61.3658 56.166 61.8658 55.942 62.1938 55.494C62.5218 55.046 62.6858 54.466 62.6858 53.754C62.6858 53.022 62.5198 52.44 62.1878 52.008C61.8558 51.572 61.3578 51.354 60.6938 51.354C60.2418 51.354 59.8698 51.456 59.5778 51.66C59.2858 51.864 59.0678 52.146 58.9238 52.506C58.7798 52.866 58.7078 53.282 58.7078 53.754C58.7078 54.482 58.8758 55.066 59.2118 55.506C59.5478 55.946 60.0418 56.166 60.6938 56.166ZM68.1948 49.53H67.3248L68.1108 47.55H68.9808L68.1948 49.53ZM66.9828 57.18C66.4988 57.18 66.0928 57.092 65.7648 56.916C65.4408 56.736 65.1948 56.5 65.0268 56.208C64.8628 55.916 64.7808 55.596 64.7808 55.248C64.7808 54.908 64.8448 54.614 64.9728 54.366C65.1048 54.114 65.2888 53.906 65.5248 53.742C65.7608 53.574 66.0428 53.442 66.3708 53.346C66.6788 53.262 67.0228 53.19 67.4028 53.13C67.7868 53.066 68.1748 53.008 68.5668 52.956C68.9588 52.904 69.3248 52.854 69.6648 52.806L69.2808 53.028C69.2928 52.452 69.1768 52.026 68.9328 51.75C68.6928 51.474 68.2768 51.336 67.6848 51.336C67.2928 51.336 66.9488 51.426 66.6528 51.606C66.3608 51.782 66.1548 52.07 66.0348 52.47L65.0208 52.164C65.1768 51.596 65.4788 51.15 65.9268 50.826C66.3748 50.502 66.9648 50.34 67.6968 50.34C68.2848 50.34 68.7888 50.446 69.2088 50.658C69.6328 50.866 69.9368 51.182 70.1208 51.606C70.2128 51.806 70.2708 52.024 70.2948 52.26C70.3188 52.492 70.3308 52.736 70.3308 52.992V57H69.3828V55.446L69.6048 55.59C69.3608 56.114 69.0188 56.51 68.5788 56.778C68.1428 57.046 67.6108 57.18 66.9828 57.18ZM67.1448 56.286C67.5288 56.286 67.8608 56.218 68.1408 56.082C68.4248 55.942 68.6528 55.76 68.8248 55.536C68.9968 55.308 69.1088 55.06 69.1608 54.792C69.2208 54.592 69.2528 54.37 69.2568 54.126C69.2648 53.878 69.2688 53.688 69.2688 53.556L69.6408 53.718C69.2928 53.766 68.9508 53.812 68.6148 53.856C68.2788 53.9 67.9608 53.948 67.6608 54C67.3608 54.048 67.0908 54.106 66.8508 54.174C66.6748 54.23 66.5088 54.302 66.3528 54.39C66.2008 54.478 66.0768 54.592 65.9808 54.732C65.8888 54.868 65.8428 55.038 65.8428 55.242C65.8428 55.418 65.8868 55.586 65.9748 55.746C66.0668 55.906 66.2068 56.036 66.3948 56.136C66.5868 56.236 66.8368 56.286 67.1448 56.286ZM75.5088 57C75.1248 57.076 74.7448 57.106 74.3688 57.09C73.9968 57.078 73.6648 57.004 73.3728 56.868C73.0808 56.728 72.8588 56.512 72.7068 56.22C72.5788 55.964 72.5088 55.706 72.4968 55.446C72.4888 55.182 72.4848 54.884 72.4848 54.552V48.72H73.5528V54.504C73.5528 54.768 73.5548 54.994 73.5588 55.182C73.5668 55.37 73.6088 55.532 73.6848 55.668C73.8288 55.924 74.0568 56.074 74.3688 56.118C74.6848 56.162 75.0648 56.15 75.5088 56.082V57ZM71.1708 51.402V50.52H75.5088V51.402H71.1708ZM81.9567 57.18C81.3007 57.18 80.7427 57.034 80.2827 56.742C79.8267 56.446 79.4787 56.04 79.2387 55.524C78.9987 55.008 78.8747 54.42 78.8667 53.76C78.8747 53.084 79.0007 52.49 79.2447 51.978C79.4927 51.462 79.8467 51.06 80.3067 50.772C80.7667 50.484 81.3207 50.34 81.9687 50.34C82.6527 50.34 83.2407 50.508 83.7327 50.844C84.2287 51.18 84.5607 51.64 84.7287 52.224L83.6727 52.542C83.5367 52.166 83.3147 51.874 83.0067 51.666C82.7027 51.458 82.3527 51.354 81.9567 51.354C81.5127 51.354 81.1467 51.458 80.8587 51.666C80.5707 51.87 80.3567 52.154 80.2167 52.518C80.0767 52.878 80.0047 53.292 80.0007 53.76C80.0087 54.48 80.1747 55.062 80.4987 55.506C80.8267 55.946 81.3127 56.166 81.9567 56.166C82.3807 56.166 82.7327 56.07 83.0127 55.878C83.2927 55.682 83.5047 55.4 83.6487 55.032L84.7287 55.314C84.5047 55.918 84.1547 56.38 83.6787 56.7C83.2027 57.02 82.6287 57.18 81.9567 57.18ZM86.5935 49.53L88.0575 47.82H89.0055L90.4695 49.53H89.4195L88.5315 48.48L87.6435 49.53H86.5935ZM88.5375 57.18C87.8935 57.18 87.3375 57.034 86.8695 56.742C86.4055 56.45 86.0475 56.046 85.7955 55.53C85.5435 55.014 85.4175 54.422 85.4175 53.754C85.4175 53.074 85.5455 52.478 85.8015 51.966C86.0575 51.454 86.4195 51.056 86.8875 50.772C87.3555 50.484 87.9055 50.34 88.5375 50.34C89.1855 50.34 89.7435 50.486 90.2115 50.778C90.6795 51.066 91.0375 51.468 91.2855 51.984C91.5375 52.496 91.6635 53.086 91.6635 53.754C91.6635 54.43 91.5375 55.026 91.2855 55.542C91.0335 56.054 90.6735 56.456 90.2055 56.748C89.7375 57.036 89.1815 57.18 88.5375 57.18ZM88.5375 56.166C89.2095 56.166 89.7095 55.942 90.0375 55.494C90.3655 55.046 90.5295 54.466 90.5295 53.754C90.5295 53.022 90.3635 52.44 90.0315 52.008C89.6995 51.572 89.2015 51.354 88.5375 51.354C88.0855 51.354 87.7135 51.456 87.4215 51.66C87.1295 51.864 86.9115 52.146 86.7675 52.506C86.6235 52.866 86.5515 53.282 86.5515 53.754C86.5515 54.482 86.7195 55.066 87.0555 55.506C87.3915 55.946 87.8855 56.166 88.5375 56.166ZM97.5985 57V53.754C97.5985 53.446 97.5705 53.15 97.5145 52.866C97.4625 52.582 97.3685 52.328 97.2325 52.104C97.1005 51.876 96.9205 51.696 96.6925 51.564C96.4685 51.432 96.1845 51.366 95.8405 51.366C95.5725 51.366 95.3285 51.412 95.1085 51.504C94.8925 51.592 94.7065 51.728 94.5505 51.912C94.3945 52.096 94.2725 52.328 94.1845 52.608C94.1005 52.884 94.0585 53.21 94.0585 53.586L93.3565 53.37C93.3565 52.742 93.4685 52.204 93.6925 51.756C93.9205 51.304 94.2385 50.958 94.6465 50.718C95.0585 50.474 95.5425 50.352 96.0985 50.352C96.5185 50.352 96.8765 50.418 97.1725 50.55C97.4685 50.682 97.7145 50.858 97.9105 51.078C98.1065 51.294 98.2605 51.538 98.3725 51.81C98.4845 52.078 98.5625 52.352 98.6065 52.632C98.6545 52.908 98.6785 53.17 98.6785 53.418V57H97.5985ZM92.9785 57V50.52H93.9385V52.254H94.0585V57H92.9785ZM102.86 60.06C102.52 60.06 102.188 60.008 101.864 59.904C101.54 59.8 101.242 59.642 100.97 59.43C100.702 59.222 100.478 58.958 100.298 58.638L101.276 58.122C101.436 58.438 101.662 58.668 101.954 58.812C102.25 58.956 102.554 59.028 102.866 59.028C103.278 59.028 103.62 58.952 103.892 58.8C104.164 58.652 104.364 58.43 104.492 58.134C104.624 57.838 104.688 57.47 104.684 57.03V55.26H104.81V50.52H105.758V57.042C105.758 57.218 105.752 57.388 105.74 57.552C105.732 57.716 105.712 57.878 105.68 58.038C105.596 58.498 105.43 58.876 105.182 59.172C104.934 59.472 104.614 59.694 104.222 59.838C103.83 59.986 103.376 60.06 102.86 60.06ZM102.782 57.18C102.178 57.18 101.66 57.03 101.228 56.73C100.796 56.426 100.462 56.016 100.226 55.5C99.9944 54.984 99.8784 54.402 99.8784 53.754C99.8784 53.106 99.9944 52.524 100.226 52.008C100.462 51.492 100.796 51.086 101.228 50.79C101.66 50.49 102.176 50.34 102.776 50.34C103.388 50.34 103.902 50.488 104.318 50.784C104.734 51.08 105.048 51.486 105.26 52.002C105.476 52.518 105.584 53.102 105.584 53.754C105.584 54.398 105.476 54.98 105.26 55.5C105.048 56.016 104.734 56.426 104.318 56.73C103.902 57.03 103.39 57.18 102.782 57.18ZM102.914 56.202C103.35 56.202 103.708 56.098 103.988 55.89C104.268 55.678 104.474 55.388 104.606 55.02C104.742 54.648 104.81 54.226 104.81 53.754C104.81 53.274 104.742 52.852 104.606 52.488C104.474 52.12 104.27 51.834 103.994 51.63C103.718 51.422 103.368 51.318 102.944 51.318C102.504 51.318 102.14 51.426 101.852 51.642C101.568 51.858 101.356 52.15 101.216 52.518C101.08 52.886 101.012 53.298 101.012 53.754C101.012 54.214 101.082 54.63 101.222 55.002C101.362 55.37 101.572 55.662 101.852 55.878C102.136 56.094 102.49 56.202 102.914 56.202ZM114.45 57V53.754C114.45 53.446 114.422 53.15 114.366 52.866C114.314 52.582 114.22 52.328 114.084 52.104C113.952 51.876 113.772 51.696 113.544 51.564C113.32 51.432 113.036 51.366 112.692 51.366C112.424 51.366 112.18 51.412 111.96 51.504C111.744 51.592 111.558 51.728 111.402 51.912C111.246 52.096 111.124 52.328 111.036 52.608C110.952 52.884 110.91 53.21 110.91 53.586L110.208 53.37C110.208 52.742 110.32 52.204 110.544 51.756C110.772 51.304 111.09 50.958 111.498 50.718C111.91 50.474 112.394 50.352 112.95 50.352C113.37 50.352 113.728 50.418 114.024 50.55C114.32 50.682 114.566 50.858 114.762 51.078C114.958 51.294 115.112 51.538 115.224 51.81C115.336 52.078 115.414 52.352 115.458 52.632C115.506 52.908 115.53 53.17 115.53 53.418V57H114.45ZM109.83 57V50.52H110.79V52.254H110.91V57H109.83ZM119.269 59.31V58.206H120.445V59.31H119.269ZM122.023 49.44H122.881C122.933 49.804 122.921 50.12 122.845 50.388C122.773 50.652 122.615 50.858 122.371 51.006C122.163 51.122 121.905 51.184 121.597 51.192C121.293 51.2 121.013 51.124 120.757 50.964V50.472C120.949 50.524 121.111 50.554 121.243 50.562C121.379 50.566 121.505 50.54 121.621 50.484C121.833 50.384 121.957 50.24 121.993 50.052C122.029 49.86 122.039 49.656 122.023 49.44ZM119.791 57.18C119.147 57.18 118.591 57.034 118.123 56.742C117.659 56.45 117.301 56.046 117.049 55.53C116.797 55.014 116.671 54.422 116.671 53.754C116.671 53.074 116.799 52.478 117.055 51.966C117.311 51.454 117.673 51.056 118.141 50.772C118.609 50.484 119.159 50.34 119.791 50.34C120.439 50.34 120.997 50.486 121.465 50.778C121.933 51.066 122.291 51.468 122.539 51.984C122.791 52.496 122.917 53.086 122.917 53.754C122.917 54.43 122.791 55.026 122.539 55.542C122.287 56.054 121.927 56.456 121.459 56.748C120.991 57.036 120.435 57.18 119.791 57.18ZM119.791 56.166C120.463 56.166 120.963 55.942 121.291 55.494C121.619 55.046 121.783 54.466 121.783 53.754C121.783 53.022 121.617 52.44 121.285 52.008C120.953 51.572 120.455 51.354 119.791 51.354C119.339 51.354 118.967 51.456 118.675 51.66C118.383 51.864 118.165 52.146 118.021 52.506C117.877 52.866 117.805 53.282 117.805 53.754C117.805 54.482 117.973 55.066 118.309 55.506C118.645 55.946 119.139 56.166 119.791 56.166ZM124.718 58.344L124.784 57.846C124.952 57.858 125.078 57.826 125.162 57.75C125.246 57.674 125.3 57.57 125.324 57.438C125.348 57.306 125.352 57.16 125.336 57H124.718V55.644H125.894V57.18C125.894 57.6 125.79 57.916 125.582 58.128C125.378 58.34 125.09 58.412 124.718 58.344ZM124.718 51.696V50.52H125.894V51.696H124.718ZM13.032 73V71.824H14.208V73H13.032ZM16.2664 73V71.824H17.4424V73H16.2664ZM19.5008 73V71.824H20.6768V73H19.5008Z" fill="url(#paint0_linear_350_10584)"/>
<rect x="0.5" y="0.5" width="184" height="87" rx="11.5" stroke="url(#paint1_linear_350_10584)"/>
</g>
<defs>
<filter id="filter0_bi_350_10584" x="-29" y="-29" width="243" height="146" filterUnits="userSpaceOnUse" color-interpolation-filters="sRGB">
<feFlood flood-opacity="0" result="BackgroundImageFix"/>
<feGaussianBlur in="BackgroundImageFix" stdDeviation="14.5"/>
<feComposite in2="SourceAlpha" operator="in" result="effect1_backgroundBlur_350_10584"/>
<feBlend mode="normal" in="SourceGraphic" in2="effect1_backgroundBlur_350_10584" result="shape"/>
<feColorMatrix in="SourceAlpha" type="matrix" values="0 0 0 0 0 0 0 0 0 0 0 0 0 0 0 0 0 0 127 0" result="hardAlpha"/>
<feOffset dy="16"/>
<feGaussianBlur stdDeviation="24"/>
<feComposite in2="hardAlpha" operator="arithmetic" k2="-1" k3="1"/>
<feColorMatrix type="matrix" values="0 0 0 0 1 0 0 0 0 1 0 0 0 0 1 0 0 0 0.4 0"/>
<feBlend mode="normal" in2="shape" result="effect2_innerShadow_350_10584"/>
</filter>
<linearGradient id="paint0_linear_350_10584" x1="74.3359" y1="99.3333" x2="22.6931" y2="16.6296" gradientUnits="userSpaceOnUse">
<stop stop-color="#A1873D"/>
<stop offset="1" stop-color="#513926"/>
</linearGradient>
<linearGradient id="paint1_linear_350_10584" x1="92.5" y1="0" x2="92.5" y2="88" gradientUnits="userSpaceOnUse">
<stop stop-color="#FFE6C4"/>
<stop offset="1" stop-color="#C4A46D"/>
</linearGradient>
</defs>
</svg>
