<svg width="49" height="48" viewBox="0 0 49 48" fill="none" xmlns="http://www.w3.org/2000/svg">
<path fill-rule="evenodd" clip-rule="evenodd" d="M5.95797 15.6055C5.64484 14.8385 6.01274 13.963 6.77971 13.6498L28.6292 4.72921C31.9527 3.37229 35.7469 4.96654 37.1039 8.29007L39.5813 14.3581C39.8944 15.125 39.5265 16.0006 38.7595 16.3138C37.9926 16.6269 37.117 16.259 36.8038 15.492L34.3264 9.42402C33.5958 7.63444 31.5527 6.77599 29.7631 7.50664L7.91367 16.4273C7.1467 16.7404 6.27111 16.3725 5.95797 15.6055Z" fill="#144C27"/>
<path d="M39.5 27.9717C39.5 29.6285 38.1569 30.9717 36.5 30.9717C34.8431 30.9717 33.5 29.6285 33.5 27.9717C33.5 26.3148 34.8431 24.9717 36.5 24.9717C38.1569 24.9717 39.5 26.3148 39.5 27.9717Z" fill="#96CF4D"/>
<path fill-rule="evenodd" clip-rule="evenodd" d="M3.12207 18.1006C3.12207 15.6153 5.13679 13.6006 7.62207 13.6006H41.4135C43.8988 13.6006 45.9135 15.6153 45.9135 18.1006V37.8448C45.9135 40.3301 43.8988 42.3448 41.4135 42.3448H7.62207C5.13678 42.3448 3.12207 40.3301 3.12207 37.8448V18.1006ZM7.62207 16.6006C6.79364 16.6006 6.12207 17.2722 6.12207 18.1006V37.8448C6.12207 38.6733 6.79364 39.3448 7.62207 39.3448H41.4135C42.242 39.3448 42.9135 38.6733 42.9135 37.8448V18.1006C42.9135 17.2722 42.242 16.6006 41.4135 16.6006H7.62207Z" fill="#144C27"/>
</svg>
