<svg width="24" height="24" viewBox="0 0 24 24" fill="none" xmlns="http://www.w3.org/2000/svg">
<path fill-rule="evenodd" clip-rule="evenodd" d="M2.7288 7.80276C2.57224 7.41927 2.75619 6.98148 3.13967 6.82491L14.0644 2.3646C15.7262 1.68615 17.6233 2.48327 18.3017 4.14503L19.5405 7.17903C19.697 7.56252 19.5131 8.00031 19.1296 8.15688C18.7461 8.31345 18.3083 8.1295 18.1517 7.74601L16.913 4.71201C16.5477 3.81722 15.5262 3.388 14.6314 3.75332L3.70665 8.21363C3.32317 8.37019 2.88537 8.18624 2.7288 7.80276Z" fill="black"/>
<path fill-rule="evenodd" clip-rule="evenodd" d="M1.31104 9.05029C1.31104 7.80765 2.31839 6.80029 3.56104 6.80029H20.4568C21.6994 6.80029 22.7068 7.80765 22.7068 9.05029V18.9224C22.7068 20.1651 21.6994 21.1724 20.4568 21.1724H3.56103C2.31839 21.1724 1.31104 20.1651 1.31104 18.9224V9.05029ZM3.56104 8.30029C3.14682 8.30029 2.81104 8.63608 2.81104 9.05029V18.9224C2.81104 19.3366 3.14682 19.6724 3.56103 19.6724H20.4568C20.871 19.6724 21.2068 19.3366 21.2068 18.9224V9.05029C21.2068 8.63608 20.871 8.30029 20.4568 8.30029H3.56104Z" fill="black"/>
</svg>
