<svg width="24" height="24" viewBox="0 0 24 24" fill="none" xmlns="http://www.w3.org/2000/svg">
<path fill-rule="evenodd" clip-rule="evenodd" d="M2.7288 7.80276C2.57224 7.41927 2.75619 6.98148 3.13967 6.82491L14.0644 2.3646C15.7262 1.68615 17.6233 2.48327 18.3017 4.14503L19.5405 7.17903C19.697 7.56252 19.5131 8.00031 19.1296 8.15688C18.7461 8.31345 18.3083 8.1295 18.1517 7.74601L16.913 4.71201C16.5477 3.81722 15.5262 3.388 14.6314 3.75332L3.70665 8.21363C3.32317 8.37019 2.88537 8.18624 2.7288 7.80276Z" fill="black"/>
<path fill-rule="evenodd" clip-rule="evenodd" d="M1.31055 9.05029C1.31055 7.80765 2.31791 6.80029 3.56055 6.80029H20.4563C21.6989 6.80029 22.7063 7.80765 22.7063 9.05029V18.9224C22.7063 20.1651 21.6989 21.1724 20.4563 21.1724H3.56054C2.3179 21.1724 1.31055 20.1651 1.31055 18.9224V9.05029ZM3.56055 8.30029C3.14633 8.30029 2.81055 8.63608 2.81055 9.05029V18.9224C2.81055 19.3366 3.14633 19.6724 3.56054 19.6724H20.4563C20.8705 19.6724 21.2063 19.3366 21.2063 18.9224V9.05029C21.2063 8.63608 20.8705 8.30029 20.4563 8.30029H3.56055Z" fill="black"/>
</svg>
