<svg width="48" height="48" viewBox="0 0 24 24" fill="none" xmlns="http://www.w3.org/2000/svg">
<path fill-rule="evenodd" clip-rule="evenodd" d="M5.45797 15.6055C5.14484 14.8385 5.51274 13.963 6.27971 13.6498L28.1292 4.72921C31.4527 3.37229 35.2469 4.96654 36.6039 8.29007L39.0813 14.3581C39.3944 15.125 39.0265 16.0006 38.2595 16.3138C37.4926 16.6269 36.617 16.259 36.3038 15.492L33.8264 9.42402C33.0958 7.63444 31.0527 6.77599 29.2631 7.50664L7.41367 16.4273C6.6467 16.7404 5.77111 16.3725 5.45797 15.6055Z" fill="#144C27"/>
<path d="M39 27.9717C39 29.6285 37.6569 30.9717 36 30.9717C34.3431 30.9717 33 29.6285 33 27.9717C33 26.3148 34.3431 24.9717 36 24.9717C37.6569 24.9717 39 26.3148 39 27.9717Z" fill="#96CF4D"/>
<path fill-rule="evenodd" clip-rule="evenodd" d="M2.62207 18.1006C2.62207 15.6153 4.63679 13.6006 7.12207 13.6006H40.9135C43.3988 13.6006 45.4135 15.6153 45.4135 18.1006V37.8448C45.4135 40.3301 43.3988 42.3448 40.9135 42.3448H7.12207C4.63678 42.3448 2.62207 40.3301 2.62207 37.8448V18.1006ZM7.12207 16.6006C6.29364 16.6006 5.62207 17.2722 5.62207 18.1006V37.8448C5.62207 38.6733 6.29364 39.3448 7.12207 39.3448H40.9135C41.742 39.3448 42.4135 38.6733 42.4135 37.8448V18.1006C42.4135 17.2722 41.742 16.6006 40.9135 16.6006H7.12207Z" fill="#144C27"/>
</svg>
