<svg width="24" height="24" viewBox="0 0 24 24" fill="none" xmlns="http://www.w3.org/2000/svg">
<path fill-rule="evenodd" clip-rule="evenodd" d="M13.2987 1.31207C13.6041 1.44464 13.7855 1.76269 13.7442 2.09307L12.8496 9.25004H21C21.291 9.25004 21.5558 9.41839 21.6792 9.68192C21.8026 9.94546 21.7625 10.2566 21.5762 10.4802L11.5762 22.4802C11.363 22.736 11.0068 22.8206 10.7014 22.688C10.396 22.5554 10.2145 22.2374 10.2558 21.907L11.1504 14.75H3.00001C2.709 14.75 2.44425 14.5817 2.32082 14.3182C2.19738 14.0546 2.23754 13.7435 2.42384 13.5199L12.4238 1.5199C12.637 1.26413 12.9932 1.17949 13.2987 1.31207ZM4.60129 13.25H12C12.2151 13.25 12.4199 13.3424 12.5623 13.5037C12.7046 13.665 12.7709 13.8796 12.7442 14.0931L12.0615 19.5547L19.3987 10.75H12C11.7849 10.75 11.5801 10.6577 11.4378 10.4964C11.2954 10.3351 11.2291 10.1205 11.2558 9.90702L11.9385 4.44538L4.60129 13.25Z" fill="url(#paint0_linear_81_14601)"/>
<defs>
<linearGradient id="paint0_linear_81_14601" x1="2.25" y1="14.516" x2="22.2" y2="14.516" gradientUnits="userSpaceOnUse">
<stop stop-color="#96BF01"/>
<stop offset="1" stop-color="#0E5A2B"/>
</linearGradient>
</defs>
</svg>
