<svg width="45" height="45" viewBox="0 0 45 45" fill="none" xmlns="http://www.w3.org/2000/svg">
<path d="M41.1599 18.4701C41.1599 15.4834 38.7332 13.2434 35.9332 13.2434H31.0799C32.0132 12.3101 32.5732 11.3767 32.7599 10.4434C33.3199 8.39007 32.3866 5.59007 28.4666 4.2834C25.8532 3.35007 24.1732 4.09673 23.2399 4.8434C22.8666 5.21673 22.4932 5.59007 22.3066 5.9634C21.9332 5.4034 21.7466 5.03007 21.1866 4.65673C20.4399 3.91007 18.7599 3.35007 16.3332 4.09673C12.4132 5.4034 11.4799 8.2034 12.0399 10.4434C12.4132 11.3767 12.9732 12.3101 13.7199 13.2434H8.86656C6.06656 13.2434 3.63989 15.6701 3.63989 18.4701C3.63989 20.7101 5.13323 22.7634 7.18656 23.5101V37.6967C7.18656 39.5634 8.67989 41.0567 10.5466 41.0567H34.6266C36.4932 41.0567 37.9866 39.5634 37.9866 37.6967V23.3234C39.6666 22.5767 41.1599 20.7101 41.1599 18.4701ZM24.9199 6.89673C25.1066 6.71007 25.6666 6.15007 27.3466 6.71007C28.6532 7.0834 30.1466 8.01673 29.7732 9.51007C29.3999 11.1901 26.7866 13.2434 23.4266 13.0567C23.4266 12.8701 23.4266 12.6834 23.4266 12.3101C23.4266 11.9367 23.4266 11.7501 23.4266 11.3767C23.6132 9.69673 23.9866 7.6434 24.9199 6.89673ZM17.0799 6.71007C17.6399 6.5234 18.0132 6.5234 18.3866 6.5234C18.9466 6.5234 19.3199 6.71007 19.5066 6.89673C20.4399 7.6434 20.8132 9.8834 20.8132 11.9367C20.8132 12.1234 20.8132 12.1234 20.8132 12.3101C20.8132 12.6834 20.8132 13.0567 20.8132 13.2434C17.8266 13.4301 15.2132 11.3767 14.8399 9.69673C14.4666 8.01673 15.7732 7.27007 17.0799 6.71007ZM8.86656 16.0434H20.8132V21.0834H8.86656C7.55989 21.0834 6.43989 19.9634 6.43989 18.6567C6.43989 17.3501 7.55989 16.0434 8.86656 16.0434ZM9.98656 37.6967V23.8834H20.9999V38.2567H10.3599C10.1732 38.2567 9.98656 37.8834 9.98656 37.6967ZM34.6266 38.2567H23.7999V23.8834H34.9999V37.6967C34.9999 37.8834 34.8132 38.2567 34.6266 38.2567ZM35.7466 21.0834H23.7999V16.0434H23.9866H35.7466C37.0532 16.0434 38.1732 17.1634 38.1732 18.4701C38.1732 19.7767 37.2399 21.0834 35.7466 21.0834Z" fill="black"/>
</svg>
