<svg width="32" height="32" viewBox="0 0 32 32" fill="none" xmlns="http://www.w3.org/2000/svg">
<path d="M28.6133 19.1999C28.0941 18.6758 27.402 18.3584 26.666 18.3069C25.9301 18.2554 25.2005 18.4732 24.6133 18.9199L22.3333 20.6665V20.2532C22.3298 19.5749 22.0976 18.9176 21.6741 18.3877C21.2507 17.8578 20.6608 17.4863 20 17.3332L16.9467 16.5599C15.9646 16.3183 14.943 16.2837 13.9468 16.4581C12.9506 16.6326 12.0016 17.0123 11.16 17.5732L10.24 18.1865C10.1315 17.6697 9.85081 17.205 9.44393 16.8684C9.03705 16.5317 8.528 16.343 8 16.3332H5.33333C4.71557 16.3367 4.12411 16.5837 3.68729 17.0205C3.25046 17.4573 3.0035 18.0488 3 18.6665V26.6665C3.0035 27.2843 3.25046 27.8758 3.68729 28.3126C4.12411 28.7494 4.71557 28.9964 5.33333 28.9999H8C8.43972 29.0003 8.8704 28.875 9.24128 28.6387C9.61216 28.4025 9.90779 28.0652 10.0933 27.6665H11.3467C11.7021 27.6649 12.0562 27.7097 12.4 27.7999L15.9333 28.6799C16.8468 28.8817 17.7932 28.8817 18.7067 28.6799L22.6667 27.9999C23.8953 27.758 25.0236 27.1544 25.9067 26.2665L28.6667 23.5065C28.9493 23.2284 29.173 22.8962 29.3242 22.5296C29.4754 22.163 29.5511 21.7697 29.5467 21.3732C29.5465 20.9666 29.4637 20.5643 29.3032 20.1907C29.1428 19.8171 28.9081 19.48 28.6133 19.1999ZM8.33333 26.6665C8.33333 26.7549 8.29821 26.8397 8.2357 26.9022C8.17319 26.9647 8.08841 26.9999 8 26.9999H5.33333C5.24493 26.9999 5.16014 26.9647 5.09763 26.9022C5.03512 26.8397 5 26.7549 5 26.6665V18.6665C5 18.5781 5.03512 18.4933 5.09763 18.4308C5.16014 18.3683 5.24493 18.3332 5.33333 18.3332H8C8.08841 18.3332 8.17319 18.3683 8.2357 18.4308C8.29821 18.4933 8.33333 18.5781 8.33333 18.6665V26.6665ZM27.2 22.0532L24.44 24.8132C23.8359 25.4262 23.0591 25.8402 22.2133 25.9999L18.3067 26.7865C17.6833 26.9265 17.0367 26.9265 16.4133 26.7865L12.88 25.9065C12.3781 25.7838 11.8634 25.7211 11.3467 25.7199H10.3333V20.5332L12.3067 19.1999C12.9197 18.7976 13.609 18.5261 14.3316 18.4022C15.0543 18.2783 15.7947 18.3047 16.5067 18.4799L19.56 19.2399C19.7798 19.2958 19.9748 19.423 20.1147 19.6015C20.2546 19.78 20.3315 19.9998 20.3333 20.2265V20.6399C20.3333 20.9086 20.2266 21.1664 20.0365 21.3564C19.8465 21.5464 19.5888 21.6532 19.32 21.6532H17.3333C17.0681 21.6532 16.8138 21.7586 16.6262 21.9461C16.4387 22.1336 16.3333 22.388 16.3333 22.6532C16.3333 22.9184 16.4387 23.1728 16.6262 23.3603C16.8138 23.5478 17.0681 23.6532 17.3333 23.6532H20.44C21.2404 23.659 22.0212 23.4065 22.6667 22.9332L25.8933 20.5199C26.0891 20.371 26.3323 20.2984 26.5776 20.3155C26.8229 20.3327 27.0536 20.4385 27.2267 20.6132C27.4151 20.8055 27.5204 21.064 27.52 21.3332C27.5174 21.4685 27.4878 21.6019 27.4328 21.7256C27.3779 21.8492 27.2987 21.9606 27.2 22.0532ZM15.7467 11.2265C15.9955 11.8986 16.392 12.5063 16.9071 13.0047C17.4221 13.503 18.0425 13.8794 18.7224 14.1059C19.4024 14.3325 20.1245 14.4035 20.8355 14.3136C21.5466 14.2238 22.2284 13.9755 22.8306 13.5869C23.4328 13.1984 23.9401 12.6796 24.315 12.0688C24.69 11.458 24.9229 10.7708 24.9968 10.058C25.0706 9.34509 24.9835 8.62473 24.7417 7.95006C24.5 7.27538 24.1098 6.6636 23.6 6.15986C22.7005 5.2884 21.4923 4.80895 20.24 4.82653C20.0163 4.18202 19.6467 3.59793 19.16 3.11986C18.248 2.25324 17.0381 1.77002 15.78 1.77002C14.5219 1.77002 13.312 2.25324 12.4 3.11986C11.5052 4.01716 11.0027 5.23266 11.0027 6.49986C11.0027 7.76707 11.5052 8.98257 12.4 9.87986C12.8419 10.3134 13.3649 10.6555 13.9392 10.8866C14.5135 11.1176 15.1277 11.2332 15.7467 11.2265ZM20.2133 6.7732C20.5798 6.77098 20.943 6.84175 21.2818 6.98139C21.6206 7.12103 21.9282 7.32675 22.1867 7.58653C22.568 7.97952 22.825 8.47614 22.9258 9.01436C23.0265 9.55258 22.9664 10.1086 22.7531 10.6128C22.5397 11.1171 22.1825 11.5474 21.7261 11.8499C21.2697 12.1524 20.7342 12.3137 20.1867 12.3137C19.6391 12.3137 19.1037 12.1524 18.6472 11.8499C18.1908 11.5474 17.8336 11.1171 17.6202 10.6128C17.4069 10.1086 17.3468 9.55258 17.4476 9.01436C17.5483 8.47614 17.8054 7.97952 18.1867 7.58653C18.4504 7.31894 18.7665 7.10861 19.1152 6.96867C19.4639 6.82873 19.8378 6.76219 20.2133 6.7732ZM13.8133 4.47986C14.3453 3.95225 15.0641 3.6562 15.8133 3.6562C16.5625 3.6562 17.2814 3.95225 17.8133 4.47986C18.0244 4.69022 18.2 4.93337 18.3333 5.19986C17.7997 5.43101 17.3119 5.75618 16.8933 6.15986C16.1005 6.98171 15.6276 8.05993 15.56 9.19986C14.9351 9.13445 14.3516 8.8568 13.9067 8.4132C13.3738 7.90336 13.0648 7.20309 13.0473 6.46582C13.0298 5.72855 13.3053 5.0144 13.8133 4.47986Z" fill="url(#paint0_linear_343_4996)"/>
<defs>
<linearGradient id="paint0_linear_343_4996" x1="16.2734" y1="1.77002" x2="16.2734" y2="28.9999" gradientUnits="userSpaceOnUse">
<stop stop-color="#A1873D"/>
<stop offset="1" stop-color="#513926"/>
</linearGradient>
</defs>
</svg>
