<svg width="32" height="32" viewBox="0 0 32 32" fill="none" xmlns="http://www.w3.org/2000/svg">
<path fill-rule="evenodd" clip-rule="evenodd" d="M18.7215 4.03165L25.3882 6.76018C26.0629 7.03434 26.6404 7.50389 27.0464 8.10856C27.4524 8.71323 27.6685 9.42545 27.6668 10.1538V14.9097C27.5881 18.1915 26.4209 21.3541 24.3488 23.9002C22.2766 26.4464 19.4171 28.2317 16.2196 28.9754C16.0752 29.0084 15.9252 29.0084 15.7807 28.9754C12.5832 28.2318 9.72359 26.4465 7.65142 23.9004C5.57926 21.3542 4.41212 18.1915 4.33351 14.9097V10.1538C4.33157 9.4252 4.54765 8.7127 4.95397 8.10793C5.36028 7.50316 5.93824 7.03378 6.61351 6.76018L13.2788 4.03165C15.0222 3.31432 16.9782 3.31432 18.7215 4.03165ZM22.8668 22.571C24.6128 20.3922 25.5963 17.7011 25.6668 14.9099V10.1538C25.6677 9.82265 25.5695 9.49882 25.3848 9.22398C25.2001 8.94913 24.9374 8.73583 24.6304 8.61152L17.9638 5.88298C16.7062 5.36391 15.2942 5.36391 14.0366 5.88298L7.36991 8.61152C7.06288 8.73568 6.80008 8.94894 6.61536 9.22382C6.43064 9.4987 6.33247 9.8226 6.33351 10.1538V14.9103C6.40399 17.7015 7.38754 20.3925 9.13348 22.5713C10.8794 24.7501 13.2915 26.2965 16.0002 26.9735C18.7089 26.2963 21.1209 24.7499 22.8668 22.571ZM19.814 13.7606C19.5706 14.5593 19.0827 15.2615 18.419 15.7681C19.4752 16.2182 20.3842 16.9552 21.0428 17.8956C21.7014 18.8361 22.0832 19.9422 22.145 21.0887C22.1531 21.2611 22.1262 21.4333 22.0659 21.595C22.0056 21.7567 21.9132 21.9045 21.7941 22.0295C21.6751 22.1545 21.532 22.2541 21.3734 22.3222C21.2148 22.3903 21.0441 22.4256 20.8715 22.4259H11.1267C10.9539 22.4256 10.783 22.3902 10.6242 22.322C10.4655 22.2537 10.3222 22.1539 10.2032 22.0286C10.0841 21.9034 9.99171 21.7553 9.93157 21.5933C9.87142 21.4313 9.84478 21.2587 9.85326 21.0861C9.91867 19.9407 10.3033 18.8364 10.9638 17.8983C11.6242 16.9601 12.5341 16.2255 13.5903 15.7776C12.9247 15.2735 12.434 14.5733 12.1874 13.7756C11.9408 12.9779 11.9508 12.1229 12.2159 11.3311C12.481 10.5394 12.9879 9.85074 13.6651 9.36231C14.3423 8.87389 15.1557 8.61029 15.9906 8.60865C16.8256 8.60701 17.64 8.86743 18.3191 9.35319C18.9982 9.83895 19.5078 10.5256 19.776 11.3163C20.0442 12.107 20.0575 12.962 19.814 13.7606ZM17.1043 10.9652C16.7772 10.7465 16.3926 10.6298 15.9991 10.6297C15.4717 10.6302 14.966 10.8399 14.593 11.2128C14.22 11.5856 14.0102 12.0913 14.0095 12.6187C14.0095 13.0121 14.126 13.3968 14.3446 13.724C14.5631 14.0512 14.8738 14.3062 15.2372 14.4568C15.6007 14.6075 16.0007 14.6469 16.3866 14.5703C16.7725 14.4936 17.127 14.3042 17.4053 14.026C17.6836 13.7478 17.8731 13.3934 17.9499 13.0075C18.0267 12.6216 17.9874 12.2216 17.8369 11.8581C17.6864 11.4945 17.4314 11.1838 17.1043 10.9652ZM13.4394 18.1532C12.7083 18.725 12.1896 19.5251 11.9659 20.4259H20.0343C19.8107 19.5251 19.292 18.725 18.5609 18.1532C17.8298 17.5814 16.9283 17.2708 16.0001 17.2708C15.072 17.2708 14.1705 17.5814 13.4394 18.1532Z" fill="url(#paint0_linear_343_1392)"/>
<defs>
<linearGradient id="paint0_linear_343_1392" x1="16.0002" y1="3.49365" x2="16.0002" y2="29.0002" gradientUnits="userSpaceOnUse">
<stop stop-color="#A1873D"/>
<stop offset="1" stop-color="#513926"/>
</linearGradient>
</defs>
</svg>
