<svg width="24" height="24" viewBox="0 0 24 24" fill="none" xmlns="http://www.w3.org/2000/svg">
<path fill-rule="evenodd" clip-rule="evenodd" d="M14.1 2.42251L19.257 4.56951C20.316 5.01051 21 6.04451 21 7.20451V10.9475C21 16.0875 17.203 20.8315 12.167 21.9835C12.112 21.9965 12.056 22.0025 12 22.0025C11.944 22.0025 11.888 21.9965 11.833 21.9835C6.797 20.8315 3 16.0875 3 10.9475V7.20451C3 6.04451 3.685 5.01051 4.744 4.56951L9.9 2.42251C11.254 1.85851 12.746 1.85851 14.1 2.42251ZM12 3.50051C11.484 3.50051 10.968 3.60251 10.477 3.80751L5.32 5.95451C4.822 6.16151 4.5 6.65251 4.5 7.20451V10.9475C4.5 15.3485 7.712 19.4155 12 20.4805C16.287 19.4155 19.5 15.3485 19.5 10.9475V7.20451C19.5 6.65251 19.178 6.16151 18.681 5.95451L13.523 3.80751C13.032 3.60251 12.516 3.50051 12 3.50051ZM15.8774 9.30401C16.1724 9.59401 16.1764 10.069 15.8864 10.364L12.0194 14.3C11.9066 14.4152 11.7605 14.4901 11.6037 14.5154L11.4844 14.525C11.2834 14.525 11.0904 14.444 10.9494 14.3L8.6294 11.939C8.3384 11.643 8.3424 11.169 8.6384 10.878C8.9344 10.588 9.4094 10.591 9.6994 10.888L11.4844 12.705L14.8164 9.31401C15.1074 9.01701 15.5834 9.01301 15.8774 9.30401Z" fill="#007A47"/>
</svg>
