<svg width="32" height="32" viewBox="0 0 45 45" fill="none" xmlns="http://www.w3.org/2000/svg">
<path fill-rule="evenodd" clip-rule="evenodd" d="M26.4565 3.45264C27.2297 3.45264 27.8565 4.07944 27.8565 4.85264V5.69141H32.43C33.3082 5.69141 34.1488 5.99023 34.7733 6.61479C35.3979 7.23935 35.6967 8.07993 35.6967 8.95807V13.1576H37.6564C38.5346 13.1576 39.3751 13.4564 39.9997 14.081C40.6243 14.7056 40.9231 15.5461 40.9231 16.4243V37.8909C40.9231 38.7691 40.6243 39.6097 39.9997 40.2342C39.3751 40.8588 38.5346 41.1576 37.6564 41.1576H14.1364C13.2583 41.1576 12.4177 40.8588 11.7931 40.2342C11.1686 39.6097 10.8698 38.7691 10.8698 37.8909V35.5581H7.23003C5.02878 35.5581 3.34067 33.3723 4.03521 31.2887L4.94091 28.5716C5.67361 24.8966 6.20336 21.4848 6.20336 18.1047V8.95807C6.20336 8.07993 6.50219 7.23935 7.12675 6.61479C7.75131 5.99023 8.59188 5.69141 9.47003 5.69141H13.6698V4.85264C13.6698 4.07944 14.2966 3.45264 15.0698 3.45264C15.8429 3.45264 16.4698 4.07944 16.4698 4.85264V5.69141H25.0565V4.85264C25.0565 4.07944 25.6833 3.45264 26.4565 3.45264ZM13.6698 8.49141V8.9593C13.6698 9.7325 14.2966 10.3593 15.0698 10.3593C15.8429 10.3593 16.4698 9.7325 16.4698 8.9593V8.49141H25.0565V8.9593C25.0565 9.7325 25.6833 10.3593 26.4565 10.3593C27.2297 10.3593 27.8565 9.7325 27.8565 8.9593V8.49141H32.43C32.6719 8.49141 32.7646 8.56591 32.7934 8.59469C32.8222 8.62346 32.8967 8.71622 32.8967 8.95807V26.3181C32.8967 29.8382 29.9768 32.7581 26.4567 32.7581H7.23003C7.06173 32.7581 6.90011 32.676 6.7867 32.5247C6.66727 32.3655 6.67237 32.2316 6.69152 32.1741L7.62485 29.3741C7.64321 29.3191 7.65813 29.2629 7.66951 29.206C8.42134 25.4468 9.00336 21.7919 9.00336 18.1047V8.95807C9.00336 8.71622 9.07787 8.62346 9.10665 8.59469C9.13542 8.56591 9.22818 8.49141 9.47003 8.49141H13.6698ZM35.6967 15.9576V26.3181C35.6967 31.3846 31.5232 35.5581 26.4567 35.5581H13.6698V37.8909C13.6698 38.1328 13.7443 38.2256 13.773 38.2543C13.8018 38.2831 13.8946 38.3576 14.1364 38.3576H37.6564C37.8983 38.3576 37.991 38.2831 38.0198 38.2543C38.0486 38.2256 38.1231 38.1328 38.1231 37.8909V16.4243C38.1231 16.1824 38.0486 16.0897 38.0198 16.0609C37.991 16.0321 37.8983 15.9576 37.6564 15.9576H35.6967ZM13.2969 16.6139C13.2969 15.8407 13.9237 15.2139 14.6969 15.2139H26.2703C27.0435 15.2139 27.6703 15.8407 27.6703 16.6139C27.6703 17.3871 27.0435 18.0139 26.2703 18.0139H14.6969C13.9237 18.0139 13.2969 17.3871 13.2969 16.6139ZM14.6969 22.8667C13.9237 22.8667 13.2969 23.4935 13.2969 24.2667C13.2969 25.0399 13.9237 25.6667 14.6969 25.6667H26.2703C27.0435 25.6667 27.6703 25.0399 27.6703 24.2667C27.6703 23.4935 27.0435 22.8667 26.2703 22.8667H14.6969Z" fill="black"/>
</svg>
