<svg width="24" height="24" viewBox="0 0 24 24" fill="none" xmlns="http://www.w3.org/2000/svg">
<path d="M2.80244 6.74844L21.1976 6.74973C21.5976 6.74973 21.9976 6.44973 21.9976 5.94973C21.9976 5.44973 21.6976 5.14973 21.1976 5.14973L2.80244 5.14844C2.30244 5.24844 2.00244 5.64844 2.00244 6.04844C2.00244 6.44844 2.30244 6.74844 2.80244 6.74844ZM21.1976 11.2497L2.80244 11.2484C2.30244 11.2484 2.00244 11.6484 2.00244 12.0484C2.00244 12.4484 2.30244 12.7484 2.80244 12.7484L21.1976 12.7497C21.5976 12.7497 21.9976 12.4497 21.9976 11.9497C21.9976 11.4497 21.5976 11.2497 21.1976 11.2497ZM21.1976 17.2497L2.80244 17.2484C2.40244 17.2484 2.00244 17.5484 2.00244 18.0484C2.00244 18.5484 2.30244 18.8484 2.80244 18.8484L21.1976 18.8497C21.5976 18.8497 21.9976 18.5497 21.9976 18.0497C21.9976 17.5497 21.5976 17.2497 21.1976 17.2497Z" fill="black"/>
</svg>
