<svg width="32" height="32" viewBox="0 0 32 32" fill="none" xmlns="http://www.w3.org/2000/svg">
<path fill-rule="evenodd" clip-rule="evenodd" d="M6.33331 13.2172C6.33331 9.42454 9.44072 6.33334 13.2945 6.33334C17.1483 6.33334 20.2557 9.42454 20.2557 13.2172C20.2557 15.1182 19.4751 16.8429 18.2111 18.0905C18.196 18.1038 18.1812 18.1177 18.1668 18.1321C18.1579 18.1409 18.1492 18.1499 18.1407 18.159C16.8889 19.3602 15.1811 20.1011 13.2945 20.1011C9.44072 20.1011 6.33331 17.0099 6.33331 13.2172ZM18.8235 20.2088C17.2994 21.3947 15.3787 22.1011 13.2945 22.1011C8.3546 22.1011 4.33331 18.1328 4.33331 13.2172C4.33331 8.30161 8.3546 4.33334 13.2945 4.33334C18.2344 4.33334 22.2557 8.30161 22.2557 13.2172C22.2557 15.3401 21.5057 17.2863 20.2556 18.8125L27.3742 25.961C27.7639 26.3524 27.7625 26.9856 27.3712 27.3753C26.9799 27.765 26.3467 27.7636 25.957 27.3723L18.8235 20.2088Z" fill="#6F6F6F"/>
</svg>
