<svg width="45" height="45" viewBox="0 0 45 45" fill="none" xmlns="http://www.w3.org/2000/svg">
<path d="M40.3385 9.39538C39.9672 9.39538 39.6111 9.54288 39.3485 9.80543C39.086 10.068 38.9385 10.4241 38.9385 10.7954V17.198C38.4898 17.2613 38.0508 17.3805 37.6318 17.5527C37.0165 17.8154 36.4585 18.1959 35.9891 18.6727C35.525 19.159 35.1576 19.7291 34.9065 20.3527C34.6748 20.9479 34.5545 21.5807 34.5518 22.2194C34.5419 23.5382 35.0438 24.8095 35.9518 25.766C36.7164 26.5875 37.7359 27.1268 38.8451 27.2967V34.4647C38.8451 34.5885 38.796 34.7072 38.7084 34.7947C38.6209 34.8822 38.5022 34.9314 38.3785 34.9314H6.27179C6.14803 34.9314 6.02933 34.8822 5.94181 34.7947C5.85429 34.7072 5.80513 34.5885 5.80513 34.4647V27.4834C6.22759 27.441 6.64217 27.3405 7.03713 27.1847C7.62731 26.9415 8.16107 26.5793 8.60513 26.1207C9.07293 25.6693 9.44717 25.1302 9.70646 24.534C9.9616 23.9439 10.101 23.3102 10.1171 22.6674C10.1566 21.3281 9.6671 20.0271 8.75446 19.046C8.00501 18.2182 6.99924 17.666 5.89846 17.478V10.3847C5.89846 10.2609 5.94763 10.1422 6.03514 10.0547C6.12266 9.96721 6.24136 9.91805 6.36513 9.91805H18.1811C18.5524 9.91805 18.9085 9.77055 19.1711 9.508C19.4336 9.24545 19.5811 8.88935 19.5811 8.51805C19.5811 8.14674 19.4336 7.79065 19.1711 7.5281C18.9085 7.26555 18.5524 7.11805 18.1811 7.11805H6.36513C5.50026 7.12295 4.67222 7.46869 4.06066 8.08025C3.4491 8.69181 3.10336 9.51985 3.09846 10.3847V18.038C3.09846 18.3264 3.15556 18.6119 3.26646 18.878C3.36546 19.1472 3.52515 19.3899 3.73313 19.5874C3.93058 19.7954 4.17331 19.955 4.44246 20.054C4.68143 20.1676 4.94321 20.2251 5.20779 20.222C5.79418 20.2529 6.34451 20.5146 6.73846 20.95C7.15138 21.3956 7.37263 21.9855 7.35446 22.5927C7.35021 22.8765 7.28662 23.1563 7.16779 23.414C7.06356 23.6751 6.9044 23.9106 6.70113 24.1047C6.49689 24.3044 6.25604 24.4629 5.99179 24.5714C5.7294 24.669 5.4502 24.7134 5.17046 24.702C4.87726 24.6956 4.58561 24.7463 4.31179 24.8514C4.06415 24.9602 3.8417 25.1191 3.65846 25.318C3.45219 25.5136 3.28716 25.7484 3.17313 26.0087C3.06223 26.2749 3.00513 26.5604 3.00513 26.8487V34.4647C3.00513 35.3311 3.34929 36.162 3.96191 36.7746C4.57453 37.3872 5.40542 37.7314 6.27179 37.7314H38.4718C39.3382 37.7314 40.1691 37.3872 40.7817 36.7746C41.3943 36.162 41.7385 35.3311 41.7385 34.4647V26.8114C41.7469 26.518 41.6961 26.226 41.5891 25.9527C41.4633 25.7108 41.2922 25.4954 41.0851 25.318C40.8799 25.0793 40.6251 24.8882 40.3385 24.758C40.1012 24.6617 39.8479 24.6111 39.5918 24.6087C38.9894 24.575 38.4234 24.3093 38.0127 23.8673C37.602 23.4252 37.3785 22.8413 37.3891 22.238C37.3891 21.9437 37.4462 21.6521 37.5571 21.3794C37.6606 21.0971 37.8266 20.8419 38.0425 20.6327C38.2496 20.4231 38.4973 20.2579 38.7705 20.1474C39.0377 20.0177 39.3321 19.9537 39.6291 19.9607C40.2029 19.9584 40.7528 19.7305 41.1598 19.326C41.5493 18.9318 41.776 18.4053 41.7945 17.8514V10.7954C41.7973 10.606 41.7611 10.418 41.6882 10.2431C41.6153 10.0683 41.5073 9.91028 41.3707 9.77898C41.2341 9.64767 41.072 9.54586 40.8945 9.47987C40.7169 9.41388 40.5276 9.38512 40.3385 9.39538ZM31.0051 29.686C31.3764 29.686 31.7325 29.8335 31.9951 30.0961C32.2576 30.3586 32.4051 30.7147 32.4051 31.086C32.4051 31.4574 32.2576 31.8134 31.9951 32.076C31.7325 32.3385 31.3764 32.486 31.0051 32.486H13.8131C13.4418 32.486 13.0857 32.3385 12.8232 32.076C12.5606 31.8134 12.4131 31.4574 12.4131 31.086C12.4131 30.7147 12.5606 30.3586 12.8232 30.0961C13.0857 29.8335 13.4418 29.686 13.8131 29.686H31.0051ZM13.0291 22.7794L12.6185 25.7287C12.5352 26.1163 12.5352 26.5171 12.6185 26.9047C12.73 27.2773 12.9211 27.6212 13.1785 27.9127C13.4379 28.2104 13.7555 28.4518 14.1118 28.622C14.4687 28.7863 14.8576 28.8692 15.2505 28.8647H15.5865L18.3865 28.5287C19.4149 28.4004 20.3693 27.9265 21.0931 27.1847L35.2051 13.054C35.8698 12.371 36.3195 11.508 36.4986 10.5719C36.6777 9.63581 36.5783 8.66775 36.2127 7.78758C35.8471 6.90742 35.2314 6.15381 34.4418 5.62006C33.6523 5.08632 32.7235 4.79588 31.7705 4.78471C31.1325 4.78192 30.5004 4.90589 29.9108 5.14942C29.3212 5.39296 28.7858 5.75122 28.3358 6.20338L14.3171 20.222C13.6262 20.9154 13.1749 21.8114 13.0291 22.7794V22.7794ZM30.0718 7.84605C30.5254 7.40142 31.1353 7.15237 31.7705 7.15237C32.4056 7.15237 33.0155 7.40142 33.4691 7.84605C33.9206 8.30399 34.1752 8.9203 34.1785 9.56338C34.1816 9.87982 34.1203 10.1936 33.9984 10.4856C33.8764 10.7776 33.6964 11.0418 33.4691 11.262L32.0318 12.6994L28.6158 9.39538L30.0718 7.84605ZM15.4745 23.1154C15.54 22.6741 15.7501 22.2671 16.0718 21.958L26.8985 11.1314L30.3145 14.5287L19.3571 25.486C19.0308 25.8014 18.6122 26.0041 18.1625 26.0647L15.3625 26.4194H15.2318H15.1198C15.1198 26.4194 15.1198 26.4194 15.1198 26.3074C15.1107 26.2643 15.1107 26.2198 15.1198 26.1767L15.4745 23.1154Z" fill="url(#paint0_linear_81_14308)"/>
<defs>
<linearGradient id="paint0_linear_81_14308" x1="3.00513" y1="25.1135" x2="42.6898" y2="25.1135" gradientUnits="userSpaceOnUse">
<stop stop-color="#96BF01"/>
<stop offset="1" stop-color="#0E5A2B"/>
</linearGradient>
</defs>
</svg>
