<svg width="24" height="24" viewBox="0 0 24 24" fill="none" xmlns="http://www.w3.org/2000/svg">
<path fill-rule="evenodd" clip-rule="evenodd" d="M18.0739 6.98614C18.3668 6.69325 18.3668 6.21837 18.0739 5.92548C17.781 5.63259 17.3062 5.63259 17.0133 5.92548L12 10.9387L6.98956 5.92332C6.69685 5.63024 6.22197 5.62995 5.9289 5.92266C5.63583 6.21538 5.63553 6.69025 5.92825 6.98332L10.9393 11.9994L5.92598 17.0128C5.63308 17.3057 5.63308 17.7805 5.92598 18.0734C6.21887 18.3663 6.69374 18.3663 6.98664 18.0734L11.9995 13.0606L17.01 18.0761C17.3027 18.3692 17.7776 18.3695 18.0707 18.0768C18.3637 17.7841 18.364 17.3092 18.0713 17.0161L13.0601 11.9999L18.0739 6.98614Z" fill="black"/>
</svg>
