<svg width="24" height="24" viewBox="0 0 24 24" fill="none" xmlns="http://www.w3.org/2000/svg">
<path d="M19.24 9.26979C19.24 7.34962 18.4772 5.5081 17.1195 4.15033C15.7617 2.79257 13.9202 2.02979 12 2.02979C10.0798 2.02979 8.23831 2.79257 6.88055 4.15033C5.52278 5.5081 4.76 7.34962 4.76 9.26979C4.07731 9.33186 3.44214 9.64578 2.97817 10.1504C2.5142 10.6551 2.25463 11.3143 2.25 11.9998V14.9998C2.25 15.7291 2.53973 16.4286 3.05546 16.9443C3.57118 17.4601 4.27065 17.7498 5 17.7498H6C6.46332 17.7472 6.90691 17.5619 7.23454 17.2343C7.56216 16.9067 7.74737 16.4631 7.75 15.9998V10.9998C7.74953 10.582 7.59873 10.1783 7.32515 9.86244C7.05157 9.54664 6.67349 9.33982 6.26 9.27979C6.26 7.75744 6.86475 6.29745 7.94121 5.22099C9.01767 4.14453 10.4777 3.53979 12 3.53979C13.5223 3.53979 14.9823 4.14453 16.0588 5.22099C17.1353 6.29745 17.74 7.75744 17.74 9.27979C17.3265 9.33982 16.9484 9.54664 16.6748 9.86244C16.4013 10.1783 16.2505 10.582 16.25 10.9998V15.9998C16.2497 16.3296 16.3437 16.6526 16.5208 16.9307C16.698 17.2089 16.951 17.4306 17.25 17.5698V17.9998C17.25 18.3313 17.1183 18.6492 16.8839 18.8837C16.6495 19.1181 16.3315 19.2498 16 19.2498H14.48C14.3302 18.8795 14.073 18.5626 13.7415 18.3398C13.41 18.117 13.0194 17.9986 12.62 17.9998H11.38C10.8496 17.9998 10.3409 18.2105 9.96579 18.5856C9.59071 18.9606 9.38 19.4694 9.38 19.9998C9.38 20.5302 9.59071 21.0389 9.96579 21.414C10.3409 21.7891 10.8496 21.9998 11.38 21.9998H12.62C13.0194 22.001 13.41 21.8825 13.7415 21.6598C14.073 21.437 14.3302 21.12 14.48 20.7498H16C16.7293 20.7498 17.4288 20.4601 17.9445 19.9443C18.4603 19.4286 18.75 18.7291 18.75 17.9998V17.7498H19C19.7293 17.7498 20.4288 17.4601 20.9445 16.9443C21.4603 16.4286 21.75 15.7291 21.75 14.9998V11.9998C21.7454 11.3143 21.4858 10.6551 21.0218 10.1504C20.5579 9.64578 19.9227 9.33186 19.24 9.26979V9.26979ZM6.25 15.9998C6.25 16.0661 6.22366 16.1297 6.17678 16.1766C6.12989 16.2234 6.0663 16.2498 6 16.2498H5C4.66848 16.2498 4.35054 16.1181 4.11612 15.8837C3.8817 15.6492 3.75 15.3313 3.75 14.9998V11.9998C3.75 11.6683 3.8817 11.3503 4.11612 11.1159C4.35054 10.8815 4.66848 10.7498 5 10.7498H6C6.0663 10.7498 6.12989 10.7761 6.17678 10.823C6.22366 10.8699 6.25 10.9335 6.25 10.9998V15.9998ZM12.62 20.4998H11.38C11.2474 20.4998 11.1202 20.4471 11.0264 20.3533C10.9327 20.2596 10.88 20.1324 10.88 19.9998C10.88 19.8672 10.9327 19.74 11.0264 19.6462C11.1202 19.5525 11.2474 19.4998 11.38 19.4998H12.62C12.7526 19.4998 12.8798 19.5525 12.9736 19.6462C13.0673 19.74 13.12 19.8672 13.12 19.9998C13.12 20.1324 13.0673 20.2596 12.9736 20.3533C12.8798 20.4471 12.7526 20.4998 12.62 20.4998ZM20.25 14.9998C20.25 15.3313 20.1183 15.6492 19.8839 15.8837C19.6495 16.1181 19.3315 16.2498 19 16.2498H18C17.9337 16.2498 17.8701 16.2234 17.8232 16.1766C17.7763 16.1297 17.75 16.0661 17.75 15.9998V10.9998C17.75 10.9335 17.7763 10.8699 17.8232 10.823C17.8701 10.7761 17.9337 10.7498 18 10.7498H19C19.3315 10.7498 19.6495 10.8815 19.8839 11.1159C20.1183 11.3503 20.25 11.6683 20.25 11.9998V14.9998Z" fill="black"/>
</svg>
