<svg width="45" height="45" viewBox="0 0 45 45" fill="none" xmlns="http://www.w3.org/2000/svg">
<path fill-rule="evenodd" clip-rule="evenodd" d="M26.32 4.52251L35.9464 8.53024C37.9232 9.35344 39.2 11.2836 39.2 13.4489V20.4358C39.2 30.0305 32.1122 38.886 22.7117 41.0364C22.609 41.0606 22.5045 41.0718 22.4 41.0718C22.2954 41.0718 22.1909 41.0606 22.0882 41.0364C12.6877 38.886 5.59998 30.0305 5.59998 20.4358V13.4489C5.59998 11.2836 6.87864 9.35344 8.85544 8.53024L18.48 4.52251C21.0074 3.46971 23.7925 3.46971 26.32 4.52251ZM22.4 6.53478C21.4368 6.53478 20.4736 6.72518 19.557 7.10784L9.93064 11.1156C9.00104 11.502 8.39998 12.4185 8.39998 13.4489V20.4358C8.39998 28.651 14.3957 36.2428 22.4 38.2308C30.4024 36.2428 36.4 28.651 36.4 20.4358V13.4489C36.4 12.4185 35.7989 11.502 34.8712 11.1156L25.2429 7.10784C24.3264 6.72518 23.3632 6.53478 22.4 6.53478ZM29.6378 17.368C30.1885 17.9093 30.1959 18.796 29.6546 19.3466L22.4362 26.6938C22.2256 26.9089 21.9529 27.0487 21.6602 27.096L21.4375 27.1138C21.0623 27.1138 20.7021 26.9626 20.4389 26.6938L16.1082 22.2866C15.565 21.7341 15.5725 20.8493 16.125 20.3061C16.6775 19.7648 17.5642 19.7704 18.1055 20.3248L21.4375 23.7165L27.6573 17.3866C28.2005 16.8322 29.089 16.8248 29.6378 17.368Z" fill="black"/>
</svg>
