<svg width="36" height="32" viewBox="0 0 36 32" fill="none" xmlns="http://www.w3.org/2000/svg">
<g opacity="0.3">
<path opacity="0.3" d="M23.6227 6.56667C22.8934 6.56596 22.1941 6.27593 21.6784 5.76024C21.1627 5.24454 20.8727 4.5453 20.872 3.816V0H8.58799C7.63639 0 6.72376 0.378015 6.05088 1.0509C5.378 1.72378 5 2.63639 5 3.58799V25.212C5 25.6832 5.0928 26.1497 5.27311 26.5851C5.45343 27.0204 5.7177 27.4159 6.05088 27.7491C6.38406 28.0823 6.77959 28.3466 7.21491 28.5269C7.65023 28.7072 8.11681 28.8 8.58799 28.8H23.3347C24.2863 28.8 25.1989 28.422 25.8717 27.7491C26.5446 27.0762 26.9227 26.1636 26.9227 25.212V6.56667H23.6227Z" fill="#00C650"/>
</g>
<path d="M26.9227 6.56667H23.6227C22.8934 6.56596 22.1942 6.27593 21.6785 5.76024C21.1628 5.24454 20.8728 4.5453 20.8721 3.816V0L26.9227 6.56667Z" fill="#00C650"/>
<path d="M29.5253 22.7466H12.8533C11.6706 22.7466 10.7119 23.7053 10.7119 24.8879V29.8586C10.7119 31.0412 11.6706 31.9999 12.8533 31.9999H29.5253C30.7079 31.9999 31.6666 31.0412 31.6666 29.8586V24.8879C31.6666 23.7053 30.7079 22.7466 29.5253 22.7466Z" fill="#00C650"/>
<path d="M16.2296 28.4507V29.42H15.2256V28.4507H16.2296Z" fill="white"/>
<path d="M19.207 25.4105V28.1452C19.207 28.5656 19.0928 28.8887 18.8644 29.1145C18.7371 29.2325 18.5873 29.3236 18.4239 29.3823C18.2605 29.4409 18.087 29.4659 17.9137 29.4558C17.7239 29.4659 17.5341 29.4382 17.3551 29.3744C17.1761 29.3105 17.0116 29.2118 16.8711 29.0839C16.6133 28.8359 16.4844 28.4803 16.4844 28.0172H17.443C17.443 28.3914 17.5848 28.5785 17.8684 28.5785C18.1137 28.5785 18.2377 28.4359 18.2377 28.1479V25.4092L19.207 25.4105Z" fill="white"/>
<path d="M20.817 28.0118V29.4185H19.8477V25.4092H21.4223C21.8983 25.4092 22.261 25.5265 22.5103 25.7639C22.6366 25.8876 22.7352 26.0366 22.7998 26.2011C22.8643 26.3656 22.8934 26.542 22.885 26.7185C22.8886 26.9515 22.8312 27.1813 22.7183 27.3852C22.6018 27.5844 22.4287 27.7445 22.221 27.8452C21.9712 27.9629 21.6971 28.02 21.421 28.0118H20.817ZM21.8943 26.7185C21.8943 26.3683 21.6997 26.1905 21.3103 26.1852H20.817V27.2278H21.3103C21.6997 27.2332 21.8943 27.0639 21.8943 26.7199V26.7185Z" fill="white"/>
<path d="M26.4775 25.7454C26.7999 25.9885 27.017 26.3459 27.0841 26.7441H26.0575C25.9905 26.601 25.8817 26.4815 25.7455 26.4014C25.5467 26.2927 25.318 26.2516 25.0938 26.2843C24.8697 26.317 24.6622 26.4218 24.5028 26.5827C24.3078 26.8162 24.2086 27.115 24.2255 27.4187C24.2255 27.8014 24.3228 28.0934 24.5175 28.2974C24.6268 28.4038 24.7572 28.4861 24.9003 28.5389C25.0434 28.5918 25.1959 28.6139 25.3481 28.604C25.5663 28.608 25.7798 28.5406 25.9562 28.4121C26.1361 28.2772 26.2661 28.0863 26.3255 27.8694H25.1002V27.172H27.1362V28.1307C27.0579 28.3692 26.9347 28.5904 26.7735 28.7827C26.5985 28.9898 26.3806 29.1564 26.1348 29.2707C25.8573 29.3996 25.5541 29.4635 25.2481 29.4574C24.8761 29.4671 24.5081 29.3784 24.1815 29.2001C23.883 29.0322 23.6398 28.7811 23.4815 28.4774C23.3189 28.1474 23.2344 27.7845 23.2344 27.4167C23.2344 27.0489 23.3189 26.686 23.4815 26.3561C23.6392 26.0528 23.8814 25.8018 24.1788 25.6334C24.5005 25.4559 24.8635 25.3666 25.2308 25.3747C25.676 25.3565 26.1145 25.4869 26.4775 25.7454V25.7454Z" fill="white"/>
<path d="M18.9063 19.5215H13.0223C12.4458 19.5208 11.8931 19.2915 11.4854 18.8838C11.0777 18.4761 10.8484 17.9234 10.8477 17.3468V11.4575C10.8484 10.8811 11.0778 10.3285 11.4855 9.92104C11.8932 9.51358 12.4459 9.28453 13.0223 9.28418H18.9117C19.4878 9.28489 20.0402 9.51407 20.4477 9.9215C20.8551 10.3289 21.0843 10.8813 21.085 11.4575V17.3455C21.085 17.6315 21.0286 17.9147 20.9191 18.1788C20.8096 18.443 20.6491 18.683 20.4467 18.8851C20.2444 19.0872 20.0042 19.2474 19.7399 19.3566C19.4756 19.4658 19.1923 19.5219 18.9063 19.5215V19.5215ZM13.0223 10.2455C12.7009 10.2459 12.3927 10.3736 12.1652 10.6008C11.9378 10.828 11.8097 11.136 11.809 11.4575V17.3455C11.8093 17.6672 11.9373 17.9756 12.1648 18.2031C12.3922 18.4305 12.7006 18.5585 13.0223 18.5588H18.9117C19.2331 18.5581 19.5412 18.43 19.7684 18.2026C19.9955 17.9752 20.1233 17.667 20.1237 17.3455V11.4562C20.1233 11.1348 19.9955 10.8268 19.7683 10.5995C19.5411 10.3723 19.233 10.2445 18.9117 10.2442L13.0223 10.2455Z" fill="#00C650"/>
<path d="M20.6001 16.2265V17.3465C20.6001 17.7956 20.4217 18.2263 20.1042 18.5438C19.7866 18.8614 19.3559 19.0398 18.9068 19.0398H13.0228C12.8003 19.04 12.58 18.9963 12.3744 18.9113C12.1688 18.8263 11.9819 18.7016 11.8245 18.5443C11.6672 18.387 11.5423 18.2003 11.4571 17.9948C11.3719 17.7893 11.3281 17.569 11.3281 17.3465V15.4691C12.2721 15.2665 13.7081 15.2025 15.4508 15.8998L16.5308 14.8691L17.2668 16.7358C17.2668 16.7358 17.4641 16.0491 18.1015 16.1465C18.7388 16.2438 19.7708 16.5891 20.2121 16.2945C20.3292 16.2262 20.4668 16.2021 20.6001 16.2265V16.2265Z" fill="#00C650"/>
<path d="M18.5375 12.6599C18.899 12.6599 19.1922 12.3668 19.1922 12.0052C19.1922 11.6437 18.899 11.3506 18.5375 11.3506C18.1759 11.3506 17.8828 11.6437 17.8828 12.0052C17.8828 12.3668 18.1759 12.6599 18.5375 12.6599Z" fill="#00C650"/>
</svg>
