<svg width="274" height="288" viewBox="0 0 274 288" fill="none" xmlns="http://www.w3.org/2000/svg">
<g filter="url(#filter0_dii_350_10545)">
<path d="M110.916 46.0166C123.794 38.581 139.662 38.581 152.541 46.0166L213.509 81.2168C226.388 88.6524 234.322 102.394 234.322 117.265V187.666C234.322 202.537 226.388 216.278 213.509 223.714L152.541 258.914C139.662 266.35 123.794 266.35 110.916 258.914L49.947 223.714C37.0682 216.278 29.1345 202.537 29.1345 187.666V117.265C29.1345 102.394 37.0682 88.6524 49.947 81.2168L110.916 46.0166Z" fill="#CD8939"/>
<path d="M152.054 46.8598L213.022 82.0601C225.6 89.3217 233.348 102.742 233.348 117.265V187.666C233.348 202.189 225.6 215.609 213.022 222.871L152.054 258.071C139.476 265.333 123.98 265.333 111.402 258.071L50.4338 222.871C37.8563 215.609 30.1082 202.189 30.1082 187.666V117.265C30.1082 102.742 37.8563 89.3217 50.4338 82.0601L111.402 46.8598C123.98 39.5982 139.476 39.5982 152.054 46.8598Z" stroke="url(#paint0_linear_350_10545)" stroke-width="1.94737"/>
</g>
<g filter="url(#filter1_i_350_10545)">
<circle cx="218.5" cy="14.5" r="14.5" fill="#F1C656"/>
</g>
<g filter="url(#filter2_i_350_10545)">
<circle cx="29" cy="53" r="11" fill="#FFD88D"/>
</g>
<g filter="url(#filter3_i_350_10545)">
<ellipse cx="267" cy="167.5" rx="7" ry="7.5" fill="#FFE6A7"/>
</g>
<g filter="url(#filter4_i_350_10545)">
<ellipse cx="14" cy="103.5" rx="4" ry="4.5" fill="#FFA553"/>
</g>
<path d="M154.326 45.5605L214.451 80.2739C227.029 87.5356 234.777 100.956 234.777 115.479V184.906C234.777 199.429 227.029 212.849 214.451 220.111L154.326 254.824C141.748 262.086 126.252 262.086 113.674 254.824L53.549 220.111C40.9714 212.849 33.2233 199.429 33.2233 184.906V115.479C33.2233 100.956 40.9714 87.5356 53.549 80.2739L113.674 45.5605C126.252 38.2989 141.748 38.2989 154.326 45.5605Z" fill="#FCFCFC" stroke="url(#paint1_linear_350_10545)" stroke-width="1.94737"/>
<path d="M154.326 45.5605L214.451 80.2739C227.029 87.5356 234.777 100.956 234.777 115.479V184.906C234.777 199.429 227.029 212.849 214.451 220.111L154.326 254.824C141.748 262.086 126.252 262.086 113.674 254.824L53.549 220.111C40.9714 212.849 33.2233 199.429 33.2233 184.906V115.479C33.2233 100.956 40.9714 87.5356 53.549 80.2739L113.674 45.5605C126.252 38.2989 141.748 38.2989 154.326 45.5605Z" fill="url(#paint2_radial_350_10545)" stroke="url(#paint3_linear_350_10545)" stroke-width="1.94737"/>
<path fill-rule="evenodd" clip-rule="evenodd" d="M54.0001 174.362H89.0474V16L56.2164 47.2311C54.7972 48.5808 54.0001 50.412 54.0001 52.321V174.362ZM76.7011 82.0931L65.3506 87.5897V71.8845L76.7011 66.3879V82.0931ZM76.7011 115.86L65.3506 121.356V105.651L76.7011 100.155V115.86ZM65.3506 152.767L76.7011 147.271V131.565L65.3506 137.062V152.767Z" fill="url(#paint4_linear_350_10545)"/>
<g filter="url(#filter5_i_350_10545)">
<path fill-rule="evenodd" clip-rule="evenodd" d="M53.5377 177.03H88.585V9.58203L55.754 42.6051C54.3348 44.0322 53.5377 45.9685 53.5377 47.9871V177.03ZM76.2386 79.4673L64.8881 85.2793V68.673L76.2386 62.861V79.4673ZM76.2386 115.172L64.8881 120.983V104.377L76.2386 98.5652V115.172ZM64.8881 154.196L76.2386 148.384V131.778L64.8881 137.59V154.196Z" fill="url(#paint5_linear_350_10545)"/>
</g>
<path d="M214.497 177.03H189.834V116.021L210.22 125.807C212.816 127.053 214.497 129.888 214.497 133.022V177.03Z" fill="url(#paint6_linear_350_10545)"/>
<path d="M220.986 177.031H193.727V117.321L216.259 126.898C219.129 128.117 220.986 130.892 220.986 133.96V177.031Z" fill="url(#paint7_linear_350_10545)"/>
<g filter="url(#filter6_i_350_10545)">
<path fill-rule="evenodd" clip-rule="evenodd" d="M180.752 54.463L182.586 173.704L98.2228 175.002L95.8053 17.8367L176.07 47.9008C178.853 48.943 180.707 51.5419 180.752 54.463ZM144.114 141.201L161.076 146.731L160.821 130.188L143.859 124.657L144.114 141.201ZM143.605 108.113L160.567 113.644L160.312 97.0999L143.35 91.5697L143.605 108.113ZM143.096 75.0259L160.058 80.5565L159.803 64.0127L142.841 58.4821L143.096 75.0259ZM118.678 133.318L135.639 138.849L135.385 122.305L118.423 116.775L118.678 133.318ZM118.169 100.231L135.13 105.761L134.876 89.2177L117.914 83.6871L118.169 100.231ZM117.66 67.1433L134.621 72.6739L134.367 56.1301L117.405 50.5999L117.66 67.1433Z" fill="url(#paint8_linear_350_10545)"/>
</g>
<g filter="url(#filter7_i_350_10545)">
<path fill-rule="evenodd" clip-rule="evenodd" d="M185.939 49.9873V177.03H97.6717V9.58203L181.147 42.9206C184.041 44.0764 185.939 46.875 185.939 49.9873ZM146.219 141.778L163.872 147.947V130.321L146.219 124.152V141.778ZM146.219 106.526L163.872 112.694V95.0682L146.219 88.8996V106.526ZM146.219 71.2734L163.872 77.4423V59.8161L146.219 53.6472V71.2734ZM119.739 132.965L137.392 139.134V121.507L119.739 115.339V132.965ZM119.739 97.7127L137.392 103.881V86.2554L119.739 80.0865V97.7127ZM119.739 62.4603L137.392 68.6292V51.003L119.739 44.8345V62.4603Z" fill="url(#paint9_linear_350_10545)"/>
</g>
<path d="M97.6713 9.58203H88.5851L88.585 21.3099V177.03H97.6713V9.58203Z" fill="url(#paint10_linear_350_10545)"/>
<g filter="url(#filter8_di_350_10545)">
<mask id="path-16-inside-1_350_10545" fill="white">
<path fill-rule="evenodd" clip-rule="evenodd" d="M235 177V184.995C235 199.818 227.117 213.523 214.303 220.976L154.928 255.511C141.991 263.036 126.009 263.036 113.072 255.511L53.6968 220.976C40.8832 213.523 33 199.818 33 184.995V177H235Z"/>
</mask>
<path fill-rule="evenodd" clip-rule="evenodd" d="M235 177V184.995C235 199.818 227.117 213.523 214.303 220.976L154.928 255.511C141.991 263.036 126.009 263.036 113.072 255.511L53.6968 220.976C40.8832 213.523 33 199.818 33 184.995V177H235Z" fill="url(#paint11_linear_350_10545)" shape-rendering="crispEdges"/>
<path d="M235 177H237V175H235V177ZM214.303 220.976L215.309 222.705L215.309 222.705L214.303 220.976ZM154.928 255.511L155.934 257.24L155.934 257.24L154.928 255.511ZM113.072 255.511L112.066 257.24L112.066 257.24L113.072 255.511ZM53.6968 220.976L52.6913 222.705L52.6913 222.705L53.6968 220.976ZM33 177V175H31V177H33ZM233 177V184.995H237V177H233ZM233 184.995C233 199.106 225.496 212.152 213.298 219.247L215.309 222.705C228.738 214.894 237 200.531 237 184.995H233ZM213.298 219.247L153.923 253.782L155.934 257.24L215.309 222.705L213.298 219.247ZM153.923 253.782C141.607 260.946 126.393 260.946 114.077 253.782L112.066 257.24C125.625 265.126 142.375 265.126 155.934 257.24L153.923 253.782ZM114.077 253.782L54.7024 219.247L52.6913 222.705L112.066 257.24L114.077 253.782ZM54.7024 219.247C42.5045 212.152 35 199.106 35 184.995H31C31 200.531 39.262 214.894 52.6913 222.705L54.7024 219.247ZM35 184.995V177H31V184.995H35ZM33 179H235V175H33V179Z" fill="url(#paint12_linear_350_10545)" mask="url(#path-16-inside-1_350_10545)"/>
</g>
<path d="M100.958 205V195.288H97.2303V193.48H106.614V195.288H102.886V205H100.958ZM107.412 195.12L109.604 192.6H111.22L113.404 195.12H111.604L110.412 193.696L109.212 195.12H107.412ZM113.108 192.896L112.612 191.944C112.911 191.672 113.26 191.499 113.66 191.424C114.066 191.349 114.447 191.392 114.804 191.552C115.162 191.707 115.431 192.003 115.612 192.44C115.751 192.792 115.796 193.117 115.748 193.416C115.706 193.709 115.594 193.968 115.412 194.192C115.236 194.416 115.023 194.597 114.772 194.736C114.522 194.869 114.268 194.955 114.012 194.992L113.66 194.2C113.959 194.109 114.202 193.957 114.388 193.744C114.575 193.531 114.596 193.277 114.452 192.984C114.362 192.787 114.236 192.669 114.076 192.632C113.922 192.595 113.756 192.605 113.58 192.664C113.404 192.717 113.247 192.795 113.108 192.896ZM110.428 205.24C109.564 205.24 108.81 205.045 108.164 204.656C107.519 204.267 107.018 203.731 106.66 203.048C106.308 202.36 106.132 201.571 106.132 200.68C106.132 199.773 106.314 198.979 106.676 198.296C107.039 197.613 107.543 197.08 108.188 196.696C108.834 196.312 109.58 196.12 110.428 196.12C111.298 196.12 112.055 196.315 112.7 196.704C113.346 197.093 113.847 197.632 114.204 198.32C114.562 199.003 114.74 199.789 114.74 200.68C114.74 201.576 114.559 202.368 114.196 203.056C113.839 203.739 113.338 204.275 112.692 204.664C112.047 205.048 111.292 205.24 110.428 205.24ZM110.428 203.432C111.196 203.432 111.767 203.176 112.14 202.664C112.514 202.152 112.7 201.491 112.7 200.68C112.7 199.843 112.511 199.176 112.132 198.68C111.754 198.179 111.186 197.928 110.428 197.928C109.911 197.928 109.484 198.045 109.148 198.28C108.818 198.509 108.572 198.832 108.412 199.248C108.252 199.659 108.172 200.136 108.172 200.68C108.172 201.517 108.362 202.187 108.74 202.688C109.124 203.184 109.687 203.432 110.428 203.432ZM123.458 205.24C122.567 205.24 121.807 205.043 121.178 204.648C120.549 204.248 120.066 203.704 119.73 203.016C119.399 202.328 119.231 201.549 119.226 200.68C119.231 199.795 119.405 199.011 119.746 198.328C120.093 197.64 120.583 197.101 121.218 196.712C121.853 196.317 122.607 196.12 123.482 196.12C124.463 196.12 125.293 196.368 125.97 196.864C126.653 197.355 127.098 198.027 127.306 198.88L125.386 199.4C125.237 198.936 124.989 198.576 124.642 198.32C124.295 198.059 123.901 197.928 123.458 197.928C122.957 197.928 122.543 198.048 122.218 198.288C121.893 198.523 121.653 198.848 121.498 199.264C121.343 199.68 121.266 200.152 121.266 200.68C121.266 201.501 121.45 202.165 121.818 202.672C122.186 203.179 122.733 203.432 123.458 203.432C123.97 203.432 124.373 203.315 124.666 203.08C124.965 202.845 125.189 202.507 125.338 202.064L127.306 202.504C127.039 203.384 126.573 204.061 125.906 204.536C125.239 205.005 124.423 205.24 123.458 205.24ZM134.885 205V200.84C134.885 200.568 134.866 200.267 134.829 199.936C134.792 199.605 134.704 199.288 134.565 198.984C134.432 198.675 134.229 198.421 133.957 198.224C133.69 198.027 133.328 197.928 132.869 197.928C132.624 197.928 132.381 197.968 132.141 198.048C131.901 198.128 131.682 198.267 131.485 198.464C131.293 198.656 131.138 198.923 131.021 199.264C130.904 199.6 130.845 200.032 130.845 200.56L129.701 200.072C129.701 199.336 129.842 198.669 130.125 198.072C130.413 197.475 130.834 197 131.389 196.648C131.944 196.291 132.626 196.112 133.437 196.112C134.077 196.112 134.605 196.219 135.021 196.432C135.437 196.645 135.768 196.917 136.013 197.248C136.258 197.579 136.44 197.931 136.557 198.304C136.674 198.677 136.749 199.032 136.781 199.368C136.818 199.699 136.837 199.968 136.837 200.176V205H134.885ZM128.893 205V193.48H130.613V199.544H130.845V205H128.893ZM146.773 194.928L148.229 194.92C148.309 195.501 148.279 195.976 148.141 196.344C148.002 196.707 147.765 196.984 147.429 197.176C147.109 197.363 146.746 197.459 146.341 197.464C145.941 197.469 145.573 197.453 145.237 197.416V196.36C145.354 196.36 145.466 196.36 145.573 196.36C145.679 196.355 145.786 196.341 145.893 196.32C146.298 196.251 146.546 196.08 146.637 195.808C146.733 195.531 146.778 195.237 146.773 194.928ZM143.373 195.12H141.917L143.149 192.16H144.613L143.373 195.12ZM142.165 205.248C141.525 205.248 140.997 205.141 140.581 204.928C140.165 204.715 139.834 204.443 139.589 204.112C139.343 203.781 139.162 203.429 139.045 203.056C138.927 202.683 138.85 202.331 138.813 202C138.781 201.664 138.765 201.392 138.765 201.184V196.36H140.717V200.52C140.717 200.787 140.735 201.088 140.773 201.424C140.81 201.755 140.895 202.075 141.029 202.384C141.167 202.688 141.37 202.939 141.637 203.136C141.909 203.333 142.274 203.432 142.733 203.432C142.978 203.432 143.221 203.392 143.461 203.312C143.701 203.232 143.917 203.096 144.109 202.904C144.306 202.707 144.463 202.437 144.581 202.096C144.698 201.755 144.757 201.323 144.757 200.8L145.901 201.288C145.901 202.024 145.757 202.691 145.469 203.288C145.186 203.885 144.767 204.363 144.213 204.72C143.658 205.072 142.975 205.248 142.165 205.248ZM144.989 205V202.32H144.757V196.36H146.693V205H144.989ZM152.692 205.24C151.802 205.24 151.042 205.043 150.412 204.648C149.783 204.248 149.3 203.704 148.964 203.016C148.634 202.328 148.466 201.549 148.46 200.68C148.466 199.795 148.639 199.011 148.98 198.328C149.327 197.64 149.818 197.101 150.452 196.712C151.087 196.317 151.842 196.12 152.716 196.12C153.698 196.12 154.527 196.368 155.204 196.864C155.887 197.355 156.332 198.027 156.54 198.88L154.62 199.4C154.471 198.936 154.223 198.576 153.876 198.32C153.53 198.059 153.135 197.928 152.692 197.928C152.191 197.928 151.778 198.048 151.452 198.288C151.127 198.523 150.887 198.848 150.732 199.264C150.578 199.68 150.5 200.152 150.5 200.68C150.5 201.501 150.684 202.165 151.052 202.672C151.42 203.179 151.967 203.432 152.692 203.432C153.204 203.432 153.607 203.315 153.9 203.08C154.199 202.845 154.423 202.507 154.572 202.064L156.54 202.504C156.274 203.384 155.807 204.061 155.14 204.536C154.474 205.005 153.658 205.24 152.692 205.24ZM165.163 205.24C164.523 205.24 163.917 205.147 163.347 204.96C162.781 204.768 162.309 204.467 161.931 204.056C161.627 203.72 161.403 203.355 161.259 202.96C161.12 202.56 161.043 202.133 161.027 201.68C161.027 201.237 161.091 200.808 161.219 200.392C161.352 199.976 161.555 199.608 161.827 199.288C161.933 199.16 162.048 199.048 162.171 198.952C162.299 198.851 162.427 198.76 162.555 198.68C162.24 198.328 162 197.987 161.835 197.656C161.675 197.325 161.595 196.936 161.595 196.488C161.595 195.816 161.776 195.213 162.139 194.68C162.501 194.147 162.995 193.763 163.619 193.528C163.891 193.427 164.165 193.357 164.443 193.32C164.725 193.283 165 193.264 165.267 193.264C165.768 193.264 166.251 193.341 166.715 193.496C167.179 193.645 167.573 193.891 167.899 194.232C168.107 194.429 168.28 194.653 168.419 194.904C168.557 195.149 168.661 195.403 168.731 195.664L166.827 196.072C166.752 195.832 166.621 195.627 166.435 195.456C166.275 195.301 166.085 195.2 165.867 195.152C165.648 195.099 165.432 195.072 165.219 195.072C164.877 195.072 164.576 195.133 164.315 195.256C164.053 195.379 163.859 195.544 163.731 195.752C163.608 195.96 163.547 196.213 163.547 196.512C163.547 196.779 163.595 196.992 163.691 197.152C163.792 197.312 163.915 197.475 164.059 197.64C164.155 197.747 164.272 197.864 164.411 197.992C164.549 198.12 164.693 198.253 164.843 198.392L167.739 201.072C167.744 200.965 167.747 200.851 167.747 200.728C167.747 200.6 167.747 200.48 167.747 200.368V198.96H169.443V201.048C169.443 201.336 169.435 201.616 169.419 201.888C169.403 202.155 169.371 202.376 169.323 202.552L170.755 203.864L169.515 205.184L168.403 204.128C168.131 204.384 167.832 204.592 167.507 204.752C167.181 204.912 166.853 205.027 166.523 205.096C166.283 205.155 166.053 205.192 165.835 205.208C165.616 205.229 165.392 205.24 165.163 205.24ZM165.243 203.408C165.408 203.408 165.563 203.4 165.707 203.384C165.856 203.368 166 203.336 166.139 203.288C166.336 203.229 166.504 203.16 166.643 203.08C166.787 203 166.912 202.917 167.019 202.832L163.971 200.032C163.827 200.085 163.696 200.155 163.579 200.24C163.467 200.32 163.371 200.411 163.291 200.512C163.189 200.645 163.109 200.803 163.051 200.984C162.997 201.16 162.971 201.355 162.971 201.568C162.976 201.813 163.016 202.032 163.091 202.224C163.165 202.411 163.264 202.579 163.387 202.728C163.579 202.973 163.853 203.149 164.211 203.256C164.568 203.357 164.912 203.408 165.243 203.408Z" fill="url(#paint13_linear_350_10545)"/>
<path d="M81.375 220.938C82.3415 220.938 83.125 220.154 83.125 219.188C83.125 218.221 82.3415 217.438 81.375 217.438C80.4085 217.438 79.625 218.221 79.625 219.188C79.625 220.154 80.4085 220.938 81.375 220.938Z" stroke="#C08E0E" stroke-linecap="round" stroke-linejoin="round"/>
<path d="M78.75 222.25C79.0557 221.842 79.452 221.512 79.9077 221.284C80.3633 221.056 80.8657 220.938 81.3751 220.938C81.8845 220.937 82.3869 221.056 82.8425 221.284C83.2982 221.512 83.6945 221.842 84.0002 222.25" stroke="#C08E0E" stroke-linecap="round" stroke-linejoin="round"/>
<path d="M81.375 215.25C82.3415 215.25 83.125 214.466 83.125 213.5C83.125 212.534 82.3415 211.75 81.375 211.75C80.4085 211.75 79.625 212.534 79.625 213.5C79.625 214.466 80.4085 215.25 81.375 215.25Z" stroke="#C08E0E" stroke-linecap="round" stroke-linejoin="round"/>
<path d="M78.75 216.562C79.0557 216.155 79.452 215.824 79.9077 215.596C80.3633 215.369 80.8657 215.25 81.3751 215.25C81.8845 215.25 82.3869 215.369 82.8425 215.596C83.2982 215.824 83.6945 216.155 84.0002 216.562" stroke="#C08E0E" stroke-linecap="round" stroke-linejoin="round"/>
<path d="M86.625 220.938C87.5915 220.938 88.375 220.154 88.375 219.188C88.375 218.221 87.5915 217.438 86.625 217.438C85.6585 217.438 84.875 218.221 84.875 219.188C84.875 220.154 85.6585 220.938 86.625 220.938Z" stroke="#C08E0E" stroke-linecap="round" stroke-linejoin="round"/>
<path d="M84 222.25C84.3057 221.842 84.702 221.512 85.1577 221.284C85.6133 221.056 86.1157 220.938 86.6251 220.938C87.1345 220.937 87.6369 221.056 88.0925 221.284C88.5482 221.512 88.9445 221.842 89.2502 222.25" stroke="#C08E0E" stroke-linecap="round" stroke-linejoin="round"/>
<path d="M86.625 215.25C87.5915 215.25 88.375 214.466 88.375 213.5C88.375 212.534 87.5915 211.75 86.625 211.75C85.6585 211.75 84.875 212.534 84.875 213.5C84.875 214.466 85.6585 215.25 86.625 215.25Z" stroke="#C08E0E" stroke-linecap="round" stroke-linejoin="round"/>
<path d="M84 216.562C84.3057 216.155 84.702 215.824 85.1577 215.596C85.6133 215.369 86.1157 215.25 86.6251 215.25C87.1345 215.25 87.6369 215.369 88.0925 215.596C88.5482 215.824 88.9445 216.155 89.2502 216.562" stroke="#C08E0E" stroke-linecap="round" stroke-linejoin="round"/>
<path d="M95.1434 217.118V216.236H99.0134V217.118H95.1434ZM95.8214 221V212.36H98.4854C98.5734 212.36 98.7274 212.362 98.9474 212.366C99.1674 212.37 99.3774 212.386 99.5774 212.414C100.245 212.502 100.803 212.746 101.251 213.146C101.703 213.542 102.043 214.046 102.271 214.658C102.499 215.27 102.613 215.944 102.613 216.68C102.613 217.416 102.499 218.09 102.271 218.702C102.043 219.314 101.703 219.82 101.251 220.22C100.803 220.616 100.245 220.858 99.5774 220.946C99.3774 220.97 99.1654 220.986 98.9414 220.994C98.7214 220.998 98.5694 221 98.4854 221H95.8214ZM96.9194 219.98H98.4854C98.6374 219.98 98.8074 219.976 98.9954 219.968C99.1834 219.956 99.3474 219.938 99.4874 219.914C99.9594 219.826 100.341 219.628 100.633 219.32C100.925 219.012 101.139 218.628 101.275 218.168C101.411 217.708 101.479 217.212 101.479 216.68C101.479 216.136 101.409 215.634 101.269 215.174C101.133 214.714 100.919 214.332 100.627 214.028C100.335 213.724 99.9554 213.53 99.4874 213.446C99.3474 213.418 99.1814 213.4 98.9894 213.392C98.7974 213.384 98.6294 213.38 98.4854 213.38H96.9194V219.98ZM108.988 213.44H109.846C109.898 213.804 109.886 214.12 109.81 214.388C109.738 214.652 109.58 214.858 109.336 215.006C109.128 215.122 108.87 215.184 108.562 215.192C108.258 215.2 107.978 215.124 107.722 214.964V214.472C107.914 214.524 108.076 214.554 108.208 214.562C108.344 214.566 108.47 214.54 108.586 214.484C108.798 214.384 108.922 214.24 108.958 214.052C108.994 213.86 109.004 213.656 108.988 213.44ZM106.756 221.18C106.112 221.18 105.556 221.034 105.088 220.742C104.624 220.45 104.266 220.046 104.014 219.53C103.762 219.014 103.636 218.422 103.636 217.754C103.636 217.074 103.764 216.478 104.02 215.966C104.276 215.454 104.638 215.056 105.106 214.772C105.574 214.484 106.124 214.34 106.756 214.34C107.404 214.34 107.962 214.486 108.43 214.778C108.898 215.066 109.256 215.468 109.504 215.984C109.756 216.496 109.882 217.086 109.882 217.754C109.882 218.43 109.756 219.026 109.504 219.542C109.252 220.054 108.892 220.456 108.424 220.748C107.956 221.036 107.4 221.18 106.756 221.18ZM106.756 220.166C107.428 220.166 107.928 219.942 108.256 219.494C108.584 219.046 108.748 218.466 108.748 217.754C108.748 217.022 108.582 216.44 108.25 216.008C107.918 215.572 107.42 215.354 106.756 215.354C106.304 215.354 105.932 215.456 105.64 215.66C105.348 215.864 105.13 216.146 104.986 216.506C104.842 216.866 104.77 217.282 104.77 217.754C104.77 218.482 104.938 219.066 105.274 219.506C105.61 219.946 106.104 220.166 106.756 220.166ZM115.817 221V217.754C115.817 217.446 115.789 217.15 115.733 216.866C115.681 216.582 115.587 216.328 115.451 216.104C115.319 215.876 115.139 215.696 114.911 215.564C114.687 215.432 114.403 215.366 114.059 215.366C113.791 215.366 113.547 215.412 113.327 215.504C113.111 215.592 112.925 215.728 112.769 215.912C112.613 216.096 112.491 216.328 112.403 216.608C112.319 216.884 112.277 217.21 112.277 217.586L111.575 217.37C111.575 216.742 111.687 216.204 111.911 215.756C112.139 215.304 112.457 214.958 112.865 214.718C113.277 214.474 113.761 214.352 114.317 214.352C114.737 214.352 115.095 214.418 115.391 214.55C115.687 214.682 115.933 214.858 116.129 215.078C116.325 215.294 116.479 215.538 116.591 215.81C116.703 216.078 116.781 216.352 116.825 216.632C116.873 216.908 116.897 217.17 116.897 217.418V221H115.817ZM111.197 221V214.52H112.157V216.254H112.277V221H111.197ZM122.612 221L120.26 214.52H121.34L123.158 219.638L124.97 214.52H126.056L123.704 221H122.612ZM127.207 223.31V222.206H128.383V223.31H127.207ZM127.261 213.374V212.27H128.329V213.374H127.261ZM127.261 221V214.52H128.329V221H127.261ZM136.149 221C135.765 221.076 135.385 221.106 135.009 221.09C134.637 221.078 134.305 221.004 134.013 220.868C133.721 220.728 133.499 220.512 133.347 220.22C133.219 219.964 133.149 219.706 133.137 219.446C133.129 219.182 133.125 218.884 133.125 218.552V212.72H134.193V218.504C134.193 218.768 134.195 218.994 134.199 219.182C134.207 219.37 134.249 219.532 134.325 219.668C134.469 219.924 134.697 220.074 135.009 220.118C135.325 220.162 135.705 220.15 136.149 220.082V221ZM131.811 215.402V214.52H136.149V215.402H131.811ZM142.079 221V217.754C142.079 217.446 142.051 217.15 141.995 216.866C141.943 216.582 141.849 216.328 141.713 216.104C141.581 215.876 141.401 215.696 141.173 215.564C140.949 215.432 140.665 215.366 140.321 215.366C140.053 215.366 139.809 215.412 139.589 215.504C139.373 215.592 139.187 215.728 139.031 215.912C138.875 216.096 138.753 216.328 138.665 216.608C138.581 216.884 138.539 217.21 138.539 217.586L137.837 217.37C137.837 216.742 137.949 216.204 138.173 215.756C138.401 215.304 138.719 214.958 139.127 214.718C139.539 214.474 140.023 214.352 140.579 214.352C140.999 214.352 141.357 214.418 141.653 214.55C141.949 214.682 142.195 214.858 142.391 215.078C142.587 215.294 142.741 215.538 142.853 215.81C142.965 216.078 143.043 216.352 143.087 216.632C143.135 216.908 143.159 217.17 143.159 217.418V221H142.079ZM137.459 221V212.36H138.419V217.13H138.539V221H137.459ZM146.909 213.53L146.123 211.55H146.993L147.779 213.53H146.909ZM146.561 221.18C146.077 221.18 145.671 221.092 145.343 220.916C145.019 220.736 144.773 220.5 144.605 220.208C144.441 219.916 144.359 219.596 144.359 219.248C144.359 218.908 144.423 218.614 144.551 218.366C144.683 218.114 144.867 217.906 145.103 217.742C145.339 217.574 145.621 217.442 145.949 217.346C146.257 217.262 146.601 217.19 146.981 217.13C147.365 217.066 147.753 217.008 148.145 216.956C148.537 216.904 148.903 216.854 149.243 216.806L148.859 217.028C148.871 216.452 148.755 216.026 148.511 215.75C148.271 215.474 147.855 215.336 147.263 215.336C146.871 215.336 146.527 215.426 146.231 215.606C145.939 215.782 145.733 216.07 145.613 216.47L144.599 216.164C144.755 215.596 145.057 215.15 145.505 214.826C145.953 214.502 146.543 214.34 147.275 214.34C147.863 214.34 148.367 214.446 148.787 214.658C149.211 214.866 149.515 215.182 149.699 215.606C149.791 215.806 149.849 216.024 149.873 216.26C149.897 216.492 149.909 216.736 149.909 216.992V221H148.961V219.446L149.183 219.59C148.939 220.114 148.597 220.51 148.157 220.778C147.721 221.046 147.189 221.18 146.561 221.18ZM146.723 220.286C147.107 220.286 147.439 220.218 147.719 220.082C148.003 219.942 148.231 219.76 148.403 219.536C148.575 219.308 148.687 219.06 148.739 218.792C148.799 218.592 148.831 218.37 148.835 218.126C148.843 217.878 148.847 217.688 148.847 217.556L149.219 217.718C148.871 217.766 148.529 217.812 148.193 217.856C147.857 217.9 147.539 217.948 147.239 218C146.939 218.048 146.669 218.106 146.429 218.174C146.253 218.23 146.087 218.302 145.931 218.39C145.779 218.478 145.655 218.592 145.559 218.732C145.467 218.868 145.421 219.038 145.421 219.242C145.421 219.418 145.465 219.586 145.553 219.746C145.645 219.906 145.785 220.036 145.973 220.136C146.165 220.236 146.415 220.286 146.723 220.286ZM156.083 221V217.754C156.083 217.446 156.055 217.15 155.999 216.866C155.947 216.582 155.853 216.328 155.717 216.104C155.585 215.876 155.405 215.696 155.177 215.564C154.953 215.432 154.669 215.366 154.325 215.366C154.057 215.366 153.813 215.412 153.593 215.504C153.377 215.592 153.191 215.728 153.035 215.912C152.879 216.096 152.757 216.328 152.669 216.608C152.585 216.884 152.543 217.21 152.543 217.586L151.841 217.37C151.841 216.742 151.953 216.204 152.177 215.756C152.405 215.304 152.723 214.958 153.131 214.718C153.543 214.474 154.027 214.352 154.583 214.352C155.003 214.352 155.361 214.418 155.657 214.55C155.953 214.682 156.199 214.858 156.395 215.078C156.591 215.294 156.745 215.538 156.857 215.81C156.969 216.078 157.047 216.352 157.091 216.632C157.139 216.908 157.163 217.17 157.163 217.418V221H156.083ZM151.463 221V214.52H152.423V216.254H152.543V221H151.463ZM163.337 221V217.754C163.337 217.446 163.309 217.15 163.253 216.866C163.201 216.582 163.107 216.328 162.971 216.104C162.839 215.876 162.659 215.696 162.431 215.564C162.207 215.432 161.923 215.366 161.579 215.366C161.311 215.366 161.067 215.412 160.847 215.504C160.631 215.592 160.445 215.728 160.289 215.912C160.133 216.096 160.011 216.328 159.923 216.608C159.839 216.884 159.797 217.21 159.797 217.586L159.095 217.37C159.095 216.742 159.207 216.204 159.431 215.756C159.659 215.304 159.977 214.958 160.385 214.718C160.797 214.474 161.281 214.352 161.837 214.352C162.257 214.352 162.615 214.418 162.911 214.55C163.207 214.682 163.453 214.858 163.649 215.078C163.845 215.294 163.999 215.538 164.111 215.81C164.223 216.078 164.301 216.352 164.345 216.632C164.393 216.908 164.417 217.17 164.417 217.418V221H163.337ZM158.717 221V212.36H159.677V217.13H159.797V221H158.717ZM170.131 221L167.779 214.52H168.859L170.677 219.638L172.489 214.52H173.575L171.223 221H170.131ZM174.78 213.374V212.27H175.848V213.374H174.78ZM174.78 221V214.52H175.848V221H174.78ZM178.459 213.53L179.923 211.82H180.871L182.335 213.53H181.285L180.397 212.48L179.509 213.53H178.459ZM180.457 221.18C179.821 221.18 179.265 221.04 178.789 220.76C178.317 220.476 177.949 220.082 177.685 219.578C177.421 219.07 177.289 218.478 177.289 217.802C177.289 217.094 177.419 216.482 177.679 215.966C177.939 215.446 178.301 215.046 178.765 214.766C179.233 214.482 179.781 214.34 180.409 214.34C181.061 214.34 181.615 214.49 182.071 214.79C182.531 215.09 182.875 215.518 183.103 216.074C183.335 216.63 183.435 217.292 183.403 218.06H182.323V217.676C182.311 216.88 182.149 216.286 181.837 215.894C181.525 215.498 181.061 215.3 180.445 215.3C179.785 215.3 179.283 215.512 178.939 215.936C178.595 216.36 178.423 216.968 178.423 217.76C178.423 218.524 178.595 219.116 178.939 219.536C179.283 219.956 179.773 220.166 180.409 220.166C180.837 220.166 181.209 220.068 181.525 219.872C181.841 219.676 182.089 219.394 182.269 219.026L183.295 219.38C183.043 219.952 182.663 220.396 182.155 220.712C181.651 221.024 181.085 221.18 180.457 221.18ZM178.063 218.06V217.202H182.851V218.06H178.063ZM189.177 221V217.754C189.177 217.446 189.149 217.15 189.093 216.866C189.041 216.582 188.947 216.328 188.811 216.104C188.679 215.876 188.499 215.696 188.271 215.564C188.047 215.432 187.763 215.366 187.419 215.366C187.151 215.366 186.907 215.412 186.687 215.504C186.471 215.592 186.285 215.728 186.129 215.912C185.973 216.096 185.851 216.328 185.763 216.608C185.679 216.884 185.637 217.21 185.637 217.586L184.935 217.37C184.935 216.742 185.047 216.204 185.271 215.756C185.499 215.304 185.817 214.958 186.225 214.718C186.637 214.474 187.121 214.352 187.677 214.352C188.097 214.352 188.455 214.418 188.751 214.55C189.047 214.682 189.293 214.858 189.489 215.078C189.685 215.294 189.839 215.538 189.951 215.81C190.063 216.078 190.141 216.352 190.185 216.632C190.233 216.908 190.257 217.17 190.257 217.418V221H189.177ZM184.557 221V214.52H185.517V216.254H185.637V221H184.557Z" fill="#C08E0E"/>
<defs>
<filter id="filter0_dii_350_10545" x="0.572873" y="24.861" width="244.135" height="262.998" filterUnits="userSpaceOnUse" color-interpolation-filters="sRGB">
<feFlood flood-opacity="0" result="BackgroundImageFix"/>
<feColorMatrix in="SourceAlpha" type="matrix" values="0 0 0 0 0 0 0 0 0 0 0 0 0 0 0 0 0 0 127 0" result="hardAlpha"/>
<feOffset dx="-9.08772" dy="3.89474"/>
<feGaussianBlur stdDeviation="9.73684"/>
<feComposite in2="hardAlpha" operator="out"/>
<feColorMatrix type="matrix" values="0 0 0 0 0.298039 0 0 0 0 0.19702 0 0 0 0 0.0784314 0 0 0 0.4 0"/>
<feBlend mode="normal" in2="BackgroundImageFix" result="effect1_dropShadow_350_10545"/>
<feBlend mode="normal" in="SourceGraphic" in2="effect1_dropShadow_350_10545" result="shape"/>
<feColorMatrix in="SourceAlpha" type="matrix" values="0 0 0 0 0 0 0 0 0 0 0 0 0 0 0 0 0 0 127 0" result="hardAlpha"/>
<feOffset dy="-1.73437"/>
<feGaussianBlur stdDeviation="1.73437"/>
<feComposite in2="hardAlpha" operator="arithmetic" k2="-1" k3="1"/>
<feColorMatrix type="matrix" values="0 0 0 0 0 0 0 0 0 0 0 0 0 0 0 0 0 0 0.53 0"/>
<feBlend mode="multiply" in2="shape" result="effect2_innerShadow_350_10545"/>
<feColorMatrix in="SourceAlpha" type="matrix" values="0 0 0 0 0 0 0 0 0 0 0 0 0 0 0 0 0 0 127 0" result="hardAlpha"/>
<feOffset dy="1.73437"/>
<feGaussianBlur stdDeviation="0.867187"/>
<feComposite in2="hardAlpha" operator="arithmetic" k2="-1" k3="1"/>
<feColorMatrix type="matrix" values="0 0 0 0 0.154167 0 0 0 0 0.122935 0 0 0 0 0.0122049 0 0 0 0.25 0"/>
<feBlend mode="normal" in2="effect2_innerShadow_350_10545" result="effect3_innerShadow_350_10545"/>
</filter>
<filter id="filter1_i_350_10545" x="204" y="0" width="29" height="33" filterUnits="userSpaceOnUse" color-interpolation-filters="sRGB">
<feFlood flood-opacity="0" result="BackgroundImageFix"/>
<feBlend mode="normal" in="SourceGraphic" in2="BackgroundImageFix" result="shape"/>
<feColorMatrix in="SourceAlpha" type="matrix" values="0 0 0 0 0 0 0 0 0 0 0 0 0 0 0 0 0 0 127 0" result="hardAlpha"/>
<feOffset dy="4"/>
<feGaussianBlur stdDeviation="3"/>
<feComposite in2="hardAlpha" operator="arithmetic" k2="-1" k3="1"/>
<feColorMatrix type="matrix" values="0 0 0 0 1 0 0 0 0 1 0 0 0 0 1 0 0 0 0.4 0"/>
<feBlend mode="normal" in2="shape" result="effect1_innerShadow_350_10545"/>
</filter>
<filter id="filter2_i_350_10545" x="18" y="42" width="22" height="26" filterUnits="userSpaceOnUse" color-interpolation-filters="sRGB">
<feFlood flood-opacity="0" result="BackgroundImageFix"/>
<feBlend mode="normal" in="SourceGraphic" in2="BackgroundImageFix" result="shape"/>
<feColorMatrix in="SourceAlpha" type="matrix" values="0 0 0 0 0 0 0 0 0 0 0 0 0 0 0 0 0 0 127 0" result="hardAlpha"/>
<feOffset dy="4"/>
<feGaussianBlur stdDeviation="3"/>
<feComposite in2="hardAlpha" operator="arithmetic" k2="-1" k3="1"/>
<feColorMatrix type="matrix" values="0 0 0 0 1 0 0 0 0 1 0 0 0 0 1 0 0 0 0.4 0"/>
<feBlend mode="normal" in2="shape" result="effect1_innerShadow_350_10545"/>
</filter>
<filter id="filter3_i_350_10545" x="260" y="160" width="14" height="19" filterUnits="userSpaceOnUse" color-interpolation-filters="sRGB">
<feFlood flood-opacity="0" result="BackgroundImageFix"/>
<feBlend mode="normal" in="SourceGraphic" in2="BackgroundImageFix" result="shape"/>
<feColorMatrix in="SourceAlpha" type="matrix" values="0 0 0 0 0 0 0 0 0 0 0 0 0 0 0 0 0 0 127 0" result="hardAlpha"/>
<feOffset dy="4"/>
<feGaussianBlur stdDeviation="3"/>
<feComposite in2="hardAlpha" operator="arithmetic" k2="-1" k3="1"/>
<feColorMatrix type="matrix" values="0 0 0 0 1 0 0 0 0 1 0 0 0 0 1 0 0 0 0.4 0"/>
<feBlend mode="normal" in2="shape" result="effect1_innerShadow_350_10545"/>
</filter>
<filter id="filter4_i_350_10545" x="10" y="99" width="8" height="13" filterUnits="userSpaceOnUse" color-interpolation-filters="sRGB">
<feFlood flood-opacity="0" result="BackgroundImageFix"/>
<feBlend mode="normal" in="SourceGraphic" in2="BackgroundImageFix" result="shape"/>
<feColorMatrix in="SourceAlpha" type="matrix" values="0 0 0 0 0 0 0 0 0 0 0 0 0 0 0 0 0 0 127 0" result="hardAlpha"/>
<feOffset dy="4"/>
<feGaussianBlur stdDeviation="3"/>
<feComposite in2="hardAlpha" operator="arithmetic" k2="-1" k3="1"/>
<feColorMatrix type="matrix" values="0 0 0 0 1 0 0 0 0 1 0 0 0 0 1 0 0 0 0.4 0"/>
<feBlend mode="normal" in2="shape" result="effect1_innerShadow_350_10545"/>
</filter>
<filter id="filter5_i_350_10545" x="53.5376" y="9.58203" width="35.0474" height="171.448" filterUnits="userSpaceOnUse" color-interpolation-filters="sRGB">
<feFlood flood-opacity="0" result="BackgroundImageFix"/>
<feBlend mode="normal" in="SourceGraphic" in2="BackgroundImageFix" result="shape"/>
<feColorMatrix in="SourceAlpha" type="matrix" values="0 0 0 0 0 0 0 0 0 0 0 0 0 0 0 0 0 0 127 0" result="hardAlpha"/>
<feOffset dy="4"/>
<feGaussianBlur stdDeviation="2"/>
<feComposite in2="hardAlpha" operator="arithmetic" k2="-1" k3="1"/>
<feColorMatrix type="matrix" values="0 0 0 0 1 0 0 0 0 0.805917 0 0 0 0 0.429167 0 0 0 0.4 0"/>
<feBlend mode="normal" in2="shape" result="effect1_innerShadow_350_10545"/>
</filter>
<filter id="filter6_i_350_10545" x="95.8052" y="17.8369" width="86.7808" height="164.165" filterUnits="userSpaceOnUse" color-interpolation-filters="sRGB">
<feFlood flood-opacity="0" result="BackgroundImageFix"/>
<feBlend mode="normal" in="SourceGraphic" in2="BackgroundImageFix" result="shape"/>
<feColorMatrix in="SourceAlpha" type="matrix" values="0 0 0 0 0 0 0 0 0 0 0 0 0 0 0 0 0 0 127 0" result="hardAlpha"/>
<feOffset dy="19"/>
<feGaussianBlur stdDeviation="3.5"/>
<feComposite in2="hardAlpha" operator="arithmetic" k2="-1" k3="1"/>
<feColorMatrix type="matrix" values="0 0 0 0 0 0 0 0 0 0 0 0 0 0 0 0 0 0 0.25 0"/>
<feBlend mode="normal" in2="shape" result="effect1_innerShadow_350_10545"/>
</filter>
<filter id="filter7_i_350_10545" x="97.6719" y="9.58203" width="88.2671" height="171.448" filterUnits="userSpaceOnUse" color-interpolation-filters="sRGB">
<feFlood flood-opacity="0" result="BackgroundImageFix"/>
<feBlend mode="normal" in="SourceGraphic" in2="BackgroundImageFix" result="shape"/>
<feColorMatrix in="SourceAlpha" type="matrix" values="0 0 0 0 0 0 0 0 0 0 0 0 0 0 0 0 0 0 127 0" result="hardAlpha"/>
<feOffset dy="4"/>
<feGaussianBlur stdDeviation="2"/>
<feComposite in2="hardAlpha" operator="arithmetic" k2="-1" k3="1"/>
<feColorMatrix type="matrix" values="0 0 0 0 1 0 0 0 0 1 0 0 0 0 1 0 0 0 0.4 0"/>
<feBlend mode="normal" in2="shape" result="effect1_innerShadow_350_10545"/>
</filter>
<filter id="filter8_di_350_10545" x="21" y="162" width="226" height="108.155" filterUnits="userSpaceOnUse" color-interpolation-filters="sRGB">
<feFlood flood-opacity="0" result="BackgroundImageFix"/>
<feColorMatrix in="SourceAlpha" type="matrix" values="0 0 0 0 0 0 0 0 0 0 0 0 0 0 0 0 0 0 127 0" result="hardAlpha"/>
<feOffset dy="-3"/>
<feGaussianBlur stdDeviation="6"/>
<feComposite in2="hardAlpha" operator="out"/>
<feColorMatrix type="matrix" values="0 0 0 0 0 0 0 0 0 0 0 0 0 0 0 0 0 0 0.25 0"/>
<feBlend mode="normal" in2="BackgroundImageFix" result="effect1_dropShadow_350_10545"/>
<feBlend mode="normal" in="SourceGraphic" in2="effect1_dropShadow_350_10545" result="shape"/>
<feColorMatrix in="SourceAlpha" type="matrix" values="0 0 0 0 0 0 0 0 0 0 0 0 0 0 0 0 0 0 127 0" result="hardAlpha"/>
<feOffset dy="4"/>
<feGaussianBlur stdDeviation="2"/>
<feComposite in2="hardAlpha" operator="arithmetic" k2="-1" k3="1"/>
<feColorMatrix type="matrix" values="0 0 0 0 1 0 0 0 0 1 0 0 0 0 1 0 0 0 0.25 0"/>
<feBlend mode="normal" in2="shape" result="effect2_innerShadow_350_10545"/>
</filter>
<linearGradient id="paint0_linear_350_10545" x1="131.728" y1="34.0005" x2="131.728" y2="270.93" gradientUnits="userSpaceOnUse">
<stop stop-color="white"/>
<stop offset="1" stop-color="#FFB800" stop-opacity="0"/>
</linearGradient>
<linearGradient id="paint1_linear_350_10545" x1="134" y1="32.7012" x2="134" y2="267.684" gradientUnits="userSpaceOnUse">
<stop stop-color="white"/>
<stop offset="1" stop-color="#FFB800" stop-opacity="0"/>
</linearGradient>
<radialGradient id="paint2_radial_350_10545" cx="0" cy="0" r="1" gradientUnits="userSpaceOnUse" gradientTransform="translate(134 150.192) rotate(90) scale(117.491)">
<stop stop-color="white"/>
<stop offset="1" stop-color="#FFE5C2"/>
</radialGradient>
<linearGradient id="paint3_linear_350_10545" x1="134" y1="32.7012" x2="134" y2="267.684" gradientUnits="userSpaceOnUse">
<stop stop-color="white"/>
<stop offset="1" stop-color="#FFB800" stop-opacity="0"/>
</linearGradient>
<linearGradient id="paint4_linear_350_10545" x1="26.092" y1="70.0149" x2="94.1162" y2="121.486" gradientUnits="userSpaceOnUse">
<stop offset="0.0303573" stop-color="#916418"/>
<stop offset="1" stop-color="#784703"/>
</linearGradient>
<linearGradient id="paint5_linear_350_10545" x1="25.6296" y1="66.6962" x2="105" y2="114" gradientUnits="userSpaceOnUse">
<stop stop-color="#FFE4B5"/>
<stop offset="0.317708" stop-color="#B79763"/>
<stop offset="1" stop-color="#97774B"/>
</linearGradient>
<linearGradient id="paint6_linear_350_10545" x1="202.165" y1="116.021" x2="202.165" y2="177.03" gradientUnits="userSpaceOnUse">
<stop stop-color="#C4A46D"/>
<stop offset="1" stop-color="#97774B"/>
</linearGradient>
<linearGradient id="paint7_linear_350_10545" x1="207.357" y1="117.321" x2="207.357" y2="177.031" gradientUnits="userSpaceOnUse">
<stop stop-color="#FFE6C4"/>
<stop offset="1" stop-color="#C4A46D"/>
</linearGradient>
<linearGradient id="paint8_linear_350_10545" x1="137.987" y1="17.1879" x2="140.404" y2="174.353" gradientUnits="userSpaceOnUse">
<stop stop-color="#C4A46D"/>
<stop offset="1" stop-color="#97774B"/>
</linearGradient>
<linearGradient id="paint9_linear_350_10545" x1="141.805" y1="9.58203" x2="141.805" y2="177.03" gradientUnits="userSpaceOnUse">
<stop stop-color="#FFE6C4"/>
<stop offset="1" stop-color="#C4A46D"/>
</linearGradient>
<linearGradient id="paint10_linear_350_10545" x1="93.1281" y1="9.58203" x2="93.1281" y2="177.03" gradientUnits="userSpaceOnUse">
<stop stop-color="#F8DAAB"/>
<stop offset="1" stop-color="#97774B"/>
</linearGradient>
<linearGradient id="paint11_linear_350_10545" x1="134" y1="177" x2="134" y2="261.155" gradientUnits="userSpaceOnUse">
<stop stop-color="white"/>
<stop offset="1" stop-color="white" stop-opacity="0"/>
</linearGradient>
<linearGradient id="paint12_linear_350_10545" x1="134" y1="177" x2="134" y2="261.155" gradientUnits="userSpaceOnUse">
<stop stop-color="#FFE6C4"/>
<stop offset="1" stop-color="#C4A46D"/>
</linearGradient>
<linearGradient id="paint13_linear_350_10545" x1="134" y1="188" x2="134" y2="210" gradientUnits="userSpaceOnUse">
<stop stop-color="#A1873D"/>
<stop offset="1" stop-color="#513926"/>
</linearGradient>
</defs>
</svg>
