<svg width="36" height="32" viewBox="0 0 36 32" fill="none" xmlns="http://www.w3.org/2000/svg">
<g opacity="0.3">
<path opacity="0.3" d="M23.6219 6.56639C22.8928 6.56569 22.1938 6.27585 21.6782 5.76046C21.1626 5.24508 20.8724 4.54621 20.8713 3.81717V0H8.58784C7.63628 0 6.72372 0.378003 6.05087 1.05086C5.37802 1.72371 5 2.63629 5 3.58785V25.2163C5 26.1678 5.37802 27.0804 6.05087 27.7533C6.72372 28.4261 7.63628 28.8041 8.58784 28.8041H23.3339C24.2855 28.8041 25.1981 28.4261 25.8709 27.7533C26.5438 27.0804 26.9217 26.1678 26.9217 25.2163V6.56639H23.6219Z" fill="#007A47"/>
</g>
<path d="M26.9215 6.56639H23.6216C22.8926 6.56569 22.1936 6.27585 21.678 5.76046C21.1623 5.24508 20.8722 4.54621 20.8711 3.81717V0L26.9215 6.56639Z" fill="#007A47"/>
<path d="M22.4108 20.1096H8.64607C8.51811 20.103 8.39757 20.0475 8.30934 19.9546C8.2211 19.8617 8.17188 19.7385 8.17188 19.6103C8.17188 19.4822 8.2211 19.3589 8.30934 19.266C8.39757 19.1731 8.51811 19.1176 8.64607 19.111H22.4108C22.4786 19.1075 22.5463 19.1178 22.6099 19.1413C22.6736 19.1649 22.7317 19.2011 22.7809 19.2478C22.8301 19.2945 22.8693 19.3507 22.896 19.413C22.9228 19.4754 22.9366 19.5425 22.9366 19.6103C22.9366 19.6782 22.9228 19.7453 22.896 19.8076C22.8693 19.8699 22.8301 19.9262 22.7809 19.9729C22.7317 20.0196 22.6736 20.0558 22.6099 20.0793C22.5463 20.1028 22.4786 20.1131 22.4108 20.1096V20.1096Z" fill="#007A47"/>
<path d="M22.4108 14.4793H8.64607C8.51811 14.4727 8.39757 14.4172 8.30934 14.3243C8.2211 14.2313 8.17188 14.1081 8.17188 13.98C8.17188 13.8518 8.2211 13.7286 8.30934 13.6357C8.39757 13.5428 8.51811 13.4873 8.64607 13.4806H22.4108C22.4786 13.4771 22.5463 13.4875 22.6099 13.511C22.6736 13.5345 22.7317 13.5707 22.7809 13.6174C22.8301 13.6641 22.8693 13.7203 22.896 13.7827C22.9228 13.845 22.9366 13.9121 22.9366 13.98C22.9366 14.0478 22.9228 14.1149 22.896 14.1772C22.8693 14.2396 22.8301 14.2958 22.7809 14.3425C22.7317 14.3892 22.6736 14.4254 22.6099 14.4489C22.5463 14.4725 22.4786 14.4828 22.4108 14.4793V14.4793Z" fill="#007A47"/>
<path d="M22.4108 17.2952H8.64607C8.51811 17.2886 8.39757 17.2331 8.30934 17.1402C8.2211 17.0473 8.17188 16.924 8.17188 16.7959C8.17188 16.6677 8.2211 16.5445 8.30934 16.4516C8.39757 16.3587 8.51811 16.3032 8.64607 16.2966H22.4108C22.4786 16.2931 22.5463 16.3034 22.6099 16.3269C22.6736 16.3504 22.7317 16.3866 22.7809 16.4333C22.8301 16.48 22.8693 16.5363 22.896 16.5986C22.9228 16.6609 22.9366 16.728 22.9366 16.7959C22.9366 16.8637 22.9228 16.9308 22.896 16.9932C22.8693 17.0555 22.8301 17.1117 22.7809 17.1584C22.7317 17.2051 22.6736 17.2413 22.6099 17.2649C22.5463 17.2884 22.4786 17.2987 22.4108 17.2952V17.2952Z" fill="#007A47"/>
<path d="M16.9817 11.6637H8.64607C8.51811 11.657 8.39757 11.6016 8.30934 11.5086C8.2211 11.4157 8.17188 11.2925 8.17188 11.1644C8.17188 11.0362 8.2211 10.913 8.30934 10.8201C8.39757 10.7271 8.51811 10.6717 8.64607 10.665H16.9817C17.1097 10.6717 17.2302 10.7271 17.3185 10.8201C17.4067 10.913 17.4559 11.0362 17.4559 11.1644C17.4559 11.2925 17.4067 11.4157 17.3185 11.5086C17.2302 11.6016 17.1097 11.657 16.9817 11.6637V11.6637Z" fill="#007A47"/>
<path d="M16.9817 8.84774H8.64607C8.51811 8.84113 8.39757 8.78564 8.30934 8.69273C8.2211 8.59981 8.17188 8.47657 8.17188 8.34843C8.17188 8.2203 8.2211 8.09705 8.30934 8.00414C8.39757 7.91123 8.51811 7.85574 8.64607 7.84912H16.9817C17.1097 7.85574 17.2302 7.91123 17.3185 8.00414C17.4067 8.09705 17.4559 8.2203 17.4559 8.34843C17.4559 8.47657 17.4067 8.59981 17.3185 8.69273C17.2302 8.78564 17.1097 8.84113 16.9817 8.84774Z" fill="#007A47"/>
<path d="M29.5245 22.7471H12.8532C11.6706 22.7471 10.7119 23.7057 10.7119 24.8883V29.8588C10.7119 31.0413 11.6706 32 12.8532 32H29.5245C30.7071 32 31.6657 31.0413 31.6657 29.8588V24.8883C31.6657 23.7057 30.7071 22.7471 29.5245 22.7471Z" fill="#007A47"/>
<path d="M16.1807 28.4492V29.4185H15.1768V28.4492H16.1807Z" fill="white"/>
<path d="M17.6552 28.0122V29.4188H16.6846V25.4097H18.2552C18.7325 25.4097 19.0956 25.5279 19.3445 25.7643C19.4708 25.8882 19.5695 26.0375 19.6341 26.2022C19.6986 26.367 19.7276 26.5435 19.7191 26.7203C19.7235 26.9535 19.6655 27.1836 19.5511 27.3869C19.4358 27.5866 19.263 27.7469 19.0551 27.8469C18.8056 27.9654 18.5313 28.0226 18.2552 28.0136L17.6552 28.0122ZM18.7325 26.7203C18.7325 26.3647 18.5378 26.187 18.1485 26.187H17.6552V27.2309H18.1485C18.5378 27.2345 18.7325 27.0643 18.7325 26.7203V26.7203Z" fill="white"/>
<path d="M23.5498 28.4524C23.3824 28.7557 23.1298 29.0032 22.8232 29.1644C22.4791 29.3408 22.0965 29.4283 21.7099 29.419H20.1953V25.4099H21.7099C22.0971 25.4005 22.4807 25.4861 22.8272 25.6592C23.1322 25.8175 23.3836 26.0624 23.5498 26.3632C23.7155 26.6865 23.8019 27.0445 23.8019 27.4078C23.8019 27.7711 23.7155 28.1291 23.5498 28.4524V28.4524ZM22.5059 28.2511C22.7089 28.0165 22.8207 27.7167 22.8207 27.4065C22.8207 27.0962 22.7089 26.7964 22.5059 26.5618C22.2635 26.3489 21.9466 26.2406 21.6246 26.2605H21.1646V28.5511H21.6313C21.9508 28.5692 22.2647 28.4615 22.5059 28.2511V28.2511Z" fill="white"/>
<path d="M26.9648 25.4097V26.1816H25.3209V27.0603H26.5915V27.7976H25.3209V29.4188H24.3516V25.4097H26.9648Z" fill="white"/>
<path d="M22.1676 7.84912H19.8104C19.3995 7.84912 19.0664 8.18221 19.0664 8.59309V10.9503C19.0664 11.3612 19.3995 11.6943 19.8104 11.6943H22.1676C22.5785 11.6943 22.9116 11.3612 22.9116 10.9503V8.59309C22.9116 8.18221 22.5785 7.84912 22.1676 7.84912Z" fill="#007A47"/>
</svg>
