<svg width="48" height="48" viewBox="0 0 48 48" fill="none" xmlns="http://www.w3.org/2000/svg">
<g clip-path="url(#clip0_81_14342)">
<path fill-rule="evenodd" clip-rule="evenodd" d="M23.2142 4.72251C23.6963 4.42583 24.3044 4.42583 24.7865 4.72251L44.2865 16.7225C44.8581 17.0742 45.1264 17.7628 44.9437 18.4085C44.7609 19.0542 44.1715 19.5 43.5004 19.5H39.5V36C39.5 36.8284 38.8284 37.5 38 37.5C37.1716 37.5 36.5 36.8284 36.5 36V19.5H29.5V36C29.5 36.8284 28.8284 37.5 28 37.5C27.1716 37.5 26.5 36.8284 26.5 36V19.5H21.5V36C21.5 36.8284 20.8284 37.5 20 37.5C19.1716 37.5 18.5 36.8284 18.5 36L18.5 19.5H11.5L11.5 36C11.5 36.8284 10.8284 37.5 10 37.5C9.17158 37.5 8.50001 36.8284 8.50001 36L8.50001 19.5H4.50037C3.82928 19.5 3.23984 19.0542 3.05707 18.4085C2.8743 17.7628 3.14268 17.0742 3.71423 16.7225L23.2142 4.72251ZM38 16.5H38.2008L24.0004 7.76127L9.79994 16.5H10H20H28H38Z" fill="#144C27"/>
<path d="M3.00049 43H45.0005" stroke="#144C27" stroke-width="3" stroke-linecap="round" stroke-linejoin="round"/>
<path d="M6.00049 37H42.0005" stroke="#96CF4D" stroke-width="3" stroke-linecap="round" stroke-linejoin="round"/>
</g>
<defs>
<clipPath id="clip0_81_14342">
<rect width="48" height="48" fill="white"/>
</clipPath>
</defs>
</svg>
