<svg width="24" height="24" viewBox="0 0 24 24" fill="none" xmlns="http://www.w3.org/2000/svg">
<path d="M18.1242 3.16507C15.9639 1.66759 13.3298 1.01352 10.72 1.32651C8.11011 1.63949 5.70537 2.89785 3.96041 4.86367C2.21545 6.82948 1.25121 9.3665 1.25 11.9951C1.24981 12.4093 1.58544 12.7452 1.99965 12.7454C2.41387 12.7456 2.74981 12.41 2.75 11.9957C2.75104 9.73397 3.58074 7.55095 5.08221 5.85944C6.58369 4.16792 8.65288 3.08515 10.8986 2.81583C13.1443 2.54652 15.4108 3.10933 17.2697 4.39785C19.1285 5.68638 20.4509 7.61131 20.9867 9.80871C21.5225 12.0061 21.2346 14.3237 20.1775 16.3232C19.1204 18.3228 17.3674 19.8657 15.2498 20.6603C13.1322 21.455 10.7968 21.4462 8.68526 20.6357C6.85322 19.9325 5.29981 18.668 4.24006 17.0345L6.9733 17.7961C7.37231 17.9073 7.7859 17.6739 7.89708 17.2749C8.00826 16.8759 7.77493 16.4623 7.37592 16.3511L3.76921 15.3462C2.51217 14.9959 1.32779 16.0951 1.58339 17.3747L2.31724 21.0487C2.39837 21.4549 2.79342 21.7184 3.19961 21.6373C3.6058 21.5561 3.86931 21.1611 3.78818 20.7549L3.30101 18.3159C4.51607 19.9895 6.19583 21.2869 8.14773 22.0361C10.6017 22.978 13.3158 22.9882 15.7768 22.0647C18.2378 21.1412 20.2751 19.3481 21.5036 17.0243C22.7321 14.7005 23.0667 12.0071 22.444 9.45336C21.8213 6.89962 20.2845 4.66254 18.1242 3.16507Z" fill="url(#paint0_linear_81_14599)"/>
<path d="M12 5.7909C12.4142 5.7909 12.75 6.12669 12.75 6.5409V11.2454H17.4545C17.8688 11.2454 18.2045 11.5812 18.2045 11.9954C18.2045 12.4097 17.8688 12.7454 17.4545 12.7454H11.25V6.5409C11.25 6.12669 11.5858 5.7909 12 5.7909Z" fill="url(#paint1_linear_81_14599)"/>
<defs>
<linearGradient id="paint0_linear_81_14599" x1="1.25" y1="14.516" x2="23.2462" y2="14.516" gradientUnits="userSpaceOnUse">
<stop stop-color="#96BF01"/>
<stop offset="1" stop-color="#0E5A2B"/>
</linearGradient>
<linearGradient id="paint1_linear_81_14599" x1="1.25" y1="14.516" x2="23.2462" y2="14.516" gradientUnits="userSpaceOnUse">
<stop stop-color="#96BF01"/>
<stop offset="1" stop-color="#0E5A2B"/>
</linearGradient>
</defs>
</svg>
