<svg width="48" height="48" viewBox="0 0 48 48" fill="none" xmlns="http://www.w3.org/2000/svg">
<path fill-rule="evenodd" clip-rule="evenodd" d="M34.1088 27.2334C29.5974 27.2334 25.9402 30.8906 25.9402 35.402C25.9402 39.9134 29.5974 43.5706 34.1088 43.5706C38.6202 43.5706 42.2774 39.9134 42.2774 35.402C42.2774 30.8906 38.6202 27.2334 34.1088 27.2334ZM22.9402 35.402C22.9402 29.2338 27.9405 24.2334 34.1088 24.2334C40.277 24.2334 45.2774 29.2338 45.2774 35.402C45.2774 41.5703 40.277 46.5706 34.1088 46.5706C27.9405 46.5706 22.9402 41.5703 22.9402 35.402Z" fill="#144C27"/>
<path fill-rule="evenodd" clip-rule="evenodd" d="M35.4669 33.805V33.655C35.4669 33.3003 35.3814 32.9985 35.1846 32.7859C34.9899 32.5755 34.663 32.4275 34.1258 32.4275C33.2057 32.4275 32.7846 32.9425 32.7846 33.4278C32.7846 33.6116 32.8258 33.7467 32.8957 33.8542C32.9666 33.9631 33.0745 34.0552 33.2262 34.1401C33.4759 34.2797 33.812 34.384 34.2335 34.5147C34.3399 34.5477 34.4517 34.5824 34.5689 34.6198C35.5344 34.9273 36.2096 35.2667 36.6424 35.7137C37.0825 36.1682 37.258 36.7189 37.258 37.4112C37.258 38.0213 37.0372 38.5591 36.6204 38.9701C36.2296 39.3556 35.6742 39.6221 34.9858 39.7407V41.2322H33.2657V39.7129C31.946 39.414 30.958 38.4451 30.958 37.0633V36.9133H32.6781V37.0633C32.6781 37.8291 33.3377 38.376 34.1258 38.376C34.6689 38.376 35.0312 38.2622 35.2545 38.0924C35.4719 37.9271 35.5734 37.6969 35.5734 37.4183C35.5734 37.0651 35.5119 36.8507 35.3212 36.6673C35.1162 36.4701 34.7477 36.2938 34.0795 36.077C34.0563 36.0695 34.0331 36.0619 34.0099 36.0544C33.2558 35.81 32.5479 35.5806 32.0282 35.2146C31.7567 35.0235 31.5316 34.7922 31.3752 34.4979C31.2187 34.2036 31.1355 33.8547 31.1355 33.4349C31.1355 32.137 32.1546 31.3619 33.2657 31.0989V29.5713H34.9858V31.0906C36.279 31.3849 37.116 32.3449 37.116 33.655V33.805H35.4669Z" fill="#96CF4D"/>
<path fill-rule="evenodd" clip-rule="evenodd" d="M2.72241 18.8369C2.72241 15.7993 5.18485 13.3369 8.22241 13.3369H37.7224C40.76 13.3369 43.2224 15.7993 43.2224 18.8369V23.8316C43.2224 24.66 42.5508 25.3316 41.7224 25.3316C40.894 25.3316 40.2224 24.66 40.2224 23.8316V18.8369C40.2224 17.4562 39.1031 16.3369 37.7224 16.3369H8.22241C6.8417 16.3369 5.72241 17.4562 5.72241 18.8369V38.5543C5.72241 39.935 6.8417 41.0543 8.22241 41.0543H22.0446C22.873 41.0543 23.5446 41.7259 23.5446 42.5543C23.5446 43.3827 22.873 44.0543 22.0446 44.0543H8.22241C5.18484 44.0543 2.72241 41.5919 2.72241 38.5543V18.8369Z" fill="#144C27"/>
<path fill-rule="evenodd" clip-rule="evenodd" d="M18.55 10.498C17.9424 10.498 17.45 10.9905 17.45 11.598V14.8372C17.45 15.6657 16.7784 16.3372 15.95 16.3372C15.1215 16.3372 14.45 15.6657 14.45 14.8372V11.598C14.45 9.33368 16.2856 7.49805 18.55 7.49805H27.3964C29.6607 7.49805 31.4964 9.33368 31.4964 11.598V14.8372C31.4964 15.6657 30.8248 16.3372 29.9964 16.3372C29.1679 16.3372 28.4964 15.6657 28.4964 14.8372V11.598C28.4964 10.9905 28.0039 10.498 27.3964 10.498H18.55Z" fill="#144C27"/>
</svg>
