<svg width="20" height="22" viewBox="0 0 20 22" fill="none" xmlns="http://www.w3.org/2000/svg">
<path fill-rule="evenodd" clip-rule="evenodd" d="M11.2987 0.312066C11.6041 0.444642 11.7855 0.762694 11.7442 1.09307L10.8496 8.25004H19C19.291 8.25004 19.5558 8.41839 19.6792 8.68192C19.8026 8.94546 19.7625 9.25662 19.5762 9.48018L9.57618 21.4802C9.36303 21.736 9.00678 21.8206 8.70136 21.688C8.39595 21.5554 8.2145 21.2374 8.2558 20.907L9.15042 13.75H1.00001C0.708996 13.75 0.444252 13.5817 0.320817 13.3182C0.197382 13.0546 0.237541 12.7435 0.423843 12.5199L10.4238 0.519904C10.637 0.264128 10.9932 0.179489 11.2987 0.312066ZM2.60129 12.25H10C10.2151 12.25 10.4199 12.3424 10.5623 12.5037C10.7046 12.665 10.7709 12.8796 10.7442 13.0931L10.0615 18.5547L17.3987 9.75004H10C9.78489 9.75004 9.58012 9.65767 9.43775 9.49639C9.29538 9.33512 9.22912 9.12048 9.2558 8.90702L9.93851 3.44538L2.60129 12.25Z" fill="url(#paint0_linear_114_6362)"/>
<defs>
<linearGradient id="paint0_linear_114_6362" x1="0.25" y1="13.516" x2="20.2" y2="13.516" gradientUnits="userSpaceOnUse">
<stop stop-color="#96BF01"/>
<stop offset="1" stop-color="#0E5A2B"/>
</linearGradient>
</defs>
</svg>
