<svg width="22" height="22" viewBox="0 0 22 22" fill="none" xmlns="http://www.w3.org/2000/svg">
<path d="M17.1242 2.16507C14.9639 0.667593 12.3298 0.0135175 9.71996 0.326506C7.11011 0.639494 4.70537 1.89785 2.96041 3.86367C1.21545 5.82948 0.251213 8.3665 0.25 10.9951C0.249809 11.4093 0.58544 11.7452 0.999654 11.7454C1.41387 11.7456 1.74981 11.41 1.75 10.9957C1.75104 8.73397 2.58074 6.55095 4.08221 4.85944C5.58369 3.16792 7.65288 2.08515 9.89857 1.81583C12.1443 1.54652 14.4108 2.10933 16.2697 3.39785C18.1285 4.68638 19.4509 6.61131 19.9867 8.80871C20.5225 11.0061 20.2346 13.3237 19.1775 15.3232C18.1204 17.3228 16.3674 18.8657 14.2498 19.6603C12.1322 20.455 9.79682 20.4462 7.68526 19.6357C5.85322 18.9325 4.29981 17.668 3.24006 16.0345L5.9733 16.7961C6.37231 16.9073 6.7859 16.6739 6.89708 16.2749C7.00826 15.8759 6.77493 15.4623 6.37592 15.3511L2.76921 14.3462C1.51217 13.9959 0.327788 15.0951 0.58339 16.3747L1.31724 20.0487C1.39837 20.4549 1.79342 20.7184 2.19961 20.6373C2.6058 20.5561 2.86931 20.1611 2.78818 19.7549L2.30101 17.3159C3.51607 18.9895 5.19583 20.2869 7.14773 21.0361C9.60172 21.978 12.3158 21.9882 14.7768 21.0647C17.2378 20.1412 19.2751 18.3481 20.5036 16.0243C21.7321 13.7005 22.0667 11.0071 21.444 8.45336C20.8213 5.89962 19.2845 3.66254 17.1242 2.16507Z" fill="url(#paint0_linear_114_5355)"/>
<path d="M11 4.7909C11.4142 4.7909 11.75 5.12669 11.75 5.5409V10.2454H16.4545C16.8688 10.2454 17.2045 10.5812 17.2045 10.9954C17.2045 11.4097 16.8688 11.7454 16.4545 11.7454H10.25V5.5409C10.25 5.12669 10.5858 4.7909 11 4.7909Z" fill="url(#paint1_linear_114_5355)"/>
<defs>
<linearGradient id="paint0_linear_114_5355" x1="0.25" y1="13.516" x2="22.2462" y2="13.516" gradientUnits="userSpaceOnUse">
<stop stop-color="#96BF01"/>
<stop offset="1" stop-color="#0E5A2B"/>
</linearGradient>
<linearGradient id="paint1_linear_114_5355" x1="0.25" y1="13.516" x2="22.2462" y2="13.516" gradientUnits="userSpaceOnUse">
<stop stop-color="#96BF01"/>
<stop offset="1" stop-color="#0E5A2B"/>
</linearGradient>
</defs>
</svg>
