<svg width="24" height="24" viewBox="0 0 24 24" fill="none" xmlns="http://www.w3.org/2000/svg">
<path fill-rule="evenodd" clip-rule="evenodd" d="M12.0001 4.75C9.65294 4.75 7.75015 6.65279 7.75015 9C7.75015 11.3472 9.65294 13.25 12.0001 13.25C14.3474 13.25 16.2501 11.3472 16.2501 9C16.2501 6.65279 14.3474 4.75 12.0001 4.75ZM6.25015 9C6.25015 5.82436 8.82451 3.25 12.0001 3.25C15.1758 3.25 17.7501 5.82436 17.7501 9C17.7501 12.1756 15.1758 14.75 12.0001 14.75C8.82451 14.75 6.25015 12.1756 6.25015 9Z" fill="black"/>
<path fill-rule="evenodd" clip-rule="evenodd" d="M12.0002 15.1499C10.5225 15.1499 9.06699 15.5707 7.77924 16.3755C6.49091 17.1807 5.41376 18.3435 4.66186 19.7528C4.46688 20.1182 4.01256 20.2564 3.64711 20.0614C3.28165 19.8665 3.14346 19.4121 3.33844 19.0467C4.20871 17.4155 5.46407 16.0536 6.98426 15.1035C8.50504 14.1531 10.2351 13.6499 12.0002 13.6499C13.7653 13.6499 15.4954 14.1531 17.0161 15.1036C18.5363 16.0537 19.7916 17.4157 20.6619 19.0469C20.8568 19.4123 20.7186 19.8666 20.3532 20.0616C19.9877 20.2566 19.5334 20.1184 19.3384 19.7529C18.5866 18.3436 17.5094 17.1808 16.2211 16.3756C14.9334 15.5708 13.4779 15.1499 12.0002 15.1499Z" fill="black"/>
</svg>
